SplineFontDB: 3.2
FontName: NotoSerif-BoldItalic
FullName: Noto Serif Bold Italic
FamilyName: Noto Serif
Weight: Bold
Copyright: Copyright 2022 The Noto Project Authors https:github.comnotofontslatin-greek-cyrillic
Version: 2.13
ItalicAngle: -12
UnderlinePosition: -256
UnderlineWidth: 102.4
Ascent: 1638
Descent: 410
InvalidEm: 0
sfntRevision: 0x00020354
LayerCount: 2
Layer: 0 0 "Back" 1
Layer: 1 0 "Fore" 0
XUID: [1021 282 2012869056 569607]
StyleMap: 0x0021
FSType: 0
OS2Version: 4
OS2_WeightWidthSlopeOnly: 1
OS2_UseTypoMetrics: 1
CreationTime: 1633362552
ModificationTime: 1719097596
PfmFamily: 17
TTFWeight: 700
TTFWidth: 5
LineGap: 0
VLineGap: 0
Panose: 2 2 8 2 6 5 5 9 2 4
OS2TypoAscent: 2189
OS2TypoAOffset: 0
OS2TypoDescent: -600
OS2TypoDOffset: 0
OS2TypoLinegap: 0
OS2WinAscent: 2189
OS2WinAOffset: 0
OS2WinDescent: 797
OS2WinDOffset: 0
HheadAscent: 2189
HheadAOffset: 0
HheadDescent: -600
HheadDOffset: 0
OS2SubXSize: 1331
OS2SubYSize: 1229
OS2SubXOff: -33
OS2SubYOff: 154
OS2SupXSize: 1331
OS2SupYSize: 1229
OS2SupXOff: 152
OS2SupYOff: 717
OS2StrikeYSize: 102
OS2StrikeYPos: 659
OS2CapHeight: 1462
OS2XHeight: 1098
OS2Vendor: 'GOOG'
OS2CodePages: 0000019f.00000000
OS2UnicodeRanges: e00002ff.4000201f.08000029.00100000
Lookup: 1 0 0 "'aalt' Access All Alternates lookup 0" { "'aalt' Access All Alternates lookup 0 subtable"  } ['aalt' ('DFLT' <'dflt' > 'cyrl' <'MKD ' 'SRB ' 'dflt' > 'grek' <'APPH' 'IPPH' 'dflt' > 'latn' <'APPH' 'CAT ' 'EWE ' 'IPPH' 'MAH ' 'MOL ' 'NAV ' 'ROM ' 'dflt' > ) ]
Lookup: 3 0 0 "'aalt' Access All Alternates lookup 1" { "'aalt' Access All Alternates lookup 1 subtable"  } ['aalt' ('DFLT' <'dflt' > 'cyrl' <'MKD ' 'SRB ' 'dflt' > 'grek' <'APPH' 'IPPH' 'dflt' > 'latn' <'APPH' 'CAT ' 'EWE ' 'IPPH' 'MAH ' 'MOL ' 'NAV ' 'ROM ' 'dflt' > ) ]

StartChar: .notdef
Encoding: 1114112 -1 0
Width: 1024
GlyphClass: 1
Flags: HW
LayerCount: 2
Fore
SplineSet
102 0 m 1
 102 1462 l 1
 922 1462 l 1
 922 0 l 1
 102 0 l 1
201 98 m 1
 823 98 l 1
 823 1364 l 1
 201 1364 l 1
 201 98 l 1
EndSplineSet
EndChar

StartChar: exclam
Encoding: 33 33 4
Width: 808
GlyphClass: 1
Flags: HW
LayerCount: 2
Fore
SplineSet
305 467 m 1
 430 1462 l 1
 786 1462 l 1
 440 467 l 1
 305 467 l 1
324 -16 m 0
 226 -16 158 31 158 131 c 0
 158 242 227 315 336 315 c 0
 430 315 502 268 502 168 c 0
 502 31 410 -16 324 -16 c 0
EndSplineSet
Substitution2: "'smcp' Lowercase to Small Capitals lookup 39 subtable" exclam.sc
Substitution2: "'c2sc' Capitals to Small Capitals lookup 38 subtable" exclam.sc
Substitution2: "'aalt' Access All Alternates lookup 0 subtable" exclam.sc
EndChar

StartChar: quotedbl
Encoding: 34 34 5
Width: 1040
GlyphClass: 1
Flags: HW
LayerCount: 2
Fore
SplineSet
311 899 m 1
 360 1462 l 1
 680 1462 l 1
 446 899 l 1
 311 899 l 1
758 899 m 1
 807 1462 l 1
 1126 1462 l 1
 893 899 l 1
 758 899 l 1
EndSplineSet
EndChar

StartChar: numbersign
Encoding: 35 35 6
Width: 1144
GlyphClass: 1
Flags: HW
LayerCount: 2
Fore
SplineSet
141 0 m 1
 262 410 l 1
 57 410 l 1
 72 551 l 1
 303 551 l 1
 414 922 l 1
 176 922 l 1
 193 1065 l 1
 457 1065 l 1
 569 1462 l 1
 717 1462 l 1
 602 1065 l 1
 815 1065 l 1
 932 1462 l 1
 1077 1462 l 1
 961 1065 l 1
 1157 1065 l 1
 1141 922 l 1
 918 922 l 1
 809 551 l 1
 1036 551 l 1
 1022 410 l 1
 766 410 l 1
 647 0 l 1
 502 0 l 1
 621 410 l 1
 408 410 l 1
 287 0 l 1
 141 0 l 1
449 551 m 1
 664 551 l 1
 774 922 l 1
 559 922 l 1
 449 551 l 1
EndSplineSet
EndChar

StartChar: dollar
Encoding: 36 36 7
Width: 1144
GlyphClass: 1
Flags: HW
LayerCount: 2
Fore
SplineSet
422 78 m 1
 174 98 51 198 51 352 c 0
 51 481 136 537 279 537 c 1
 279 347 347 246 449 209 c 1
 541 645 l 1
 346 747 240 850 240 1038 c 0
 240 1265 426 1399 705 1407 c 1
 737 1556 l 1
 852 1556 l 1
 817 1403 l 1
 1032 1387 1141 1307 1141 1196 c 0
 1141 1085 1083 1018 909 1018 c 1
 909 1116 875 1233 791 1276 c 1
 705 872 l 1
 752 848 l 2
 940 750 1030 637 1030 481 c 0
 1030 229 838 82 535 76 c 1
 485 -162 l 1
 371 -162 l 1
 422 78 l 1
678 1290 m 1
 584 1278 504 1223 504 1106 c 0
 504 1028 536 981 602 934 c 1
 678 1290 l 1
559 193 m 1
 686 195 768 276 768 389 c 0
 768 463 745 516 643 586 c 1
 559 193 l 1
EndSplineSet
EndChar

StartChar: percent
Encoding: 37 37 8
Width: 1835
GlyphClass: 1
Flags: HW
LayerCount: 2
Fore
SplineSet
436 573 m 0
 260 573 147 677 147 872 c 0
 147 1128 290 1483 618 1483 c 0
 825 1483 915 1352 915 1178 c 0
 915 942 770 573 436 573 c 0
367 0 m 1
 1382 1462 l 1
 1536 1462 l 1
 526 0 l 1
 367 0 l 1
459 678 m 0
 619 678 702 1036 702 1200 c 0
 702 1309 680 1374 612 1376 c 0
 452 1376 369 1018 369 856 c 0
 369 747 393 678 459 678 c 0
1286 -20 m 0
 1110 -20 997 84 997 279 c 0
 997 535 1140 889 1468 889 c 0
 1675 889 1765 758 1765 584 c 0
 1765 348 1620 -20 1286 -20 c 0
1309 84 m 0
 1469 84 1552 442 1552 606 c 0
 1552 715 1530 780 1462 782 c 0
 1302 782 1219 424 1219 262 c 0
 1219 153 1243 84 1309 84 c 0
EndSplineSet
EndChar

StartChar: ampersand
Encoding: 38 38 9
Width: 1640
GlyphClass: 1
Flags: HW
LayerCount: 2
Fore
SplineSet
549 -20 m 0
 219 -20 70 146 70 365 c 0
 70 637 276 739 516 827 c 1
 455 931 420 1034 420 1130 c 0
 420 1363 588 1483 879 1483 c 0
 1131 1483 1243 1367 1243 1217 c 0
 1243 1029 1137 942 844 823 c 1
 1096 492 l 1
 1143 590 1176 697 1196 795 c 2
 1212 872 l 1
 1622 872 l 1
 1599 764 l 1
 1581 764 l 2
 1489 764 1400 750 1337 627 c 0
 1296 547 1251 454 1192 362 c 1
 1321 193 l 2
 1362 138 1423 109 1511 109 c 2
 1526 109 l 1
 1503 0 l 1
 1110 0 l 1
 1008 141 l 1
 895 45 748 -20 549 -20 c 0
776 922 m 1
 944 994 1010 1061 1010 1188 c 0
 1010 1297 960 1360 864 1360 c 0
 768 1360 696 1284 696 1147 c 0
 696 1069 723 1002 776 922 c 1
612 117 m 0
 739 117 844 170 928 252 c 1
 594 715 l 1
 432 625 371 526 371 381 c 0
 371 229 458 117 612 117 c 0
EndSplineSet
Substitution2: "'smcp' Lowercase to Small Capitals lookup 39 subtable" ampersand.sc
Substitution2: "'c2sc' Capitals to Small Capitals lookup 38 subtable" ampersand.sc
Substitution2: "'aalt' Access All Alternates lookup 0 subtable" ampersand.sc
EndChar

StartChar: quotesingle
Encoding: 39 39 10
Width: 593
GlyphClass: 1
Flags: HW
LayerCount: 2
Fore
SplineSet
311 899 m 1
 340 1462 l 1
 659 1462 l 1
 446 899 l 1
 311 899 l 1
EndSplineSet
EndChar

StartChar: parenleft
Encoding: 40 40 11
Width: 819
GlyphClass: 1
Flags: HW
LayerCount: 2
Fore
SplineSet
553 -285 m 1
 223 -170 86 86 86 381 c 0
 86 889 364 1446 944 1581 c 1
 924 1452 l 1
 502 1221 401 566 401 285 c 0
 401 117 447 -58 580 -154 c 1
 553 -285 l 1
EndSplineSet
Substitution2: "'smcp' Lowercase to Small Capitals lookup 39 subtable" parenleft.sc
Substitution2: "'c2sc' Capitals to Small Capitals lookup 38 subtable" parenleft.sc
Substitution2: "'sups' Superscript lookup 25 subtable" uni207D
Substitution2: "'sinf' Scientific Inferiors lookup 24 subtable" uni208D
Substitution2: "'subs' Subscript lookup 23 subtable" uni208D
AlternateSubs2: "'aalt' Access All Alternates lookup 1 subtable" uni208D uni207D parenleft.sc
EndChar

StartChar: parenright
Encoding: 41 41 12
Width: 819
GlyphClass: 1
Flags: HW
LayerCount: 2
Fore
SplineSet
-70 -154 m 1
 352 77 453 733 453 1014 c 0
 453 1182 407 1356 274 1452 c 1
 301 1583 l 1
 631 1468 768 1213 768 918 c 0
 768 410 490 -148 -90 -283 c 1
 -70 -154 l 1
EndSplineSet
Substitution2: "'smcp' Lowercase to Small Capitals lookup 39 subtable" parenright.sc
Substitution2: "'c2sc' Capitals to Small Capitals lookup 38 subtable" parenright.sc
Substitution2: "'sups' Superscript lookup 25 subtable" uni207E
Substitution2: "'sinf' Scientific Inferiors lookup 24 subtable" uni208E
Substitution2: "'subs' Subscript lookup 23 subtable" uni208E
AlternateSubs2: "'aalt' Access All Alternates lookup 1 subtable" uni208E uni207E parenright.sc
EndChar

StartChar: asterisk
Encoding: 42 42 13
Width: 1265
GlyphClass: 1
Flags: HW
LayerCount: 2
Fore
SplineSet
780 733 m 1
 557 780 l 1
 692 1094 l 1
 350 944 l 1
 301 1161 l 1
 631 1178 l 1
 336 1323 l 1
 469 1507 l 1
 721 1227 l 1
 725 1567 l 1
 950 1520 l 1
 809 1212 l 1
 1153 1358 l 1
 1200 1139 l 1
 872 1126 l 1
 1167 979 l 1
 1034 801 l 1
 778 1073 l 1
 780 733 l 1
EndSplineSet
EndChar

StartChar: plus
Encoding: 43 43 14
Width: 1144
GlyphClass: 1
Flags: HW
LayerCount: 2
Fore
SplineSet
498 293 m 1
 498 659 l 1
 133 659 l 1
 133 805 l 1
 498 805 l 1
 498 1171 l 1
 645 1171 l 1
 645 805 l 1
 1012 805 l 1
 1012 659 l 1
 645 659 l 1
 645 293 l 1
 498 293 l 1
EndSplineSet
Substitution2: "'sups' Superscript lookup 25 subtable" uni207A
Substitution2: "'sinf' Scientific Inferiors lookup 24 subtable" uni208A
Substitution2: "'subs' Subscript lookup 23 subtable" uni208A
AlternateSubs2: "'aalt' Access All Alternates lookup 1 subtable" uni208A uni207A
EndChar

StartChar: comma
Encoding: 44 44 15
Width: 622
GlyphClass: 1
Flags: HW
LayerCount: 2
Fore
SplineSet
-10 -201 m 1
 129 -168 201 -111 201 -31 c 0
 201 55 86 53 86 172 c 0
 86 260 158 313 240 313 c 0
 338 313 418 246 418 127 c 0
 418 -82 266 -252 -33 -309 c 1
 -10 -201 l 1
EndSplineSet
EndChar

StartChar: hyphen
Encoding: 45 45 16
Width: 634
GlyphClass: 1
Flags: HW
LayerCount: 2
Fore
SplineSet
20 451 m 1
 68 666 l 1
 600 666 l 1
 553 451 l 1
 20 451 l 1
EndSplineSet
EndChar

StartChar: period
Encoding: 46 46 17
Width: 622
GlyphClass: 1
Flags: HW
LayerCount: 2
Fore
SplineSet
236 -16 m 0
 138 -16 70 31 70 131 c 0
 70 242 139 315 248 315 c 0
 342 315 414 268 414 168 c 0
 414 31 322 -16 236 -16 c 0
EndSplineSet
EndChar

StartChar: slash
Encoding: 47 47 18
Width: 589
GlyphClass: 1
Flags: HW
LayerCount: 2
Fore
SplineSet
-211 -248 m 1
 662 1556 l 1
 821 1556 l 1
 -51 -248 l 1
 -211 -248 l 1
EndSplineSet
Substitution2: "'frac' Diagonal Fractions lookup 28 subtable" fraction
Substitution2: "'aalt' Access All Alternates lookup 0 subtable" fraction
EndChar

StartChar: zero
Encoding: 48 48 19
Width: 1144
GlyphClass: 1
Flags: HW
LayerCount: 2
Fore
SplineSet
502 -23 m 0
 248 -23 76 149 76 473 c 0
 76 897 282 1485 737 1485 c 0
 970 1485 1155 1342 1155 1016 c 0
 1155 602 957 -23 502 -23 c 0
514 117 m 0
 754 117 885 739 885 1083 c 0
 885 1261 827 1348 727 1348 c 0
 496 1348 356 733 356 385 c 0
 356 203 418 117 514 117 c 0
EndSplineSet
Substitution2: "'zero' Slashed Zero lookup 43 subtable" zero.slash
Substitution2: "'case' Case-Sensitive Forms lookup 40 subtable" zero.lf
Substitution2: "'onum' Oldstyle Figures lookup 37 subtable" zero.tosf
Substitution2: "'pnum' Proportional Numbers lookup 35 subtable" zero.lf
Substitution2: "'frac' Diagonal Fractions lookup 29 subtable" zero.numr
Substitution2: "'dnom' Denominators lookup 27 subtable" zero.dnom
Substitution2: "'numr' Numerators lookup 26 subtable" zero.numr
Substitution2: "'sups' Superscript lookup 25 subtable" uni2070
Substitution2: "'sinf' Scientific Inferiors lookup 24 subtable" uni2080
Substitution2: "'subs' Subscript lookup 23 subtable" uni2080
AlternateSubs2: "'aalt' Access All Alternates lookup 1 subtable" uni2070 zero.lf zero.tosf uni2080 zero.dnom zero.numr
EndChar

StartChar: one
Encoding: 49 49 20
Width: 1144
GlyphClass: 1
Flags: HW
LayerCount: 2
Fore
SplineSet
82 0 m 1
 104 109 l 1
 225 109 l 2
 321 109 383 144 403 242 c 2
 561 987 l 2
 581 1081 604 1174 629 1268 c 1
 621 1268 l 1
 492 1135 412 1055 324 1055 c 0
 267 1055 225 1110 225 1206 c 1
 319 1231 417 1264 573 1364 c 2
 739 1470 l 1
 969 1470 l 1
 709 248 l 2
 705 232 696 192 696 176 c 0
 696 117 762 109 850 109 c 2
 950 109 l 1
 928 0 l 1
 82 0 l 1
EndSplineSet
Substitution2: "'case' Case-Sensitive Forms lookup 40 subtable" one.lf
Substitution2: "'onum' Oldstyle Figures lookup 37 subtable" one.tosf
Substitution2: "'pnum' Proportional Numbers lookup 35 subtable" one.lf
Substitution2: "'frac' Diagonal Fractions lookup 29 subtable" one.numr
Substitution2: "'dnom' Denominators lookup 27 subtable" one.dnom
Substitution2: "'numr' Numerators lookup 26 subtable" one.numr
Substitution2: "'sups' Superscript lookup 25 subtable" uni00B9
Substitution2: "'sinf' Scientific Inferiors lookup 24 subtable" uni2081
Substitution2: "'subs' Subscript lookup 23 subtable" uni2081
AlternateSubs2: "'aalt' Access All Alternates lookup 1 subtable" uni00B9 one.lf one.tosf uni2081 one.dnom one.numr
EndChar

StartChar: two
Encoding: 50 50 21
Width: 1144
GlyphClass: 1
Flags: HW
LayerCount: 2
Fore
SplineSet
-29 0 m 1
 14 211 l 1
 492 614 l 2
 771 850 838 991 838 1163 c 0
 838 1276 786 1356 694 1356 c 0
 559 1356 483 1205 471 1010 c 1
 336 1010 236 1065 236 1186 c 0
 236 1348 406 1483 715 1483 c 0
 996 1483 1149 1374 1149 1198 c 0
 1149 1016 1000 859 707 621 c 2
 215 225 l 1
 692 225 l 2
 823 225 868 309 905 393 c 2
 920 430 l 1
 1040 430 l 1
 940 0 l 1
 -29 0 l 1
EndSplineSet
Substitution2: "'case' Case-Sensitive Forms lookup 40 subtable" two.lf
Substitution2: "'onum' Oldstyle Figures lookup 37 subtable" two.tosf
Substitution2: "'pnum' Proportional Numbers lookup 35 subtable" two.lf
Substitution2: "'frac' Diagonal Fractions lookup 29 subtable" two.numr
Substitution2: "'dnom' Denominators lookup 27 subtable" two.dnom
Substitution2: "'numr' Numerators lookup 26 subtable" two.numr
Substitution2: "'sups' Superscript lookup 25 subtable" uni00B2
Substitution2: "'sinf' Scientific Inferiors lookup 24 subtable" uni2082
Substitution2: "'subs' Subscript lookup 23 subtable" uni2082
AlternateSubs2: "'aalt' Access All Alternates lookup 1 subtable" uni00B2 two.lf two.tosf uni2082 two.dnom two.numr
EndChar

StartChar: three
Encoding: 51 51 22
Width: 1144
GlyphClass: 1
Flags: HW
LayerCount: 2
Fore
SplineSet
430 -20 m 0
 111 -20 -2 112 -2 227 c 0
 -2 333 82 401 223 401 c 1
 223 241 297 125 457 125 c 0
 594 125 723 233 723 446 c 0
 723 602 616 692 434 692 c 2
 346 692 l 1
 367 819 l 1
 432 819 l 2
 661 819 831 965 831 1182 c 0
 831 1284 788 1358 690 1358 c 0
 540 1358 486 1215 457 1053 c 1
 326 1053 225 1084 225 1184 c 0
 225 1352 448 1483 727 1483 c 0
 979 1483 1147 1376 1147 1190 c 0
 1147 1000 1009 811 735 762 c 1
 923 742 1042 637 1042 461 c 0
 1042 99 706 -20 430 -20 c 0
EndSplineSet
Substitution2: "'case' Case-Sensitive Forms lookup 40 subtable" three.lf
Substitution2: "'onum' Oldstyle Figures lookup 37 subtable" three.tosf
Substitution2: "'pnum' Proportional Numbers lookup 35 subtable" three.lf
Substitution2: "'frac' Diagonal Fractions lookup 29 subtable" three.numr
Substitution2: "'dnom' Denominators lookup 27 subtable" three.dnom
Substitution2: "'numr' Numerators lookup 26 subtable" three.numr
Substitution2: "'sups' Superscript lookup 25 subtable" uni00B3
Substitution2: "'sinf' Scientific Inferiors lookup 24 subtable" uni2083
Substitution2: "'subs' Subscript lookup 23 subtable" uni2083
AlternateSubs2: "'aalt' Access All Alternates lookup 1 subtable" uni00B3 three.lf three.tosf uni2083 three.dnom three.numr
EndChar

StartChar: four
Encoding: 52 52 23
Width: 1144
GlyphClass: 1
Flags: HW
LayerCount: 2
Fore
SplineSet
264 0 m 1
 285 109 l 1
 344 109 l 2
 424 109 514 117 543 256 c 2
 569 381 l 1
 0 381 l 1
 29 508 l 1
 813 1462 l 1
 1100 1462 l 1
 897 516 l 1
 1110 516 l 1
 1081 381 l 1
 868 381 l 1
 842 254 l 2
 838 238 834 202 834 190 c 0
 834 120 887 109 969 109 c 2
 1006 109 l 1
 983 0 l 1
 264 0 l 1
551 961 m 2
 188 516 l 1
 598 516 l 1
 674 874 l 2
 697 983 733 1141 772 1268 c 1
 713 1176 610 1033 551 961 c 2
EndSplineSet
Substitution2: "'case' Case-Sensitive Forms lookup 40 subtable" four.lf
Substitution2: "'onum' Oldstyle Figures lookup 37 subtable" four.tosf
Substitution2: "'pnum' Proportional Numbers lookup 35 subtable" four.lf
Substitution2: "'frac' Diagonal Fractions lookup 29 subtable" four.numr
Substitution2: "'dnom' Denominators lookup 27 subtable" four.dnom
Substitution2: "'numr' Numerators lookup 26 subtable" four.numr
Substitution2: "'sups' Superscript lookup 25 subtable" uni2074
Substitution2: "'sinf' Scientific Inferiors lookup 24 subtable" uni2084
Substitution2: "'subs' Subscript lookup 23 subtable" uni2084
AlternateSubs2: "'aalt' Access All Alternates lookup 1 subtable" uni2074 four.lf four.tosf uni2084 four.dnom four.numr
EndChar

StartChar: five
Encoding: 53 53 24
Width: 1144
GlyphClass: 1
Flags: HW
LayerCount: 2
Fore
SplineSet
408 -20 m 0
 123 -20 20 88 20 219 c 0
 20 309 80 383 211 383 c 1
 213 266 254 123 434 123 c 0
 612 123 729 246 729 492 c 0
 729 668 622 754 481 754 c 0
 383 754 323 732 270 709 c 1
 184 752 l 1
 393 1462 l 1
 1167 1462 l 1
 1108 1090 l 1
 983 1090 l 1
 985 1125 989 1172 989 1188 c 0
 989 1219 967 1239 889 1239 c 2
 473 1239 l 1
 356 856 l 1
 405 870 469 889 569 889 c 0
 852 889 1034 754 1034 506 c 0
 1034 207 799 -20 408 -20 c 0
EndSplineSet
Substitution2: "'case' Case-Sensitive Forms lookup 40 subtable" five.lf
Substitution2: "'onum' Oldstyle Figures lookup 37 subtable" five.tosf
Substitution2: "'pnum' Proportional Numbers lookup 35 subtable" five.lf
Substitution2: "'frac' Diagonal Fractions lookup 29 subtable" five.numr
Substitution2: "'dnom' Denominators lookup 27 subtable" five.dnom
Substitution2: "'numr' Numerators lookup 26 subtable" five.numr
Substitution2: "'sups' Superscript lookup 25 subtable" uni2075
Substitution2: "'sinf' Scientific Inferiors lookup 24 subtable" uni2085
Substitution2: "'subs' Subscript lookup 23 subtable" uni2085
AlternateSubs2: "'aalt' Access All Alternates lookup 1 subtable" uni2075 five.lf five.tosf uni2085 five.dnom five.numr
EndChar

StartChar: six
Encoding: 54 54 25
Width: 1144
GlyphClass: 1
Flags: HW
LayerCount: 2
Fore
SplineSet
530 -20 m 0
 294 -20 104 143 104 475 c 0
 104 985 393 1483 866 1483 c 0
 1089 1483 1206 1385 1206 1272 c 0
 1206 1163 1112 1098 950 1098 c 1
 950 1231 938 1362 829 1362 c 0
 653 1362 520 1176 436 795 c 1
 497 842 596 897 735 897 c 0
 973 897 1081 732 1081 535 c 0
 1081 248 903 -20 530 -20 c 0
559 113 m 0
 698 113 793 289 793 518 c 0
 793 682 741 772 641 772 c 0
 553 772 465 717 410 666 c 1
 394 566 385 484 385 410 c 0
 385 203 453 113 559 113 c 0
EndSplineSet
Substitution2: "'case' Case-Sensitive Forms lookup 40 subtable" six.lf
Substitution2: "'onum' Oldstyle Figures lookup 37 subtable" six.tosf
Substitution2: "'pnum' Proportional Numbers lookup 35 subtable" six.lf
Substitution2: "'frac' Diagonal Fractions lookup 29 subtable" six.numr
Substitution2: "'dnom' Denominators lookup 27 subtable" six.dnom
Substitution2: "'numr' Numerators lookup 26 subtable" six.numr
Substitution2: "'sups' Superscript lookup 25 subtable" uni2076
Substitution2: "'sinf' Scientific Inferiors lookup 24 subtable" uni2086
Substitution2: "'subs' Subscript lookup 23 subtable" uni2086
AlternateSubs2: "'aalt' Access All Alternates lookup 1 subtable" uni2076 six.lf six.tosf uni2086 six.dnom six.numr
EndChar

StartChar: seven
Encoding: 55 55 26
Width: 1144
GlyphClass: 1
Flags: HW
LayerCount: 2
Fore
SplineSet
119 0 m 1
 928 1239 l 1
 496 1239 l 2
 422 1239 372 1203 354 1135 c 2
 326 1032 l 1
 201 1032 l 1
 285 1462 l 1
 1262 1462 l 1
 1239 1341 l 1
 387 0 l 1
 119 0 l 1
EndSplineSet
Substitution2: "'case' Case-Sensitive Forms lookup 40 subtable" seven.lf
Substitution2: "'onum' Oldstyle Figures lookup 37 subtable" seven.tosf
Substitution2: "'pnum' Proportional Numbers lookup 35 subtable" seven.lf
Substitution2: "'frac' Diagonal Fractions lookup 29 subtable" seven.numr
Substitution2: "'dnom' Denominators lookup 27 subtable" seven.dnom
Substitution2: "'numr' Numerators lookup 26 subtable" seven.numr
Substitution2: "'sups' Superscript lookup 25 subtable" uni2077
Substitution2: "'sinf' Scientific Inferiors lookup 24 subtable" uni2087
Substitution2: "'subs' Subscript lookup 23 subtable" uni2087
AlternateSubs2: "'aalt' Access All Alternates lookup 1 subtable" uni2077 seven.lf seven.tosf uni2087 seven.dnom seven.numr
EndChar

StartChar: eight
Encoding: 56 56 27
Width: 1144
GlyphClass: 1
Flags: HW
LayerCount: 2
Fore
SplineSet
506 -20 m 0
 219 -20 27 127 27 332 c 0
 27 561 201 653 430 741 c 1
 313 829 233 959 233 1104 c 0
 233 1309 379 1483 752 1483 c 0
 1010 1483 1161 1356 1161 1184 c 0
 1161 977 1020 874 817 784 c 1
 958 694 1065 580 1065 414 c 0
 1065 115 834 -20 506 -20 c 0
690 848 m 1
 848 930 903 1038 903 1169 c 0
 903 1280 852 1364 741 1364 c 0
 614 1364 516 1268 516 1114 c 0
 516 1008 575 918 690 848 c 1
522 98 m 0
 665 98 786 184 786 356 c 0
 786 489 707 578 553 664 c 1
 397 601 303 492 303 324 c 0
 303 185 385 98 522 98 c 0
EndSplineSet
Substitution2: "'case' Case-Sensitive Forms lookup 40 subtable" eight.lf
Substitution2: "'onum' Oldstyle Figures lookup 37 subtable" eight.tosf
Substitution2: "'pnum' Proportional Numbers lookup 35 subtable" eight.lf
Substitution2: "'frac' Diagonal Fractions lookup 29 subtable" eight.numr
Substitution2: "'dnom' Denominators lookup 27 subtable" eight.dnom
Substitution2: "'numr' Numerators lookup 26 subtable" eight.numr
Substitution2: "'sups' Superscript lookup 25 subtable" uni2078
Substitution2: "'sinf' Scientific Inferiors lookup 24 subtable" uni2088
Substitution2: "'subs' Subscript lookup 23 subtable" uni2088
AlternateSubs2: "'aalt' Access All Alternates lookup 1 subtable" uni2078 eight.lf eight.tosf uni2088 eight.dnom eight.numr
EndChar

StartChar: nine
Encoding: 57 57 28
Width: 1144
GlyphClass: 1
Flags: HW
LayerCount: 2
Fore
SplineSet
369 -20 m 0
 150 -20 57 75 57 190 c 0
 57 280 117 332 217 332 c 1
 219 228 268 109 391 109 c 0
 592 109 707 319 811 702 c 1
 741 630 643 563 502 563 c 0
 283 563 160 704 160 903 c 0
 160 1245 426 1483 737 1483 c 0
 983 1483 1139 1337 1139 1079 c 0
 1139 682 930 -20 369 -20 c 0
606 711 m 0
 712 713 791 792 840 870 c 1
 856 936 870 1037 870 1092 c 0
 870 1272 807 1346 719 1346 c 0
 565 1346 455 1124 455 913 c 0
 455 780 514 711 606 711 c 0
EndSplineSet
Substitution2: "'case' Case-Sensitive Forms lookup 40 subtable" nine.lf
Substitution2: "'onum' Oldstyle Figures lookup 37 subtable" nine.tosf
Substitution2: "'pnum' Proportional Numbers lookup 35 subtable" nine.lf
Substitution2: "'frac' Diagonal Fractions lookup 29 subtable" nine.numr
Substitution2: "'dnom' Denominators lookup 27 subtable" nine.dnom
Substitution2: "'numr' Numerators lookup 26 subtable" nine.numr
Substitution2: "'sups' Superscript lookup 25 subtable" uni2079
Substitution2: "'sinf' Scientific Inferiors lookup 24 subtable" uni2089
Substitution2: "'subs' Subscript lookup 23 subtable" uni2089
AlternateSubs2: "'aalt' Access All Alternates lookup 1 subtable" uni2079 nine.lf nine.tosf uni2089 nine.dnom nine.numr
EndChar

StartChar: colon
Encoding: 58 58 29
Width: 733
GlyphClass: 1
Flags: HW
LayerCount: 2
Fore
SplineSet
436 776 m 0
 338 776 270 824 270 924 c 0
 270 1035 340 1108 449 1108 c 0
 543 1108 614 1061 614 961 c 0
 614 824 522 776 436 776 c 0
256 -16 m 0
 158 -16 90 31 90 131 c 0
 90 242 159 315 268 315 c 0
 362 315 434 268 434 168 c 0
 434 31 342 -16 256 -16 c 0
EndSplineSet
EndChar

StartChar: semicolon
Encoding: 59 59 30
Width: 733
GlyphClass: 1
Flags: HW
LayerCount: 2
Fore
SplineSet
436 776 m 0
 338 776 270 824 270 924 c 0
 270 1035 340 1108 449 1108 c 0
 543 1108 614 1061 614 961 c 0
 614 824 522 776 436 776 c 0
0 -201 m 1
 139 -168 211 -111 211 -31 c 0
 211 55 96 53 96 172 c 0
 96 260 168 313 250 313 c 0
 348 313 428 246 428 127 c 0
 428 -82 276 -252 -23 -309 c 1
 0 -201 l 1
EndSplineSet
EndChar

StartChar: less
Encoding: 60 60 31
Width: 1144
GlyphClass: 1
Flags: HW
LayerCount: 2
Fore
SplineSet
1012 213 m 1
 133 690 l 1
 133 774 l 1
 1012 1253 l 1
 1012 1092 l 1
 352 731 l 1
 1012 375 l 1
 1012 213 l 1
EndSplineSet
EndChar

StartChar: equal
Encoding: 61 61 32
Width: 1144
GlyphClass: 1
Flags: HW
LayerCount: 2
Fore
SplineSet
129 858 m 1
 129 1001 l 1
 1016 1001 l 1
 1016 858 l 1
 129 858 l 1
129 461 m 1
 129 604 l 1
 1016 604 l 1
 1016 461 l 1
 129 461 l 1
EndSplineSet
Substitution2: "'sups' Superscript lookup 25 subtable" uni207C
Substitution2: "'sinf' Scientific Inferiors lookup 24 subtable" uni208C
Substitution2: "'subs' Subscript lookup 23 subtable" uni208C
AlternateSubs2: "'aalt' Access All Alternates lookup 1 subtable" uni208C uni207C
EndChar

StartChar: greater
Encoding: 62 62 33
Width: 1144
GlyphClass: 1
Flags: HW
LayerCount: 2
Fore
SplineSet
133 213 m 1
 133 375 l 1
 793 731 l 1
 133 1092 l 1
 133 1253 l 1
 1012 774 l 1
 1012 690 l 1
 133 213 l 1
EndSplineSet
EndChar

StartChar: question
Encoding: 63 63 34
Width: 1095
GlyphClass: 1
Flags: HW
LayerCount: 2
Fore
SplineSet
403 721 m 1
 645 809 803 924 803 1147 c 0
 803 1282 739 1358 655 1358 c 0
 526 1358 477 1215 459 1059 c 1
 291 1059 207 1113 207 1217 c 0
 207 1364 389 1483 680 1483 c 0
 952 1483 1122 1379 1122 1143 c 0
 1122 905 903 753 612 649 c 1
 543 467 l 1
 408 467 l 1
 403 721 l 1
424 -16 m 0
 326 -16 258 31 258 131 c 0
 258 242 327 315 436 315 c 0
 530 315 602 268 602 168 c 0
 602 31 510 -16 424 -16 c 0
EndSplineSet
Substitution2: "'smcp' Lowercase to Small Capitals lookup 39 subtable" question.sc
Substitution2: "'c2sc' Capitals to Small Capitals lookup 38 subtable" question.sc
Substitution2: "'aalt' Access All Alternates lookup 0 subtable" question.sc
EndChar

StartChar: at
Encoding: 64 64 35
Width: 1886
GlyphClass: 1
Flags: HW
LayerCount: 2
Fore
SplineSet
938 -291 m 0
 471 -291 88 -30 88 500 c 0
 88 1049 502 1462 1069 1462 c 0
 1542 1462 1790 1174 1790 803 c 0
 1790 395 1573 158 1368 158 c 0
 1247 158 1161 213 1116 350 c 1
 1104 350 l 1
 1047 244 964 158 821 158 c 0
 649 158 500 268 500 508 c 0
 500 727 654 1083 1051 1083 c 0
 1145 1083 1212 1055 1255 1022 c 1
 1341 1065 l 1
 1391 1065 l 1
 1305 553 l 2
 1299 520 1290 447 1290 414 c 0
 1290 301 1344 276 1389 276 c 0
 1498 276 1624 459 1624 795 c 0
 1624 1170 1385 1358 1055 1358 c 0
 666 1358 289 1026 289 487 c 0
 289 4 598 -186 967 -186 c 0
 1188 -186 1393 -100 1520 -14 c 1
 1569 -92 l 1
 1426 -201 1198 -291 938 -291 c 0
883 276 m 0
 1000 276 1046 399 1069 518 c 2
 1151 936 l 1
 1135 973 1085 993 1042 993 c 0
 835 993 752 651 752 487 c 0
 752 352 805 276 883 276 c 0
EndSplineSet
EndChar

StartChar: A
Encoding: 65 65 36
Width: 1542
GlyphClass: 2
Flags: HW
AnchorPoint: "Anchor-3" 678 731 basechar 0
AnchorPoint: "Anchor-2" 1696 1462 basechar 0
AnchorPoint: "Anchor-1" 655 0 basechar 0
AnchorPoint: "Anchor-0" 967 1462 basechar 0
LayerCount: 2
Fore
SplineSet
-100 0 m 1
 -78 109 l 1
 -35 109 l 2
 41 109 71 139 147 268 c 2
 842 1462 l 1
 1122 1462 l 1
 1294 256 l 2
 1306 170 1335 109 1419 109 c 2
 1456 109 l 1
 1434 0 l 1
 758 0 l 1
 780 109 l 1
 827 109 l 2
 915 109 971 136 971 195 c 0
 971 218 969 240 967 260 c 2
 940 481 l 1
 440 481 l 1
 338 297 l 2
 311 248 299 211 299 182 c 0
 299 131 336 109 414 109 c 2
 455 109 l 1
 432 0 l 1
 -100 0 l 1
711 969 m 2
 510 606 l 1
 926 606 l 1
 885 950 l 2
 873 1071 860 1157 858 1255 c 1
 817 1157 783 1096 711 969 c 2
EndSplineSet
Substitution2: "'c2sc' Capitals to Small Capitals lookup 38 subtable" a.sc
Substitution2: "Single Substitution lookup 33 subtable" ordfeminine
AlternateSubs2: "'aalt' Access All Alternates lookup 1 subtable" ordfeminine a.sc
Position2: "'cpsp' Capital Spacing lookup 0 subtable" dx=10 dy=0 dh=20 dv=0
EndChar

StartChar: B
Encoding: 66 66 37
Width: 1376
GlyphClass: 2
Flags: HW
AnchorPoint: "Anchor-3" 664 731 basechar 0
AnchorPoint: "Anchor-2" 1530 1462 basechar 0
AnchorPoint: "Anchor-1" 571 0 basechar 0
AnchorPoint: "Anchor-0" 883 1462 basechar 0
LayerCount: 2
Fore
SplineSet
-47 0 m 1
 -25 109 l 1
 2 109 l 2
 88 109 167 125 190 231 c 2
 389 1165 l 2
 399 1216 408 1247 408 1278 c 0
 408 1337 348 1354 264 1354 c 2
 238 1354 l 1
 260 1462 l 1
 895 1462 l 2
 1210 1462 1374 1356 1374 1155 c 0
 1374 930 1228 817 1040 774 c 1
 1038 766 l 1
 1185 739 1288 639 1288 467 c 0
 1288 168 1085 0 698 0 c 2
 -47 0 l 1
754 829 m 2
 949 829 1028 934 1028 1120 c 0
 1028 1263 961 1337 836 1337 c 2
 745 1337 l 1
 639 829 l 1
 754 829 l 2
631 125 m 2
 862 125 950 250 950 481 c 0
 950 628 882 702 741 702 c 2
 612 702 l 1
 489 125 l 1
 631 125 l 2
EndSplineSet
Substitution2: "'c2sc' Capitals to Small Capitals lookup 38 subtable" b.sc
Substitution2: "'aalt' Access All Alternates lookup 0 subtable" b.sc
Position2: "'cpsp' Capital Spacing lookup 0 subtable" dx=10 dy=0 dh=20 dv=0
EndChar

StartChar: C
Encoding: 67 67 38
Width: 1368
GlyphClass: 2
Flags: HW
AnchorPoint: "Anchor-3" 784 735 basechar 0
AnchorPoint: "Anchor-2" 1522 1462 basechar 0
AnchorPoint: "Anchor-1" 711 0 basechar 0
AnchorPoint: "Anchor-0" 1022 1462 basechar 0
LayerCount: 2
Fore
SplineSet
750 -20 m 0
 359 -20 129 180 129 530 c 0
 129 1022 487 1491 1034 1491 c 0
 1306 1491 1440 1394 1440 1247 c 0
 1440 1128 1317 1063 1151 1063 c 1
 1151 1178 1129 1360 977 1360 c 0
 655 1360 469 880 469 518 c 0
 469 285 587 152 823 152 c 0
 1011 152 1124 246 1192 338 c 1
 1208 326 1227 299 1227 268 c 0
 1227 131 1059 -20 750 -20 c 0
EndSplineSet
Substitution2: "'c2sc' Capitals to Small Capitals lookup 38 subtable" c.sc
Substitution2: "'aalt' Access All Alternates lookup 0 subtable" c.sc
Position2: "'cpsp' Capital Spacing lookup 0 subtable" dx=10 dy=0 dh=20 dv=0
EndChar

StartChar: D
Encoding: 68 68 39
Width: 1572
GlyphClass: 2
Flags: HW
AnchorPoint: "Anchor-3" 864 731 basechar 0
AnchorPoint: "Anchor-2" 1726 1462 basechar 0
AnchorPoint: "Anchor-1" 670 0 basechar 0
AnchorPoint: "Anchor-0" 981 1462 basechar 0
LayerCount: 2
Fore
SplineSet
-49 0 m 1
 -27 109 l 1
 2 109 l 2
 88 109 167 125 190 231 c 2
 403 1237 l 2
 407 1251 412 1274 412 1284 c 0
 412 1343 350 1354 264 1354 c 2
 238 1354 l 1
 260 1462 l 1
 915 1462 l 2
 1306 1462 1536 1267 1536 905 c 0
 1536 418 1229 0 672 0 c 2
 -49 0 l 1
584 127 m 2
 967 127 1192 455 1192 922 c 0
 1192 1209 1053 1337 834 1337 c 2
 748 1337 l 1
 492 127 l 1
 584 127 l 2
EndSplineSet
Substitution2: "'c2sc' Capitals to Small Capitals lookup 38 subtable" d.sc
Substitution2: "'aalt' Access All Alternates lookup 0 subtable" d.sc
Position2: "'cpsp' Capital Spacing lookup 0 subtable" dx=10 dy=0 dh=20 dv=0
EndChar

StartChar: E
Encoding: 69 69 40
Width: 1296
GlyphClass: 2
Flags: HW
AnchorPoint: "Anchor-3" 662 731 basechar 0
AnchorPoint: "Anchor-2" 1450 1462 basechar 0
AnchorPoint: "Anchor-1" 532 0 basechar 0
AnchorPoint: "Anchor-0" 844 1462 basechar 0
LayerCount: 2
Fore
SplineSet
-47 0 m 1
 -25 109 l 1
 2 109 l 2
 88 109 167 125 190 231 c 2
 403 1237 l 2
 407 1251 412 1274 412 1284 c 0
 412 1343 350 1354 264 1354 c 2
 238 1354 l 1
 260 1462 l 1
 1372 1462 l 1
 1300 1081 l 1
 1155 1081 l 1
 1157 1099 1165 1190 1165 1200 c 0
 1165 1276 1126 1337 1020 1337 c 2
 748 1337 l 1
 639 825 l 1
 1104 825 l 1
 1077 702 l 1
 612 702 l 1
 489 125 l 1
 813 125 l 2
 942 125 1011 203 1044 293 c 2
 1077 381 l 1
 1223 381 l 1
 1128 0 l 1
 -47 0 l 1
EndSplineSet
Substitution2: "'c2sc' Capitals to Small Capitals lookup 38 subtable" e.sc
Substitution2: "'aalt' Access All Alternates lookup 0 subtable" e.sc
Position2: "'cpsp' Capital Spacing lookup 0 subtable" dx=10 dy=0 dh=20 dv=0
EndChar

StartChar: F
Encoding: 70 70 41
Width: 1271
GlyphClass: 2
Flags: HW
AnchorPoint: "Anchor-3" 670 731 basechar 0
AnchorPoint: "Anchor-2" 1425 1462 basechar 0
AnchorPoint: "Anchor-1" 311 0 basechar 0
AnchorPoint: "Anchor-0" 831 1462 basechar 0
LayerCount: 2
Fore
SplineSet
-47 0 m 1
 -25 109 l 1
 2 109 l 2
 88 109 167 125 190 231 c 2
 399 1214 l 2
 407 1251 412 1274 412 1284 c 0
 412 1343 350 1354 264 1354 c 2
 238 1354 l 1
 260 1462 l 1
 1386 1462 l 1
 1315 1081 l 1
 1169 1081 l 1
 1173 1126 1180 1190 1180 1200 c 0
 1180 1278 1141 1337 1026 1337 c 2
 748 1337 l 1
 629 778 l 1
 1114 778 l 1
 1090 657 l 1
 604 657 l 1
 514 242 l 2
 508 211 504 188 504 178 c 0
 504 119 567 109 653 109 c 2
 680 109 l 1
 657 0 l 1
 -47 0 l 1
EndSplineSet
Substitution2: "'c2sc' Capitals to Small Capitals lookup 38 subtable" f.sc
Substitution2: "'aalt' Access All Alternates lookup 0 subtable" f.sc
Position2: "'cpsp' Capital Spacing lookup 0 subtable" dx=10 dy=0 dh=20 dv=0
EndChar

StartChar: G
Encoding: 71 71 42
Width: 1630
GlyphClass: 2
Flags: HW
AnchorPoint: "Anchor-3" 848 731 basechar 0
AnchorPoint: "Anchor-2" 1784 1462 basechar 0
AnchorPoint: "Anchor-1" 698 0 basechar 0
AnchorPoint: "Anchor-0" 1034 1462 basechar 0
LayerCount: 2
Fore
SplineSet
764 -20 m 0
 344 -20 129 190 129 528 c 0
 129 1056 512 1483 1077 1483 c 0
 1390 1483 1542 1362 1542 1239 c 0
 1542 1133 1409 1049 1245 1049 c 1
 1245 1221 1174 1352 1014 1352 c 0
 703 1352 465 950 465 504 c 0
 465 277 553 119 774 119 c 0
 835 119 907 131 956 147 c 1
 1024 451 l 2
 1032 488 1036 510 1036 520 c 0
 1036 579 975 590 889 590 c 2
 862 590 l 1
 885 698 l 1
 1567 698 l 1
 1544 590 l 1
 1536 590 l 2
 1446 590 1371 574 1348 465 c 2
 1270 74 l 1
 1106 11 957 -20 764 -20 c 0
EndSplineSet
Substitution2: "'c2sc' Capitals to Small Capitals lookup 38 subtable" g.sc
Substitution2: "'aalt' Access All Alternates lookup 0 subtable" g.sc
Position2: "'cpsp' Capital Spacing lookup 0 subtable" dx=10 dy=0 dh=20 dv=0
EndChar

StartChar: H
Encoding: 72 72 43
Width: 1677
GlyphClass: 2
Flags: HW
AnchorPoint: "Anchor-3" 918 731 basechar 0
AnchorPoint: "Anchor-2" 1831 1462 basechar 0
AnchorPoint: "Anchor-1" 723 0 basechar 0
AnchorPoint: "Anchor-0" 1034 1462 basechar 0
LayerCount: 2
Fore
SplineSet
-47 0 m 1
 -25 109 l 1
 2 109 l 2
 88 109 167 125 190 231 c 2
 399 1214 l 2
 407 1251 412 1274 412 1284 c 0
 412 1333 383 1354 264 1354 c 2
 238 1354 l 1
 260 1462 l 1
 967 1462 l 1
 944 1354 l 1
 918 1354 l 2
 828 1354 746 1338 723 1229 c 2
 639 825 l 1
 1174 825 l 1
 1260 1223 l 2
 1266 1252 1270 1274 1270 1284 c 0
 1270 1331 1237 1354 1120 1354 c 2
 1094 1354 l 1
 1116 1462 l 1
 1823 1462 l 1
 1800 1354 l 1
 1774 1354 l 2
 1686 1354 1604 1338 1581 1229 c 2
 1370 225 l 2
 1366 211 1362 188 1362 178 c 0
 1362 133 1394 109 1509 109 c 2
 1536 109 l 1
 1513 0 l 1
 807 0 l 1
 829 109 l 1
 856 109 l 2
 944 109 1026 124 1049 233 c 2
 1147 700 l 1
 612 700 l 1
 512 225 l 2
 508 211 504 188 504 178 c 0
 504 125 542 109 653 109 c 2
 680 109 l 1
 657 0 l 1
 -47 0 l 1
EndSplineSet
Substitution2: "'c2sc' Capitals to Small Capitals lookup 38 subtable" h.sc
Substitution2: "'aalt' Access All Alternates lookup 0 subtable" h.sc
Position2: "'cpsp' Capital Spacing lookup 0 subtable" dx=10 dy=0 dh=20 dv=0
EndChar

StartChar: I
Encoding: 73 73 44
Width: 821
GlyphClass: 2
Flags: HW
AnchorPoint: "Anchor-3" 459 731 basechar 0
AnchorPoint: "Anchor-2" 975 1462 basechar 0
AnchorPoint: "Anchor-1" 295 0 basechar 0
AnchorPoint: "Anchor-0" 606 1462 basechar 0
LayerCount: 2
Fore
SplineSet
-47 0 m 1
 -25 109 l 1
 2 109 l 2
 88 109 167 125 190 231 c 2
 403 1223 l 2
 409 1250 412 1274 412 1284 c 0
 412 1343 350 1354 264 1354 c 2
 238 1354 l 1
 260 1462 l 1
 967 1462 l 1
 944 1354 l 1
 918 1354 l 2
 828 1354 746 1338 723 1229 c 2
 512 225 l 2
 510 211 504 188 504 178 c 0
 504 119 567 109 653 109 c 2
 680 109 l 1
 657 0 l 1
 -47 0 l 1
EndSplineSet
Substitution2: "'c2sc' Capitals to Small Capitals lookup 38 subtable" i.sc
Substitution2: "'aalt' Access All Alternates lookup 0 subtable" i.sc
Position2: "'cpsp' Capital Spacing lookup 0 subtable" dx=10 dy=0 dh=20 dv=0
EndChar

StartChar: J
Encoding: 74 74 45
Width: 821
GlyphClass: 2
Flags: HW
AnchorPoint: "Anchor-3" 322 485 basechar 0
AnchorPoint: "Anchor-2" 975 1462 basechar 0
AnchorPoint: "Anchor-1" -156 -492 basechar 0
AnchorPoint: "Anchor-0" 606 1462 basechar 0
LayerCount: 2
Fore
SplineSet
-156 -492 m 0
 -230 -492 -275 -483 -324 -469 c 1
 -295 -356 l 1
 -260 -368 -203 -375 -162 -375 c 0
 -21 -375 80 -280 139 -6 c 2
 403 1237 l 2
 407 1251 412 1274 412 1284 c 0
 412 1343 350 1354 264 1354 c 2
 238 1354 l 1
 260 1462 l 1
 967 1462 l 1
 944 1354 l 1
 918 1354 l 2
 828 1354 746 1338 723 1229 c 2
 463 -6 l 2
 393 -340 123 -492 -156 -492 c 0
EndSplineSet
Substitution2: "'c2sc' Capitals to Small Capitals lookup 38 subtable" j.sc
Substitution2: "'aalt' Access All Alternates lookup 0 subtable" j.sc
Position2: "'cpsp' Capital Spacing lookup 0 subtable" dx=10 dy=0 dh=20 dv=0
EndChar

StartChar: K
Encoding: 75 75 46
Width: 1517
GlyphClass: 2
Flags: HW
AnchorPoint: "Anchor-3" 805 731 basechar 0
AnchorPoint: "Anchor-2" 1671 1462 basechar 0
AnchorPoint: "Anchor-1" 643 0 basechar 0
AnchorPoint: "Anchor-0" 954 1462 basechar 0
LayerCount: 2
Fore
SplineSet
-47 0 m 1
 -25 109 l 1
 2 109 l 2
 88 109 167 125 190 231 c 2
 399 1214 l 2
 407 1251 412 1274 412 1284 c 0
 412 1343 350 1354 264 1354 c 2
 238 1354 l 1
 260 1462 l 1
 967 1462 l 1
 944 1354 l 1
 918 1354 l 2
 828 1354 746 1338 723 1229 c 2
 621 743 l 1
 1036 1110 l 2
 1147 1208 1174 1266 1174 1303 c 0
 1174 1338 1151 1356 1083 1356 c 1
 1106 1462 l 1
 1659 1462 l 1
 1636 1356 l 1
 1527 1356 1438 1303 1307 1186 c 2
 975 893 l 1
 1214 317 l 2
 1277 163 1317 109 1409 109 c 2
 1415 109 l 1
 1395 0 l 1
 1288 0 l 2
 1016 0 948 58 860 283 c 2
 709 674 l 1
 588 588 l 1
 512 225 l 2
 510 211 504 188 504 178 c 0
 504 119 567 109 653 109 c 2
 680 109 l 1
 657 0 l 1
 -47 0 l 1
EndSplineSet
Substitution2: "'c2sc' Capitals to Small Capitals lookup 38 subtable" k.sc
Substitution2: "'aalt' Access All Alternates lookup 0 subtable" k.sc
Position2: "'cpsp' Capital Spacing lookup 0 subtable" dx=10 dy=0 dh=20 dv=0
EndChar

StartChar: L
Encoding: 76 76 47
Width: 1339
GlyphClass: 2
Flags: HW
AnchorPoint: "Anchor-3" 748 731 basechar 0
AnchorPoint: "Anchor-2" 1493 1462 basechar 0
AnchorPoint: "Anchor-1" 553 0 basechar 0
AnchorPoint: "Anchor-0" 864 1462 basechar 0
LayerCount: 2
Fore
SplineSet
-47 0 m 1
 -25 109 l 1
 2 109 l 2
 88 109 167 125 190 231 c 2
 399 1214 l 2
 407 1251 412 1274 412 1284 c 0
 412 1343 350 1354 264 1354 c 2
 238 1354 l 1
 260 1462 l 1
 967 1462 l 1
 944 1354 l 1
 918 1354 l 2
 828 1354 746 1338 723 1229 c 2
 492 125 l 1
 834 125 l 2
 984 125 1047 198 1098 348 c 2
 1135 457 l 1
 1266 457 l 1
 1153 0 l 1
 -47 0 l 1
EndSplineSet
Substitution2: "'c2sc' Capitals to Small Capitals lookup 38 subtable" l.sc
Substitution2: "'aalt' Access All Alternates lookup 0 subtable" l.sc
Position2: "'cpsp' Capital Spacing lookup 0 subtable" dx=10 dy=0 dh=20 dv=0
EndChar

StartChar: M
Encoding: 77 77 48
Width: 1949
GlyphClass: 2
Flags: HW
AnchorPoint: "Anchor-3" 1024 731 basechar 0
AnchorPoint: "Anchor-2" 2103 1462 basechar 0
AnchorPoint: "Anchor-1" 858 0 basechar 0
AnchorPoint: "Anchor-0" 1169 1462 basechar 0
LayerCount: 2
Fore
SplineSet
-47 0 m 1
 -25 109 l 1
 2 109 l 2
 88 109 167 125 190 231 c 2
 399 1214 l 2
 407 1251 412 1274 412 1284 c 0
 412 1343 350 1354 264 1354 c 2
 238 1354 l 1
 260 1462 l 1
 831 1462 l 1
 969 467 l 1
 1505 1462 l 1
 2097 1462 l 1
 2075 1354 l 1
 2048 1354 l 2
 1960 1354 1878 1338 1855 1229 c 2
 1645 225 l 2
 1641 211 1636 188 1636 178 c 0
 1636 119 1698 109 1784 109 c 2
 1810 109 l 1
 1788 0 l 1
 1090 0 l 1
 1112 109 l 1
 1139 109 l 2
 1227 109 1308 124 1331 233 c 2
 1548 1260 l 1
 870 0 l 1
 729 0 l 1
 563 1260 l 1
 346 242 l 2
 340 211 336 188 336 178 c 0
 336 119 399 109 485 109 c 2
 492 109 l 1
 469 0 l 1
 -47 0 l 1
EndSplineSet
Substitution2: "'c2sc' Capitals to Small Capitals lookup 38 subtable" m.sc
Substitution2: "'aalt' Access All Alternates lookup 0 subtable" m.sc
Position2: "'cpsp' Capital Spacing lookup 0 subtable" dx=10 dy=0 dh=20 dv=0
EndChar

StartChar: N
Encoding: 78 78 49
Width: 1613
GlyphClass: 2
Flags: HW
AnchorPoint: "Anchor-3" 866 731 basechar 0
AnchorPoint: "Anchor-2" 1767 1462 basechar 0
AnchorPoint: "Anchor-1" 690 0 basechar 0
AnchorPoint: "Anchor-0" 1001 1462 basechar 0
LayerCount: 2
Fore
SplineSet
-47 0 m 1
 -25 109 l 1
 2 109 l 2
 88 109 167 125 190 231 c 2
 399 1214 l 2
 407 1251 412 1274 412 1284 c 0
 412 1343 350 1354 264 1354 c 2
 238 1354 l 1
 260 1462 l 1
 715 1462 l 1
 1214 412 l 1
 1386 1221 l 2
 1392 1252 1397 1274 1397 1284 c 0
 1397 1343 1333 1354 1247 1354 c 2
 1241 1354 l 1
 1264 1462 l 1
 1780 1462 l 1
 1757 1354 l 1
 1731 1354 l 2
 1645 1354 1565 1337 1542 1231 c 2
 1282 0 l 1
 1094 0 l 1
 539 1159 l 1
 346 242 l 2
 340 211 336 188 336 178 c 0
 336 119 399 109 485 109 c 2
 492 109 l 1
 469 0 l 1
 -47 0 l 1
EndSplineSet
Substitution2: "'c2sc' Capitals to Small Capitals lookup 38 subtable" n.sc
Substitution2: "'aalt' Access All Alternates lookup 0 subtable" n.sc
Position2: "'cpsp' Capital Spacing lookup 0 subtable" dx=10 dy=0 dh=20 dv=0
EndChar

StartChar: O
Encoding: 79 79 50
Width: 1622
GlyphClass: 2
Flags: HW
AnchorPoint: "Anchor-3" 889 731 basechar 0
AnchorPoint: "Anchor-2" 1776 1462 basechar 0
AnchorPoint: "Anchor-1" 694 0 basechar 0
AnchorPoint: "Anchor-0" 1006 1462 basechar 0
LayerCount: 2
Fore
SplineSet
700 -23 m 0
 376 -23 129 174 129 545 c 0
 129 938 423 1485 1001 1485 c 0
 1302 1485 1567 1313 1567 922 c 0
 1567 545 1286 -23 700 -23 c 0
741 113 m 0
 1081 113 1235 647 1235 969 c 0
 1235 1235 1118 1352 958 1352 c 0
 618 1352 463 818 463 496 c 0
 463 228 585 113 741 113 c 0
EndSplineSet
Substitution2: "'c2sc' Capitals to Small Capitals lookup 38 subtable" o.sc
Substitution2: "Single Substitution lookup 33 subtable" ordmasculine
AlternateSubs2: "'aalt' Access All Alternates lookup 1 subtable" ordmasculine o.sc
Position2: "'cpsp' Capital Spacing lookup 0 subtable" dx=10 dy=0 dh=20 dv=0
EndChar

StartChar: P
Encoding: 80 80 51
Width: 1357
GlyphClass: 2
Flags: HW
AnchorPoint: "Anchor-3" 659 731 basechar 0
AnchorPoint: "Anchor-2" 1511 1462 basechar 0
AnchorPoint: "Anchor-1" 311 0 basechar 0
AnchorPoint: "Anchor-0" 874 1462 basechar 0
LayerCount: 2
Fore
SplineSet
-47 0 m 1
 -25 109 l 1
 2 109 l 2
 88 109 167 125 190 231 c 2
 399 1214 l 2
 407 1251 412 1274 412 1284 c 0
 412 1343 350 1354 264 1354 c 2
 238 1354 l 1
 260 1462 l 1
 846 1462 l 2
 1168 1462 1368 1325 1368 1063 c 0
 1368 854 1267 559 741 559 c 2
 586 559 l 1
 512 225 l 2
 508 211 504 188 504 178 c 0
 504 119 567 109 653 109 c 2
 721 109 l 1
 698 0 l 1
 -47 0 l 1
696 678 m 2
 944 678 1034 836 1034 1057 c 0
 1034 1262 936 1341 799 1341 c 2
 754 1341 l 1
 610 678 l 1
 696 678 l 2
EndSplineSet
Substitution2: "'c2sc' Capitals to Small Capitals lookup 38 subtable" p.sc
Substitution2: "'aalt' Access All Alternates lookup 0 subtable" p.sc
Position2: "'cpsp' Capital Spacing lookup 0 subtable" dx=10 dy=0 dh=20 dv=0
EndChar

StartChar: Q
Encoding: 81 81 52
Width: 1611
GlyphClass: 2
Flags: HW
AnchorPoint: "Anchor-3" 846 496 basechar 0
AnchorPoint: "Anchor-2" 1765 1462 basechar 0
AnchorPoint: "Anchor-1" 586 -492 basechar 0
AnchorPoint: "Anchor-0" 1001 1462 basechar 0
LayerCount: 2
Fore
SplineSet
987 -492 m 0
 741 -492 557 -352 549 -6 c 1
 301 45 127 234 127 545 c 0
 127 938 421 1485 999 1485 c 0
 1300 1485 1565 1313 1565 922 c 0
 1565 588 1346 109 893 0 c 1
 901 -301 991 -373 1102 -373 c 0
 1131 -373 1151 -369 1161 -367 c 1
 1176 -461 l 1
 1121 -481 1067 -492 987 -492 c 0
739 113 m 0
 1079 113 1233 647 1233 969 c 0
 1233 1235 1116 1352 956 1352 c 0
 616 1352 461 818 461 496 c 0
 461 228 583 113 739 113 c 0
EndSplineSet
Substitution2: "'c2sc' Capitals to Small Capitals lookup 38 subtable" q.sc
Substitution2: "'aalt' Access All Alternates lookup 0 subtable" q.sc
Position2: "'cpsp' Capital Spacing lookup 0 subtable" dx=10 dy=0 dh=20 dv=0
EndChar

StartChar: R
Encoding: 82 82 53
Width: 1447
GlyphClass: 2
Flags: HW
AnchorPoint: "Anchor-3" 678 731 basechar 0
AnchorPoint: "Anchor-2" 1602 1462 basechar 0
AnchorPoint: "Anchor-1" 608 0 basechar 0
AnchorPoint: "Anchor-0" 920 1462 basechar 0
LayerCount: 2
Fore
SplineSet
-47 0 m 1
 -25 109 l 1
 2 109 l 2
 88 109 167 125 190 231 c 2
 399 1214 l 2
 407 1251 412 1274 412 1284 c 0
 412 1343 350 1354 264 1354 c 2
 238 1354 l 1
 260 1462 l 1
 918 1462 l 2
 1246 1462 1405 1349 1405 1120 c 0
 1405 844 1208 737 1040 698 c 1
 1182 317 l 2
 1239 161 1284 109 1376 109 c 2
 1384 109 l 1
 1362 0 l 1
 1341 0 l 2
 1056 0 929 38 868 233 c 2
 739 635 l 1
 598 635 l 1
 518 260 l 2
 508 211 504 188 504 178 c 0
 504 119 567 109 653 109 c 2
 721 109 l 1
 698 0 l 1
 -47 0 l 1
748 754 m 2
 922 754 1057 850 1057 1094 c 0
 1057 1278 993 1341 856 1341 c 2
 752 1341 l 1
 621 754 l 1
 748 754 l 2
EndSplineSet
Substitution2: "'c2sc' Capitals to Small Capitals lookup 38 subtable" r.sc
Substitution2: "'aalt' Access All Alternates lookup 0 subtable" r.sc
Position2: "'cpsp' Capital Spacing lookup 0 subtable" dx=10 dy=0 dh=20 dv=0
EndChar

StartChar: S
Encoding: 83 83 54
Width: 1200
GlyphClass: 2
Flags: HW
AnchorPoint: "Anchor-3" 623 731 basechar 0
AnchorPoint: "Anchor-2" 1354 1462 basechar 0
AnchorPoint: "Anchor-1" 483 0 basechar 0
AnchorPoint: "Anchor-0" 795 1462 basechar 0
LayerCount: 2
Fore
SplineSet
535 -20 m 0
 197 -20 29 109 29 279 c 0
 29 408 139 471 295 471 c 1
 295 221 405 104 567 104 c 0
 721 104 811 196 811 315 c 0
 811 430 764 497 559 610 c 0
 346 727 236 850 236 1065 c 0
 236 1311 442 1483 766 1483 c 0
 1069 1483 1219 1382 1219 1253 c 0
 1219 1142 1140 1075 950 1075 c 1
 950 1198 908 1358 748 1358 c 0
 639 1358 522 1290 522 1147 c 0
 522 1004 613 954 795 854 c 0
 1002 743 1098 610 1098 436 c 0
 1098 145 879 -20 535 -20 c 0
EndSplineSet
Substitution2: "'c2sc' Capitals to Small Capitals lookup 38 subtable" s.sc
Substitution2: "'aalt' Access All Alternates lookup 0 subtable" s.sc
Position2: "'cpsp' Capital Spacing lookup 0 subtable" dx=10 dy=0 dh=20 dv=0
EndChar

StartChar: T
Encoding: 84 84 55
Width: 1337
GlyphClass: 2
Flags: HW
AnchorPoint: "Anchor-3" 748 731 basechar 0
AnchorPoint: "Anchor-2" 1491 1462 basechar 0
AnchorPoint: "Anchor-1" 553 0 basechar 0
AnchorPoint: "Anchor-0" 864 1462 basechar 0
LayerCount: 2
Fore
SplineSet
213 0 m 1
 236 109 l 1
 262 109 l 2
 348 109 428 125 451 231 c 2
 682 1337 l 1
 518 1337 l 2
 391 1337 344 1272 305 1153 c 2
 276 1065 l 1
 139 1065 l 1
 233 1462 l 1
 1507 1462 l 1
 1436 1065 l 1
 1298 1065 l 1
 1300 1083 1315 1217 1315 1229 c 0
 1315 1301 1275 1337 1171 1337 c 2
 1008 1337 l 1
 772 225 l 2
 770 211 764 188 764 178 c 0
 764 119 827 109 913 109 c 2
 940 109 l 1
 918 0 l 1
 213 0 l 1
EndSplineSet
Substitution2: "'c2sc' Capitals to Small Capitals lookup 38 subtable" t.sc
Substitution2: "'aalt' Access All Alternates lookup 0 subtable" t.sc
Position2: "'cpsp' Capital Spacing lookup 0 subtable" dx=10 dy=0 dh=20 dv=0
EndChar

StartChar: U
Encoding: 85 85 56
Width: 1529
GlyphClass: 2
Flags: HW
AnchorPoint: "Anchor-3" 950 721 basechar 0
AnchorPoint: "Anchor-2" 1683 1462 basechar 0
AnchorPoint: "Anchor-1" 649 0 basechar 0
AnchorPoint: "Anchor-0" 961 1462 basechar 0
LayerCount: 2
Fore
SplineSet
698 -20 m 0
 379 -20 203 109 203 334 c 0
 203 377 215 469 225 516 c 2
 375 1214 l 2
 383 1251 387 1274 387 1284 c 0
 387 1343 326 1354 240 1354 c 2
 213 1354 l 1
 236 1462 l 1
 944 1462 l 1
 922 1354 l 1
 895 1354 l 2
 805 1354 723 1337 700 1233 c 2
 545 512 l 2
 535 465 520 391 520 334 c 0
 520 197 608 125 772 125 c 0
 1020 125 1104 276 1147 483 c 2
 1305 1223 l 2
 1309 1246 1313 1274 1313 1284 c 0
 1313 1343 1251 1354 1165 1354 c 2
 1139 1354 l 1
 1161 1462 l 1
 1700 1462 l 1
 1677 1354 l 1
 1651 1354 l 2
 1563 1354 1481 1338 1458 1229 c 2
 1294 451 l 2
 1228 146 1044 -20 698 -20 c 0
EndSplineSet
Substitution2: "'c2sc' Capitals to Small Capitals lookup 38 subtable" u.sc
Substitution2: "'aalt' Access All Alternates lookup 0 subtable" u.sc
Position2: "'cpsp' Capital Spacing lookup 0 subtable" dx=10 dy=0 dh=20 dv=0
EndChar

StartChar: V
Encoding: 86 86 57
Width: 1429
GlyphClass: 2
Flags: HW
AnchorPoint: "Anchor-3" 903 731 basechar 0
AnchorPoint: "Anchor-2" 1583 1462 basechar 0
AnchorPoint: "Anchor-1" 598 0 basechar 0
AnchorPoint: "Anchor-0" 909 1462 basechar 0
LayerCount: 2
Fore
SplineSet
330 1255 m 2
 318 1339 269 1354 201 1354 c 2
 174 1354 l 1
 197 1462 l 1
 872 1462 l 1
 850 1354 l 1
 803 1354 l 2
 715 1354 659 1338 659 1272 c 0
 659 1249 662 1220 664 1202 c 2
 729 662 l 2
 741 568 745 393 745 319 c 1
 778 393 817 491 840 532 c 2
 1208 1194 l 2
 1235 1241 1245 1274 1245 1303 c 0
 1245 1344 1204 1354 1126 1354 c 2
 1079 1354 l 1
 1100 1462 l 1
 1634 1462 l 1
 1612 1354 l 1
 1563 1354 l 2
 1483 1354 1457 1336 1389 1217 c 2
 707 0 l 1
 502 0 l 1
 330 1255 l 2
EndSplineSet
Substitution2: "'c2sc' Capitals to Small Capitals lookup 38 subtable" v.sc
Substitution2: "'aalt' Access All Alternates lookup 0 subtable" v.sc
Position2: "'cpsp' Capital Spacing lookup 0 subtable" dx=10 dy=0 dh=20 dv=0
EndChar

StartChar: W
Encoding: 87 87 58
Width: 2185
GlyphClass: 2
Flags: HW
AnchorPoint: "Anchor-3" 1282 731 basechar 0
AnchorPoint: "Anchor-2" 2339 1462 basechar 0
AnchorPoint: "Anchor-1" 977 0 basechar 0
AnchorPoint: "Anchor-0" 1288 1462 basechar 0
LayerCount: 2
Fore
SplineSet
332 1255 m 2
 324 1339 271 1354 203 1354 c 2
 176 1354 l 1
 199 1462 l 1
 868 1462 l 1
 846 1354 l 1
 799 1354 l 2
 711 1354 655 1338 655 1272 c 0
 655 1249 657 1221 659 1182 c 2
 698 672 l 2
 704 600 715 418 715 330 c 1
 744 410 782 491 823 571 c 2
 1280 1448 l 1
 1430 1448 l 1
 1546 666 l 2
 1564 537 1581 414 1581 326 c 1
 1612 418 1676 574 1737 705 c 2
 1964 1194 l 2
 1982 1233 1995 1274 1995 1303 c 0
 1995 1344 1960 1354 1882 1354 c 2
 1835 1354 l 1
 1855 1462 l 1
 2390 1462 l 1
 2367 1354 l 1
 2318 1354 l 2
 2238 1354 2201 1327 2142 1204 c 2
 1569 0 l 1
 1335 0 l 1
 1194 977 l 1
 696 0 l 1
 442 0 l 1
 332 1255 l 2
EndSplineSet
Substitution2: "'c2sc' Capitals to Small Capitals lookup 38 subtable" w.sc
Substitution2: "'aalt' Access All Alternates lookup 0 subtable" w.sc
Position2: "'cpsp' Capital Spacing lookup 0 subtable" dx=10 dy=0 dh=20 dv=0
EndChar

StartChar: X
Encoding: 88 88 59
Width: 1499
GlyphClass: 2
Flags: HW
AnchorPoint: "Anchor-3" 772 731 basechar 0
AnchorPoint: "Anchor-2" 1653 1462 basechar 0
AnchorPoint: "Anchor-1" 633 0 basechar 0
AnchorPoint: "Anchor-0" 944 1462 basechar 0
LayerCount: 2
Fore
SplineSet
-86 0 m 1
 -63 109 l 1
 -43 109 l 2
 39 109 93 145 199 256 c 2
 651 723 l 1
 422 1249 l 2
 381 1341 340 1354 262 1354 c 2
 244 1354 l 1
 266 1462 l 1
 944 1462 l 1
 922 1354 l 1
 874 1354 l 2
 806 1354 778 1333 778 1296 c 0
 778 1269 790 1231 815 1174 c 2
 924 920 l 1
 1165 1178 l 2
 1202 1217 1237 1266 1237 1303 c 0
 1237 1338 1202 1354 1139 1354 c 2
 1133 1354 l 1
 1155 1462 l 1
 1632 1462 l 1
 1610 1354 l 1
 1591 1354 l 2
 1511 1354 1464 1319 1360 1208 c 2
 975 803 l 1
 1227 217 l 2
 1264 133 1317 109 1368 109 c 2
 1395 109 l 1
 1372 0 l 1
 696 0 l 1
 719 109 l 1
 750 109 l 2
 832 109 866 135 866 180 c 0
 866 219 852 267 827 322 c 2
 702 604 l 1
 416 307 l 2
 367 256 334 209 334 170 c 0
 334 131 356 109 446 109 c 2
 453 109 l 1
 430 0 l 1
 -86 0 l 1
EndSplineSet
Substitution2: "'c2sc' Capitals to Small Capitals lookup 38 subtable" x.sc
Substitution2: "'aalt' Access All Alternates lookup 0 subtable" x.sc
Position2: "'cpsp' Capital Spacing lookup 0 subtable" dx=10 dy=0 dh=20 dv=0
EndChar

StartChar: Y
Encoding: 89 89 60
Width: 1419
GlyphClass: 2
Flags: HW
AnchorPoint: "Anchor-3" 899 731 basechar 0
AnchorPoint: "Anchor-2" 1573 1462 basechar 0
AnchorPoint: "Anchor-1" 594 0 basechar 0
AnchorPoint: "Anchor-0" 905 1462 basechar 0
LayerCount: 2
Fore
SplineSet
227 0 m 1
 250 109 l 1
 305 109 l 2
 391 109 469 127 492 233 c 2
 551 518 l 1
 330 1245 l 2
 305 1325 287 1354 207 1354 c 2
 180 1354 l 1
 203 1462 l 1
 868 1462 l 1
 846 1354 l 1
 754 1354 l 2
 693 1354 668 1331 668 1294 c 0
 668 1269 676 1222 692 1161 c 2
 766 872 l 2
 786 792 809 684 813 616 c 1
 838 669 893 758 963 858 c 2
 1165 1147 l 2
 1198 1194 1227 1253 1227 1298 c 0
 1227 1335 1192 1354 1102 1354 c 2
 1059 1354 l 1
 1083 1462 l 1
 1620 1462 l 1
 1597 1354 l 1
 1559 1354 l 2
 1498 1354 1460 1325 1384 1221 c 2
 877 516 l 1
 815 225 l 2
 813 211 807 188 807 178 c 0
 807 119 870 109 956 109 c 2
 1006 109 l 1
 983 0 l 1
 227 0 l 1
EndSplineSet
Substitution2: "'c2sc' Capitals to Small Capitals lookup 38 subtable" y.sc
Substitution2: "'aalt' Access All Alternates lookup 0 subtable" y.sc
Position2: "'cpsp' Capital Spacing lookup 0 subtable" dx=10 dy=0 dh=20 dv=0
EndChar

StartChar: Z
Encoding: 90 90 61
Width: 1363
GlyphClass: 2
Flags: HW
AnchorPoint: "Anchor-3" 719 731 basechar 0
AnchorPoint: "Anchor-2" 1518 1462 basechar 0
AnchorPoint: "Anchor-1" 565 0 basechar 0
AnchorPoint: "Anchor-0" 877 1462 basechar 0
LayerCount: 2
Fore
SplineSet
-4 0 m 1
 14 102 l 1
 1024 1337 l 1
 668 1337 l 2
 545 1337 471 1284 436 1159 c 2
 401 1040 l 1
 254 1040 l 1
 354 1462 l 1
 1444 1462 l 1
 1423 1358 l 1
 412 125 l 1
 834 125 l 2
 959 125 1053 184 1102 348 c 2
 1124 422 l 1
 1272 422 l 1
 1174 0 l 1
 -4 0 l 1
EndSplineSet
Substitution2: "'c2sc' Capitals to Small Capitals lookup 38 subtable" z.sc
Substitution2: "'aalt' Access All Alternates lookup 0 subtable" z.sc
Position2: "'cpsp' Capital Spacing lookup 0 subtable" dx=10 dy=0 dh=20 dv=0
EndChar

StartChar: bracketleft
Encoding: 91 91 62
Width: 847
GlyphClass: 1
Flags: HW
LayerCount: 2
Fore
SplineSet
43 -262 m 1
 430 1556 l 1
 997 1556 l 1
 975 1448 l 1
 887 1448 l 2
 797 1448 713 1429 686 1300 c 2
 410 -6 l 2
 406 -26 403 -43 403 -57 c 0
 403 -141 467 -154 545 -154 c 2
 633 -154 l 1
 610 -262 l 1
 43 -262 l 1
EndSplineSet
Substitution2: "'smcp' Lowercase to Small Capitals lookup 39 subtable" bracketleft.sc
Substitution2: "'c2sc' Capitals to Small Capitals lookup 38 subtable" bracketleft.sc
Substitution2: "'aalt' Access All Alternates lookup 0 subtable" bracketleft.sc
EndChar

StartChar: backslash
Encoding: 92 92 63
Width: 589
GlyphClass: 1
Flags: HW
LayerCount: 2
Fore
SplineSet
332 -248 m 1
 221 1556 l 1
 365 1556 l 1
 475 -248 l 1
 332 -248 l 1
EndSplineSet
EndChar

StartChar: bracketright
Encoding: 93 93 64
Width: 847
GlyphClass: 1
Flags: HW
LayerCount: 2
Fore
SplineSet
-109 -262 m 1
 -86 -154 l 1
 2 -154 l 2
 92 -154 174 -135 201 -6 c 2
 477 1300 l 2
 481 1320 483 1338 483 1352 c 0
 483 1436 420 1448 342 1448 c 2
 254 1448 l 1
 276 1556 l 1
 844 1556 l 1
 457 -262 l 1
 -109 -262 l 1
EndSplineSet
Substitution2: "'smcp' Lowercase to Small Capitals lookup 39 subtable" bracketright.sc
Substitution2: "'c2sc' Capitals to Small Capitals lookup 38 subtable" bracketright.sc
Substitution2: "'aalt' Access All Alternates lookup 0 subtable" bracketright.sc
EndChar

StartChar: asciicircum
Encoding: 94 94 65
Width: 1144
GlyphClass: 1
Flags: HW
LayerCount: 2
Fore
SplineSet
94 537 m 1
 526 1462 l 1
 614 1462 l 1
 1049 537 l 1
 889 537 l 1
 569 1239 l 1
 254 537 l 1
 94 537 l 1
EndSplineSet
EndChar

StartChar: underscore
Encoding: 95 95 66
Width: 940
GlyphClass: 1
Flags: HW
LayerCount: 2
Fore
SplineSet
-186 -291 m 1
 -160 -170 l 1
 799 -170 l 1
 772 -291 l 1
 -186 -291 l 1
EndSplineSet
EndChar

StartChar: grave
Encoding: 96 96 67
Width: 684
GlyphClass: 1
Flags: HW
LayerCount: 2
Fore
SplineSet
629 1241 m 1
 510 1311 352 1468 295 1548 c 1
 301 1569 l 1
 602 1569 l 1
 635 1471 711 1331 756 1268 c 1
 750 1241 l 1
 629 1241 l 1
EndSplineSet
EndChar

StartChar: a
Encoding: 97 97 68
Width: 1361
GlyphClass: 2
Flags: HW
AnchorPoint: "Anchor-3" 686 549 basechar 0
AnchorPoint: "Anchor-2" 1438 1098 basechar 0
AnchorPoint: "Anchor-1" 565 0 basechar 0
AnchorPoint: "Anchor-0" 799 1098 basechar 0
LayerCount: 2
Fore
SplineSet
375 -20 m 0
 180 -20 82 141 82 354 c 0
 82 673 309 1118 725 1118 c 0
 831 1118 953 1082 1014 1047 c 1
 1122 1096 l 1
 1231 1096 l 1
 1096 457 l 2
 1086 412 1061 295 1061 242 c 0
 1061 174 1090 141 1133 141 c 0
 1172 141 1204 159 1247 184 c 1
 1292 102 l 1
 1222 49 1116 -20 969 -20 c 0
 848 -20 768 37 768 143 c 0
 768 186 772 223 782 276 c 1
 768 276 l 1
 668 86 576 -20 375 -20 c 0
504 143 m 0
 625 143 768 371 813 590 c 2
 885 930 l 1
 858 969 807 987 754 987 c 0
 516 987 393 579 393 352 c 0
 393 194 441 143 504 143 c 0
EndSplineSet
Substitution2: "'ss01' Style Set 1 lookup 44 subtable" a.ss01
Substitution2: "'smcp' Lowercase to Small Capitals lookup 39 subtable" a.sc
Substitution2: "Single Substitution lookup 33 subtable" ordfeminine
Substitution2: "'sinf' Scientific Inferiors lookup 24 subtable" uni2090
Substitution2: "'subs' Subscript lookup 23 subtable" uni2090
AlternateSubs2: "'aalt' Access All Alternates lookup 1 subtable" ordfeminine uni2090 a.sc
EndChar

StartChar: b
Encoding: 98 98 69
Width: 1275
GlyphClass: 2
Flags: HW
AnchorPoint: "Anchor-3" 618 768 basechar 0
AnchorPoint: "Anchor-2" 1450 1556 basechar 0
AnchorPoint: "Anchor-1" 522 0 basechar 0
AnchorPoint: "Anchor-0" 854 1556 basechar 0
LayerCount: 2
Fore
SplineSet
535 -20 m 0
 422 -20 325 14 274 53 c 1
 158 -6 l 1
 43 -6 l 1
 315 1274 l 2
 323 1309 330 1352 330 1362 c 0
 330 1436 299 1448 221 1448 c 2
 174 1448 l 1
 195 1556 l 1
 690 1556 l 1
 608 1167 l 2
 592 1089 516 878 496 821 c 1
 506 821 l 1
 604 1020 715 1118 895 1118 c 0
 1069 1118 1194 990 1194 748 c 0
 1194 416 949 -20 535 -20 c 0
524 111 m 0
 764 111 883 522 883 733 c 0
 883 895 833 954 774 954 c 0
 622 954 498 657 475 555 c 2
 391 168 l 1
 420 135 467 111 524 111 c 0
EndSplineSet
Substitution2: "'smcp' Lowercase to Small Capitals lookup 39 subtable" b.sc
Substitution2: "'aalt' Access All Alternates lookup 0 subtable" b.sc
EndChar

StartChar: c
Encoding: 99 99 70
Width: 1081
GlyphClass: 2
Flags: HW
AnchorPoint: "Anchor-3" 582 549 basechar 0
AnchorPoint: "Anchor-2" 1157 1098 basechar 0
AnchorPoint: "Anchor-1" 465 0 basechar 0
AnchorPoint: "Anchor-0" 719 1098 basechar 0
LayerCount: 2
Fore
SplineSet
535 -20 m 0
 287 -20 82 118 82 403 c 0
 82 706 314 1118 756 1118 c 0
 983 1118 1081 1018 1081 901 c 0
 1081 817 1011 729 831 729 c 1
 831 874 780 995 682 995 c 0
 506 995 395 610 395 399 c 0
 395 233 474 135 621 135 c 0
 766 135 850 221 907 303 c 1
 923 287 938 254 938 213 c 0
 938 107 816 -20 535 -20 c 0
EndSplineSet
Substitution2: "'smcp' Lowercase to Small Capitals lookup 39 subtable" c.sc
Substitution2: "'aalt' Access All Alternates lookup 0 subtable" c.sc
EndChar

StartChar: d
Encoding: 100 100 71
Width: 1361
GlyphClass: 2
Flags: HW
AnchorPoint: "Anchor-3" 799 549 basechar 0
AnchorPoint: "Anchor-2" 1454 1556 basechar 0
AnchorPoint: "Anchor-1" 565 0 basechar 0
AnchorPoint: "Anchor-0" 897 1556 basechar 0
LayerCount: 2
Fore
SplineSet
381 -20 m 0
 170 -20 82 151 82 354 c 0
 82 673 310 1118 711 1118 c 0
 791 1118 865 1098 918 1067 c 1
 922 1102 934 1167 940 1192 c 2
 958 1274 l 2
 966 1309 973 1348 973 1362 c 0
 973 1436 942 1448 864 1448 c 2
 817 1448 l 1
 836 1556 l 1
 1329 1556 l 1
 1092 440 l 2
 1080 379 1061 282 1061 233 c 0
 1061 170 1096 141 1133 141 c 0
 1168 141 1214 164 1247 184 c 1
 1292 104 l 1
 1220 45 1110 -20 969 -20 c 0
 850 -20 768 34 768 143 c 0
 768 194 774 239 782 276 c 1
 770 276 l 1
 668 65 549 -20 381 -20 c 0
504 143 m 0
 625 143 766 369 813 590 c 2
 885 930 l 1
 856 967 799 987 750 987 c 0
 519 987 393 577 393 352 c 0
 393 196 441 143 504 143 c 0
EndSplineSet
Substitution2: "'smcp' Lowercase to Small Capitals lookup 39 subtable" d.sc
Substitution2: "'aalt' Access All Alternates lookup 0 subtable" d.sc
EndChar

StartChar: e
Encoding: 101 101 72
Width: 1095
GlyphClass: 2
Flags: HW
AnchorPoint: "Anchor-3" 584 549 basechar 0
AnchorPoint: "Anchor-2" 1171 1098 basechar 0
AnchorPoint: "Anchor-1" 473 0 basechar 0
AnchorPoint: "Anchor-0" 748 1098 basechar 0
LayerCount: 2
Fore
SplineSet
539 -20 m 0
 289 -20 82 116 82 403 c 0
 82 708 323 1118 776 1118 c 0
 971 1118 1085 1029 1085 877 c 0
 1085 656 827 461 475 461 c 2
 399 461 l 1
 395 434 395 406 395 383 c 0
 395 225 468 135 618 135 c 0
 751 135 861 219 918 301 c 1
 934 281 944 248 944 213 c 0
 944 115 820 -20 539 -20 c 0
432 578 m 2
 635 578 791 690 791 862 c 0
 791 946 753 995 690 995 c 0
 557 995 447 775 414 578 c 1
 432 578 l 2
EndSplineSet
Substitution2: "'smcp' Lowercase to Small Capitals lookup 39 subtable" e.sc
Substitution2: "'sinf' Scientific Inferiors lookup 24 subtable" uni2091
Substitution2: "'subs' Subscript lookup 23 subtable" uni2091
AlternateSubs2: "'aalt' Access All Alternates lookup 1 subtable" uni2091 e.sc
EndChar

StartChar: f
Encoding: 102 102 73
Width: 827
GlyphClass: 2
Flags: HW
AnchorPoint: "Anchor-3" 434 543 basechar 0
AnchorPoint: "Anchor-2" 1190 1577 basechar 0
AnchorPoint: "Anchor-1" -160 -492 basechar 0
AnchorPoint: "Anchor-0" 838 1577 basechar 0
LayerCount: 2
Fore
SplineSet
-160 -492 m 0
 -201 -492 -258 -483 -285 -475 c 1
 -260 -356 l 1
 -237 -362 -197 -371 -166 -371 c 0
 -33 -371 35 -290 92 -18 c 2
 299 958 l 1
 113 958 l 1
 133 1055 l 1
 330 1098 l 1
 346 1174 l 2
 409 1444 555 1577 831 1577 c 0
 1042 1577 1153 1499 1153 1399 c 0
 1153 1309 1072 1255 918 1255 c 1
 918 1359 897 1456 823 1456 c 0
 737 1456 697 1383 668 1229 c 2
 641 1098 l 1
 899 1098 l 1
 870 958 l 1
 610 958 l 1
 416 43 l 2
 324 -393 61 -492 -160 -492 c 0
EndSplineSet
Substitution2: "'ss02' Style Set 2 lookup 45 subtable" f.ss02
Substitution2: "'smcp' Lowercase to Small Capitals lookup 39 subtable" f.sc
Substitution2: "'locl' Localized Forms in Latin lookup 16 subtable" f.ss02
AlternateSubs2: "'aalt' Access All Alternates lookup 1 subtable" f.ss02 f.sc
EndChar

StartChar: g
Encoding: 103 103 74
Width: 1187
GlyphClass: 2
Flags: HW
AnchorPoint: "Anchor-3" 582 350 basechar 0
AnchorPoint: "Anchor-2" 1264 1098 basechar 0
AnchorPoint: "Anchor-1" 373 -492 basechar 0
AnchorPoint: "Anchor-0" 711 1098 basechar 0
LayerCount: 2
Fore
SplineSet
348 -492 m 0
 16 -492 -119 -389 -119 -231 c 0
 -119 -86 41 2 209 31 c 1
 156 60 104 127 104 199 c 0
 104 285 172 344 326 428 c 1
 236 471 182 557 182 674 c 0
 182 864 348 1118 694 1118 c 0
 784 1118 867 1098 926 1053 c 1
 987 1131 1063 1192 1163 1192 c 0
 1247 1192 1284 1146 1284 1083 c 0
 1284 1015 1253 938 1153 938 c 1
 1153 993 1128 1026 1081 1026 c 0
 1044 1026 1014 1012 987 989 c 1
 1016 950 1038 886 1038 825 c 0
 1038 647 887 387 545 387 c 0
 520 387 463 389 440 393 c 1
 377 364 328 328 328 285 c 0
 328 240 375 229 438 223 c 2
 668 201 l 2
 869 183 985 96 985 -78 c 0
 985 -326 754 -492 348 -492 c 0
551 512 m 0
 696 512 766 733 766 852 c 0
 766 948 727 991 655 991 c 0
 514 991 440 778 440 653 c 0
 440 553 481 512 551 512 c 0
379 -369 m 0
 619 -369 721 -276 721 -174 c 0
 721 -96 667 -57 526 -45 c 2
 344 -29 l 1
 225 -45 125 -123 125 -217 c 0
 125 -301 178 -369 379 -369 c 0
EndSplineSet
Substitution2: "'smcp' Lowercase to Small Capitals lookup 39 subtable" g.sc
Substitution2: "'aalt' Access All Alternates lookup 0 subtable" g.sc
EndChar

StartChar: h
Encoding: 104 104 75
Width: 1343
GlyphClass: 2
Flags: HW
AnchorPoint: "Anchor-3" 788 549 basechar 0
AnchorPoint: "Anchor-2" 1518 1556 basechar 0
AnchorPoint: "Anchor-1" 555 0 basechar 0
AnchorPoint: "Anchor-0" 887 1556 basechar 0
LayerCount: 2
Fore
SplineSet
997 -20 m 0
 841 -20 754 59 754 190 c 0
 754 247 763 330 786 434 c 2
 821 596 l 2
 833 649 858 757 858 825 c 0
 858 876 844 942 772 942 c 0
 633 942 492 635 457 475 c 2
 350 0 l 1
 43 0 l 1
 313 1274 l 2
 321 1309 328 1352 328 1362 c 0
 328 1436 297 1448 219 1448 c 2
 176 1448 l 1
 195 1556 l 1
 690 1556 l 1
 594 1106 l 2
 580 1047 553 942 537 879 c 1
 549 879 l 1
 653 1043 766 1118 948 1118 c 0
 1122 1118 1182 1008 1182 883 c 0
 1182 813 1159 723 1145 651 c 2
 1098 432 l 2
 1082 358 1069 293 1069 236 c 0
 1069 177 1096 143 1141 143 c 0
 1184 143 1215 159 1262 190 c 1
 1311 121 l 1
 1245 51 1147 -20 997 -20 c 0
EndSplineSet
Substitution2: "'smcp' Lowercase to Small Capitals lookup 39 subtable" h.sc
Substitution2: "'sinf' Scientific Inferiors lookup 24 subtable" uni2095
Substitution2: "'subs' Subscript lookup 23 subtable" uni2095
AlternateSubs2: "'aalt' Access All Alternates lookup 1 subtable" h.sc uni2095
EndChar

StartChar: i
Encoding: 105 105 76
Width: 724
GlyphClass: 2
Flags: HW
AnchorPoint: "Anchor-3" 403 778 basechar 0
AnchorPoint: "Anchor-2" 903 1577 basechar 0
AnchorPoint: "Anchor-1" 246 0 basechar 0
AnchorPoint: "Anchor-0" 582 1577 basechar 0
LayerCount: 2
Fore
SplineSet
479 1282 m 0
 389 1282 319 1323 319 1409 c 0
 319 1528 408 1577 510 1577 c 0
 598 1577 674 1540 674 1448 c 0
 674 1335 577 1282 479 1282 c 0
379 -20 m 0
 223 -20 135 59 135 190 c 0
 135 247 145 330 168 434 c 2
 248 815 l 2
 256 850 262 893 262 903 c 0
 262 977 232 989 154 989 c 2
 117 989 l 1
 137 1098 l 1
 621 1098 l 1
 479 432 l 2
 463 358 451 293 451 236 c 0
 451 177 477 143 522 143 c 0
 565 143 596 159 643 190 c 1
 692 121 l 1
 626 51 529 -20 379 -20 c 0
EndSplineSet
Substitution2: "'smcp' Lowercase to Small Capitals lookup 39 subtable" i.sc
Substitution2: "Single Substitution lookup 4 subtable" dotlessi
AlternateSubs2: "'aalt' Access All Alternates lookup 1 subtable" dotlessi i.sc
EndChar

StartChar: j
Encoding: 106 106 77
Width: 692
GlyphClass: 2
Flags: HW
AnchorPoint: "Anchor-3" 193 543 basechar 0
AnchorPoint: "Anchor-2" 870 1577 basechar 0
AnchorPoint: "Anchor-1" -84 -492 basechar 0
AnchorPoint: "Anchor-0" 565 1577 basechar 0
LayerCount: 2
Fore
SplineSet
479 1282 m 0
 389 1282 319 1323 319 1409 c 0
 319 1528 408 1577 510 1577 c 0
 598 1577 674 1540 674 1448 c 0
 674 1335 577 1282 479 1282 c 0
-84 -492 m 0
 -170 -492 -230 -481 -287 -467 c 1
 -262 -360 l 1
 -242 -366 -199 -375 -170 -375 c 0
 -43 -375 15 -288 72 -16 c 2
 248 815 l 2
 256 850 262 893 262 903 c 0
 262 977 232 989 154 989 c 2
 117 989 l 1
 137 1098 l 1
 621 1098 l 1
 383 -16 l 2
 309 -381 123 -492 -84 -492 c 0
EndSplineSet
Substitution2: "'smcp' Lowercase to Small Capitals lookup 39 subtable" j.sc
Substitution2: "Single Substitution lookup 4 subtable" uni0237
AlternateSubs2: "'aalt' Access All Alternates lookup 1 subtable" uni0237 j.sc
EndChar

StartChar: k
Encoding: 107 107 78
Width: 1222
GlyphClass: 2
Flags: HW
AnchorPoint: "Anchor-3" 672 778 basechar 0
AnchorPoint: "Anchor-2" 1151 1761 basechar 0
AnchorPoint: "Anchor-1" 496 0 basechar 0
AnchorPoint: "Anchor-0" 827 1556 basechar 0
LayerCount: 2
Fore
SplineSet
1038 0 m 2
 837 0 727 56 670 193 c 2
 549 479 l 1
 438 408 l 1
 350 0 l 1
 43 0 l 1
 313 1274 l 2
 321 1309 328 1352 328 1362 c 0
 328 1436 297 1448 219 1448 c 2
 176 1448 l 1
 195 1556 l 1
 690 1556 l 1
 582 1057 l 2
 535 840 512 735 463 553 c 1
 782 842 l 2
 848 901 860 930 860 950 c 0
 860 979 825 995 764 995 c 1
 784 1098 l 1
 1300 1098 l 1
 1280 995 l 1
 1186 995 1085 942 954 821 c 2
 791 670 l 1
 944 336 l 2
 1032 146 1106 109 1165 109 c 1
 1143 0 l 1
 1038 0 l 2
EndSplineSet
Substitution2: "'smcp' Lowercase to Small Capitals lookup 39 subtable" k.sc
Substitution2: "'sinf' Scientific Inferiors lookup 24 subtable" uni2096
Substitution2: "'subs' Subscript lookup 23 subtable" uni2096
AlternateSubs2: "'aalt' Access All Alternates lookup 1 subtable" k.sc uni2096
EndChar

StartChar: l
Encoding: 108 108 79
Width: 724
GlyphClass: 2
Flags: HW
AnchorPoint: "Anchor-3" 479 549 basechar 0
AnchorPoint: "Anchor-2" 899 1556 basechar 0
AnchorPoint: "Anchor-1" 246 0 basechar 0
AnchorPoint: "Anchor-0" 578 1556 basechar 0
LayerCount: 2
Fore
SplineSet
346 -20 m 0
 190 -20 102 59 102 190 c 0
 102 247 112 330 135 434 c 2
 313 1274 l 2
 321 1309 328 1352 328 1362 c 0
 328 1436 297 1448 219 1448 c 2
 176 1448 l 1
 195 1556 l 1
 690 1556 l 1
 446 432 l 2
 430 358 418 293 418 236 c 0
 418 177 444 143 489 143 c 0
 532 143 563 159 610 190 c 1
 659 121 l 1
 593 51 496 -20 346 -20 c 0
EndSplineSet
Substitution2: "'smcp' Lowercase to Small Capitals lookup 39 subtable" l.sc
Substitution2: "'sinf' Scientific Inferiors lookup 24 subtable" uni2097
Substitution2: "'subs' Subscript lookup 23 subtable" uni2097
AlternateSubs2: "'aalt' Access All Alternates lookup 1 subtable" l.sc uni2097
EndChar

StartChar: m
Encoding: 109 109 80
Width: 1984
GlyphClass: 2
Flags: HW
AnchorPoint: "Anchor-3" 1014 555 basechar 0
AnchorPoint: "Anchor-2" 2060 1098 basechar 0
AnchorPoint: "Anchor-1" 877 0 basechar 0
AnchorPoint: "Anchor-0" 1110 1098 basechar 0
LayerCount: 2
Fore
SplineSet
1638 -14 m 0
 1482 -14 1395 66 1395 197 c 0
 1395 254 1404 336 1427 440 c 2
 1462 602 l 2
 1474 655 1499 763 1499 831 c 0
 1499 882 1485 948 1417 948 c 0
 1286 948 1147 649 1118 489 c 2
 1102 403 l 2
 1086 317 1055 102 1049 0 c 1
 731 0 l 1
 739 109 778 332 805 457 c 2
 836 600 l 2
 861 719 870 790 870 829 c 0
 870 878 864 942 803 942 c 0
 666 942 533 666 498 514 c 2
 383 0 l 1
 76 0 l 1
 248 815 l 2
 254 840 262 885 262 903 c 0
 262 977 232 989 154 989 c 2
 117 989 l 1
 135 1098 l 1
 610 1098 l 1
 571 889 l 1
 586 889 l 1
 695 1055 809 1118 971 1118 c 0
 1137 1118 1192 1020 1196 891 c 2
 1196 879 l 1
 1208 879 l 1
 1308 1043 1421 1124 1597 1124 c 0
 1765 1124 1823 1014 1823 889 c 0
 1823 819 1800 729 1786 657 c 2
 1739 438 l 2
 1723 364 1710 299 1710 242 c 0
 1710 183 1737 150 1782 150 c 0
 1825 150 1858 166 1903 197 c 1
 1952 127 l 1
 1886 57 1788 -14 1638 -14 c 0
EndSplineSet
Substitution2: "'smcp' Lowercase to Small Capitals lookup 39 subtable" m.sc
Substitution2: "'sinf' Scientific Inferiors lookup 24 subtable" uni2098
Substitution2: "'subs' Subscript lookup 23 subtable" uni2098
AlternateSubs2: "'aalt' Access All Alternates lookup 1 subtable" m.sc uni2098
EndChar

StartChar: n
Encoding: 110 110 81
Width: 1376
GlyphClass: 2
Flags: HW
AnchorPoint: "Anchor-3" 709 549 basechar 0
AnchorPoint: "Anchor-2" 1452 1098 basechar 0
AnchorPoint: "Anchor-1" 571 0 basechar 0
AnchorPoint: "Anchor-0" 805 1098 basechar 0
LayerCount: 2
Fore
SplineSet
1030 -20 m 0
 874 -20 786 59 786 190 c 0
 786 247 796 330 819 434 c 2
 852 596 l 2
 862 649 889 757 889 825 c 0
 889 876 875 942 803 942 c 0
 664 942 522 635 487 475 c 2
 383 0 l 1
 76 0 l 1
 248 815 l 2
 256 850 262 893 262 903 c 0
 262 977 232 989 154 989 c 2
 117 989 l 1
 135 1098 l 1
 590 1098 l 1
 567 879 l 1
 580 879 l 1
 684 1043 797 1118 979 1118 c 0
 1153 1118 1212 1008 1212 883 c 0
 1212 813 1190 723 1176 651 c 2
 1130 432 l 2
 1114 358 1102 293 1102 236 c 0
 1102 177 1129 143 1174 143 c 0
 1217 143 1247 159 1294 190 c 1
 1343 121 l 1
 1277 51 1180 -20 1030 -20 c 0
EndSplineSet
Substitution2: "'smcp' Lowercase to Small Capitals lookup 39 subtable" n.sc
Substitution2: "'sups' Superscript lookup 25 subtable" uni207F
Substitution2: "'sinf' Scientific Inferiors lookup 24 subtable" uni2099
Substitution2: "'subs' Subscript lookup 23 subtable" uni2099
AlternateSubs2: "'aalt' Access All Alternates lookup 1 subtable" uni207F n.sc uni2099
EndChar

StartChar: o
Encoding: 111 111 82
Width: 1265
GlyphClass: 2
Flags: HW
AnchorPoint: "Anchor-3" 750 549 basechar 0
AnchorPoint: "Anchor-2" 1341 1098 basechar 0
AnchorPoint: "Anchor-1" 516 0 basechar 0
AnchorPoint: "Anchor-0" 750 1098 basechar 0
LayerCount: 2
Fore
SplineSet
516 -20 m 0
 260 -20 82 121 82 410 c 0
 82 717 295 1118 754 1118 c 0
 990 1118 1182 993 1182 688 c 0
 1182 393 979 -20 516 -20 c 0
553 127 m 0
 772 127 870 537 870 754 c 0
 870 916 811 981 715 981 c 0
 506 981 395 589 395 360 c 0
 395 192 455 127 553 127 c 0
EndSplineSet
Substitution2: "'smcp' Lowercase to Small Capitals lookup 39 subtable" o.sc
Substitution2: "Single Substitution lookup 33 subtable" ordmasculine
Substitution2: "'sinf' Scientific Inferiors lookup 24 subtable" uni2092
Substitution2: "'subs' Subscript lookup 23 subtable" uni2092
AlternateSubs2: "'aalt' Access All Alternates lookup 1 subtable" ordmasculine uni2092 o.sc
EndChar

StartChar: p
Encoding: 112 112 83
Width: 1275
GlyphClass: 2
Flags: HW
AnchorPoint: "Anchor-3" 565 313 basechar 0
AnchorPoint: "Anchor-2" 1352 1098 basechar 0
AnchorPoint: "Anchor-1" 193 -492 basechar 0
AnchorPoint: "Anchor-0" 756 1098 basechar 0
LayerCount: 2
Fore
SplineSet
217 815 m 2
 225 850 231 893 231 903 c 0
 231 977 201 989 123 989 c 2
 86 989 l 1
 104 1098 l 1
 545 1098 l 1
 492 825 l 1
 506 825 l 1
 600 997 692 1118 895 1118 c 0
 1075 1118 1194 988 1194 748 c 0
 1194 453 985 -20 559 -20 c 0
 477 -20 403 -2 350 27 c 1
 348 4 342 -39 334 -72 c 2
 305 -209 l 2
 297 -244 291 -287 291 -297 c 0
 291 -371 321 -383 399 -383 c 2
 477 -383 l 1
 459 -492 l 1
 -61 -492 l 1
 217 815 l 2
537 111 m 0
 758 111 885 502 885 733 c 0
 885 844 860 954 774 954 c 0
 637 954 502 699 469 535 c 2
 391 168 l 1
 416 143 474 111 537 111 c 0
EndSplineSet
Substitution2: "'smcp' Lowercase to Small Capitals lookup 39 subtable" p.sc
Substitution2: "'sinf' Scientific Inferiors lookup 24 subtable" uni209A
Substitution2: "'subs' Subscript lookup 23 subtable" uni209A
AlternateSubs2: "'aalt' Access All Alternates lookup 1 subtable" p.sc uni209A
EndChar

StartChar: q
Encoding: 113 113 84
Width: 1292
GlyphClass: 2
Flags: HW
AnchorPoint: "Anchor-3" 657 313 basechar 0
AnchorPoint: "Anchor-2" 1368 1098 basechar 0
AnchorPoint: "Anchor-1" 426 -492 basechar 0
AnchorPoint: "Anchor-0" 764 1098 basechar 0
LayerCount: 2
Fore
SplineSet
705 -82 m 2
 721 2 770 219 782 276 c 1
 770 276 l 1
 676 98 584 -20 373 -20 c 0
 201 -20 82 108 82 354 c 0
 82 673 320 1118 711 1118 c 0
 832 1118 944 1084 1012 1051 c 1
 1133 1118 l 1
 1235 1118 l 1
 954 -209 l 2
 946 -244 940 -286 940 -313 c 0
 940 -362 971 -383 1049 -383 c 2
 1126 -383 l 1
 1108 -492 l 1
 623 -492 l 1
 705 -82 l 2
504 143 m 0
 627 143 770 383 811 592 c 2
 885 930 l 1
 867 961 818 987 752 987 c 0
 510 987 393 567 393 360 c 0
 393 202 441 143 504 143 c 0
EndSplineSet
Substitution2: "'smcp' Lowercase to Small Capitals lookup 39 subtable" q.sc
Substitution2: "'aalt' Access All Alternates lookup 0 subtable" q.sc
EndChar

StartChar: r
Encoding: 114 114 85
Width: 1128
GlyphClass: 2
Flags: HW
AnchorPoint: "Anchor-3" 608 559 basechar 0
AnchorPoint: "Anchor-2" 1204 1098 basechar 0
AnchorPoint: "Anchor-1" 217 0 basechar 0
AnchorPoint: "Anchor-0" 682 1098 basechar 0
LayerCount: 2
Fore
SplineSet
250 823 m 2
 254 846 262 889 262 918 c 0
 262 969 232 989 154 989 c 2
 117 989 l 1
 135 1098 l 1
 588 1098 l 1
 545 817 l 1
 555 817 l 1
 649 1014 733 1118 926 1118 c 0
 1071 1118 1141 1060 1141 958 c 0
 1141 817 1055 748 899 748 c 1
 899 873 877 950 799 950 c 0
 682 950 529 653 463 354 c 2
 385 0 l 1
 76 0 l 1
 250 823 l 2
EndSplineSet
Substitution2: "'smcp' Lowercase to Small Capitals lookup 39 subtable" r.sc
Substitution2: "'aalt' Access All Alternates lookup 0 subtable" r.sc
EndChar

StartChar: s
Encoding: 115 115 86
Width: 1052
GlyphClass: 2
Flags: HW
AnchorPoint: "Anchor-3" 516 549 basechar 0
AnchorPoint: "Anchor-2" 1128 1098 basechar 0
AnchorPoint: "Anchor-1" 410 0 basechar 0
AnchorPoint: "Anchor-0" 643 1098 basechar 0
LayerCount: 2
Fore
SplineSet
422 -20 m 0
 189 -20 35 64 35 205 c 0
 35 332 145 379 254 379 c 1
 254 234 310 102 457 102 c 0
 570 102 653 158 653 256 c 0
 653 350 582 391 422 467 c 0
 262 543 160 633 160 793 c 0
 160 994 336 1118 623 1118 c 0
 899 1118 997 1026 997 926 c 0
 997 817 907 770 762 770 c 1
 762 879 721 1004 604 1004 c 0
 498 1004 432 940 432 860 c 0
 432 770 504 734 664 662 c 0
 840 582 920 488 920 336 c 0
 920 115 750 -20 422 -20 c 0
EndSplineSet
Substitution2: "'smcp' Lowercase to Small Capitals lookup 39 subtable" s.sc
Substitution2: "'sinf' Scientific Inferiors lookup 24 subtable" uni209B
Substitution2: "'subs' Subscript lookup 23 subtable" uni209B
AlternateSubs2: "'aalt' Access All Alternates lookup 1 subtable" s.sc uni209B
EndChar

StartChar: t
Encoding: 116 116 87
Width: 854
GlyphClass: 2
Flags: HW
AnchorPoint: "Anchor-3" 422 549 basechar 0
AnchorPoint: "Anchor-2" 766 2007 basechar 0
AnchorPoint: "Anchor-1" 311 0 basechar 0
AnchorPoint: "Anchor-0" 598 1350 basechar 0
LayerCount: 2
Fore
SplineSet
403 -20 m 0
 253 -20 137 57 137 219 c 0
 137 268 148 340 158 391 c 2
 281 958 l 1
 123 958 l 1
 145 1063 l 1
 262 1063 430 1139 559 1350 c 1
 678 1350 l 1
 625 1098 l 1
 872 1098 l 1
 844 958 l 1
 594 958 l 1
 471 397 l 2
 457 338 451 289 451 250 c 0
 451 182 492 147 553 147 c 0
 616 147 668 172 713 201 c 1
 760 123 l 1
 670 45 561 -20 403 -20 c 0
EndSplineSet
Substitution2: "'smcp' Lowercase to Small Capitals lookup 39 subtable" t.sc
Substitution2: "'sinf' Scientific Inferiors lookup 24 subtable" uni209C
Substitution2: "'subs' Subscript lookup 23 subtable" uni209C
AlternateSubs2: "'aalt' Access All Alternates lookup 1 subtable" t.sc uni209C
EndChar

StartChar: u
Encoding: 117 117 88
Width: 1378
GlyphClass: 2
Flags: HW
AnchorPoint: "Anchor-3" 731 539 basechar 0
AnchorPoint: "Anchor-2" 1454 1098 basechar 0
AnchorPoint: "Anchor-1" 573 0 basechar 0
AnchorPoint: "Anchor-0" 807 1098 basechar 0
LayerCount: 2
Fore
SplineSet
1032 -20 m 0
 852 -20 793 67 793 176 c 0
 793 199 799 246 803 266 c 1
 786 266 l 1
 665 96 564 -18 369 -18 c 0
 193 -18 135 88 135 209 c 0
 135 277 156 364 170 434 c 2
 244 795 l 2
 254 850 262 899 262 922 c 0
 262 977 232 989 154 989 c 2
 117 989 l 1
 135 1098 l 1
 627 1098 l 1
 492 485 l 2
 478 419 457 319 457 268 c 0
 457 209 479 170 545 170 c 0
 664 170 811 409 858 616 c 2
 967 1098 l 1
 1272 1098 l 1
 1133 432 l 2
 1117 358 1104 293 1104 236 c 0
 1104 177 1131 143 1176 143 c 0
 1219 143 1249 159 1296 190 c 1
 1346 121 l 1
 1280 51 1182 -20 1032 -20 c 0
EndSplineSet
Substitution2: "'smcp' Lowercase to Small Capitals lookup 39 subtable" u.sc
Substitution2: "'aalt' Access All Alternates lookup 0 subtable" u.sc
EndChar

StartChar: v
Encoding: 118 118 89
Width: 1200
GlyphClass: 2
Flags: HW
AnchorPoint: "Anchor-3" 584 549 basechar 0
AnchorPoint: "Anchor-2" 1276 1098 basechar 0
AnchorPoint: "Anchor-1" 483 0 basechar 0
AnchorPoint: "Anchor-0" 717 1098 basechar 0
LayerCount: 2
Fore
SplineSet
195 881 m 2
 181 967 133 989 53 989 c 2
 33 989 l 1
 57 1098 l 1
 459 1098 l 1
 553 492 l 2
 573 355 580 242 586 174 c 1
 592 174 l 1
 778 364 946 631 946 799 c 0
 946 891 887 932 811 932 c 1
 811 1045 877 1116 981 1116 c 0
 1067 1116 1135 1061 1135 926 c 0
 1135 604 796 188 610 2 c 1
 340 -18 l 1
 195 881 l 2
EndSplineSet
Substitution2: "'smcp' Lowercase to Small Capitals lookup 39 subtable" v.sc
Substitution2: "'aalt' Access All Alternates lookup 0 subtable" v.sc
EndChar

StartChar: w
Encoding: 119 119 90
Width: 1792
GlyphClass: 2
Flags: HW
AnchorPoint: "Anchor-3" 909 549 basechar 0
AnchorPoint: "Anchor-2" 1868 1098 basechar 0
AnchorPoint: "Anchor-1" 780 0 basechar 0
AnchorPoint: "Anchor-0" 1014 1098 basechar 0
LayerCount: 2
Fore
SplineSet
958 -20 m 1
 958 232 950 637 940 807 c 1
 834 555 698 274 518 6 c 1
 250 -12 l 1
 229 840 l 2
 227 965 168 989 88 989 c 2
 76 989 l 1
 109 1098 l 1
 504 1098 l 1
 520 817 528 580 528 256 c 1
 543 256 l 1
 678 471 819 778 936 1079 c 1
 1186 1087 l 1
 1209 882 1233 364 1233 225 c 1
 1247 225 l 1
 1487 520 1552 699 1552 834 c 0
 1552 916 1501 961 1450 973 c 1
 1458 1077 1526 1118 1602 1118 c 0
 1692 1118 1745 1055 1745 944 c 0
 1745 661 1482 301 1208 2 c 1
 958 -20 l 1
EndSplineSet
Substitution2: "'smcp' Lowercase to Small Capitals lookup 39 subtable" w.sc
Substitution2: "'aalt' Access All Alternates lookup 0 subtable" w.sc
EndChar

StartChar: x
Encoding: 120 120 91
Width: 1236
GlyphClass: 2
Flags: HW
AnchorPoint: "Anchor-3" 600 549 basechar 0
AnchorPoint: "Anchor-2" 1313 1098 basechar 0
AnchorPoint: "Anchor-1" 502 0 basechar 0
AnchorPoint: "Anchor-0" 735 1098 basechar 0
LayerCount: 2
Fore
SplineSet
-41 0 m 1
 -20 109 l 1
 6 109 l 2
 84 109 121 127 223 240 c 2
 481 524 l 1
 340 864 l 2
 297 966 262 989 184 989 c 2
 160 989 l 1
 180 1098 l 1
 565 1098 l 1
 709 709 l 1
 993 1098 l 1
 1243 1098 l 1
 1223 989 l 1
 1186 989 l 2
 1106 989 1069 961 973 842 c 2
 762 598 l 1
 911 254 l 2
 960 139 993 109 1073 109 c 2
 1100 109 l 1
 1079 0 l 1
 682 0 l 1
 528 414 l 1
 209 0 l 1
 -41 0 l 1
EndSplineSet
Substitution2: "'smcp' Lowercase to Small Capitals lookup 39 subtable" x.sc
Substitution2: "'sinf' Scientific Inferiors lookup 24 subtable" uni2093
Substitution2: "'subs' Subscript lookup 23 subtable" uni2093
AlternateSubs2: "'aalt' Access All Alternates lookup 1 subtable" uni2093 x.sc
EndChar

StartChar: y
Encoding: 121 121 92
Width: 1200
GlyphClass: 2
Flags: HW
AnchorPoint: "Anchor-3" 395 313 basechar 0
AnchorPoint: "Anchor-2" 1214 1098 basechar 0
AnchorPoint: "Anchor-1" 113 -492 basechar 0
AnchorPoint: "Anchor-0" 635 1098 basechar 0
LayerCount: 2
Fore
SplineSet
-131 -492 m 0
 -209 -492 -287 -478 -344 -455 c 1
 -313 -340 l 1
 -280 -350 -223 -367 -139 -367 c 0
 111 -367 271 -225 416 -53 c 1
 160 881 l 2
 137 963 98 989 18 989 c 2
 -2 989 l 1
 23 1098 l 1
 424 1098 l 1
 559 567 l 2
 586 461 621 263 627 195 c 1
 633 195 l 1
 795 414 930 645 930 801 c 0
 930 893 883 942 803 942 c 1
 803 1048 875 1118 967 1118 c 0
 1078 1118 1135 1053 1135 944 c 0
 1135 731 988 471 748 137 c 0
 451 -279 289 -492 -131 -492 c 0
EndSplineSet
Substitution2: "'smcp' Lowercase to Small Capitals lookup 39 subtable" y.sc
Substitution2: "'aalt' Access All Alternates lookup 0 subtable" y.sc
EndChar

StartChar: z
Encoding: 122 122 93
Width: 1142
GlyphClass: 2
Flags: HW
AnchorPoint: "Anchor-3" 545 549 basechar 0
AnchorPoint: "Anchor-2" 1219 1098 basechar 0
AnchorPoint: "Anchor-1" 455 0 basechar 0
AnchorPoint: "Anchor-0" 688 1098 basechar 0
LayerCount: 2
Fore
SplineSet
0 0 m 1
 23 104 l 1
 707 958 l 1
 446 958 l 2
 337 958 303 883 252 774 c 2
 248 766 l 1
 123 766 l 1
 213 1098 l 1
 1092 1098 l 1
 1069 991 l 1
 383 139 l 1
 715 139 l 2
 809 139 854 236 891 324 c 2
 911 371 l 1
 1030 371 l 1
 942 0 l 1
 0 0 l 1
EndSplineSet
Substitution2: "'smcp' Lowercase to Small Capitals lookup 39 subtable" z.sc
Substitution2: "'aalt' Access All Alternates lookup 0 subtable" z.sc
EndChar

StartChar: braceleft
Encoding: 123 123 94
Width: 905
GlyphClass: 1
Flags: HW
LayerCount: 2
Fore
SplineSet
487 -256 m 2
 292 -256 195 -172 195 -33 c 0
 195 -8 197 21 215 111 c 2
 276 397 l 2
 280 417 283 437 283 453 c 0
 283 562 195 586 80 590 c 1
 106 715 l 1
 241 719 352 751 385 905 c 2
 459 1257 l 2
 502 1462 610 1556 872 1556 c 2
 1067 1556 l 1
 1044 1448 l 1
 965 1448 l 2
 848 1448 807 1378 778 1249 c 2
 702 901 l 2
 675 778 594 699 428 662 c 1
 424 645 l 1
 547 612 604 551 604 461 c 0
 604 443 602 423 598 403 c 2
 522 53 l 2
 514 18 512 -12 512 -39 c 0
 512 -109 543 -147 627 -147 c 2
 707 -147 l 1
 682 -256 l 1
 487 -256 l 2
EndSplineSet
Substitution2: "'smcp' Lowercase to Small Capitals lookup 39 subtable" braceleft.sc
Substitution2: "'c2sc' Capitals to Small Capitals lookup 38 subtable" braceleft.sc
Substitution2: "'aalt' Access All Alternates lookup 0 subtable" braceleft.sc
EndChar

StartChar: bar
Encoding: 124 124 95
Width: 1144
GlyphClass: 1
Flags: HW
LayerCount: 2
Fore
SplineSet
498 -492 m 1
 498 1556 l 1
 645 1556 l 1
 645 -492 l 1
 498 -492 l 1
EndSplineSet
EndChar

StartChar: braceright
Encoding: 125 125 96
Width: 905
GlyphClass: 1
Flags: HW
LayerCount: 2
Fore
SplineSet
-111 -254 m 1
 -88 -145 l 1
 -8 -145 l 2
 109 -145 149 -76 178 53 c 2
 254 401 l 2
 281 524 362 604 528 641 c 1
 532 657 l 1
 409 690 352 752 352 842 c 0
 352 860 354 879 358 899 c 2
 434 1249 l 2
 442 1284 444 1314 444 1341 c 0
 444 1411 414 1450 330 1450 c 2
 250 1450 l 1
 274 1559 l 1
 469 1559 l 2
 664 1559 762 1474 762 1335 c 0
 762 1310 759 1282 741 1192 c 2
 680 905 l 2
 676 885 674 866 674 850 c 0
 674 741 762 717 877 713 c 1
 850 588 l 1
 715 584 604 551 571 397 c 2
 498 45 l 2
 455 -160 346 -254 84 -254 c 2
 -111 -254 l 1
EndSplineSet
Substitution2: "'smcp' Lowercase to Small Capitals lookup 39 subtable" braceright.sc
Substitution2: "'c2sc' Capitals to Small Capitals lookup 38 subtable" braceright.sc
Substitution2: "'aalt' Access All Alternates lookup 0 subtable" braceright.sc
EndChar

StartChar: asciitilde
Encoding: 126 126 97
Width: 1144
GlyphClass: 1
Flags: HW
LayerCount: 2
Fore
SplineSet
94 537 m 1
 94 736 156 924 365 924 c 0
 463 924 514 882 627 786 c 0
 711 714 739 686 780 686 c 0
 852 686 891 764 897 924 c 1
 1049 924 l 1
 1041 707 977 537 784 537 c 0
 696 537 630 572 524 670 c 0
 430 756 410 774 369 774 c 0
 287 774 246 703 244 537 c 1
 94 537 l 1
EndSplineSet
EndChar

StartChar: exclamdown
Encoding: 161 161 99
Width: 808
GlyphClass: 1
Flags: HW
LayerCount: 2
Fore
SplineSet
475 780 m 0
 381 780 309 828 309 928 c 0
 309 1065 401 1112 487 1112 c 0
 585 1112 653 1065 653 965 c 0
 653 854 584 780 475 780 c 0
25 -367 m 1
 379 629 l 1
 498 629 l 1
 381 -367 l 1
 25 -367 l 1
EndSplineSet
Substitution2: "'smcp' Lowercase to Small Capitals lookup 39 subtable" exclamdown.sc
Substitution2: "'c2sc' Capitals to Small Capitals lookup 38 subtable" exclamdown.sc
Substitution2: "'aalt' Access All Alternates lookup 0 subtable" exclamdown.sc
EndChar

StartChar: cent
Encoding: 162 162 100
Width: 1144
GlyphClass: 1
Flags: HW
LayerCount: 2
Fore
SplineSet
518 174 m 1
 301 205 137 342 137 592 c 0
 137 877 350 1262 758 1307 c 1
 791 1462 l 1
 918 1462 l 1
 885 1311 l 1
 1090 1299 1178 1205 1178 1096 c 0
 1178 1012 1108 924 928 924 c 1
 928 1022 903 1108 852 1155 c 1
 676 322 l 1
 852 324 938 406 1001 492 c 1
 1017 476 1034 442 1034 401 c 0
 1034 299 913 176 643 168 c 1
 608 0 l 1
 481 0 l 1
 518 174 l 1
731 1186 m 1
 557 1145 451 787 451 588 c 0
 451 477 487 397 557 356 c 1
 731 1186 l 1
EndSplineSet
EndChar

StartChar: sterling
Encoding: 163 163 101
Width: 1144
GlyphClass: 1
Flags: HW
LayerCount: 2
Fore
SplineSet
758 -20 m 0
 623 -20 504 74 336 74 c 0
 227 74 158 55 66 12 c 2
 33 -2 l 1
 -12 106 l 1
 57 150 l 2
 192 232 346 369 346 578 c 0
 346 623 340 666 334 709 c 1
 98 709 l 1
 127 834 l 1
 319 834 l 1
 311 885 299 960 299 1028 c 0
 299 1317 509 1483 831 1483 c 0
 1062 1483 1190 1383 1190 1260 c 0
 1190 1143 1098 1079 934 1079 c 1
 934 1263 876 1358 784 1358 c 0
 647 1358 571 1237 571 1028 c 0
 571 948 584 881 590 834 c 1
 954 834 l 1
 926 709 l 1
 600 711 l 1
 602 691 606 643 606 608 c 0
 606 440 497 338 309 246 c 1
 311 238 l 1
 383 265 441 274 492 274 c 0
 615 274 760 201 844 201 c 0
 938 201 981 224 1053 281 c 1
 1118 178 l 1
 1055 110 895 -20 758 -20 c 0
EndSplineSet
EndChar

StartChar: currency
Encoding: 164 164 102
Width: 1144
GlyphClass: 1
Flags: HW
LayerCount: 2
Fore
SplineSet
272 299 m 1
 168 403 l 1
 287 522 l 1
 248 581 227 651 227 729 c 0
 227 807 250 883 293 942 c 1
 170 1065 l 1
 272 1167 l 1
 395 1044 l 1
 454 1083 524 1106 602 1106 c 0
 678 1106 750 1083 809 1042 c 1
 936 1169 l 1
 1038 1065 l 1
 913 938 l 1
 954 879 979 807 979 729 c 0
 979 651 957 581 918 522 c 1
 1038 401 l 1
 936 299 l 1
 815 420 l 1
 754 379 680 354 602 354 c 0
 524 354 450 377 391 418 c 1
 272 299 l 1
602 492 m 0
 737 492 838 598 838 729 c 0
 838 864 737 969 602 969 c 0
 471 969 367 864 367 729 c 0
 367 598 471 492 602 492 c 0
EndSplineSet
EndChar

StartChar: yen
Encoding: 165 165 103
Width: 1144
GlyphClass: 1
Flags: HW
LayerCount: 2
Fore
SplineSet
90 0 m 1
 113 109 l 1
 168 109 l 2
 254 109 331 127 354 233 c 2
 377 338 l 1
 90 338 l 1
 115 459 l 1
 401 459 l 1
 428 578 l 1
 141 578 l 1
 166 698 l 1
 436 698 l 1
 311 1245 l 2
 293 1327 281 1354 201 1354 c 2
 174 1354 l 1
 197 1462 l 1
 756 1462 l 1
 733 1354 l 1
 676 1354 l 2
 615 1354 590 1331 590 1294 c 0
 590 1269 602 1216 614 1153 c 2
 651 958 l 2
 667 872 682 786 682 731 c 1
 696 768 727 824 762 881 c 2
 920 1147 l 2
 949 1196 981 1253 981 1298 c 0
 981 1335 946 1354 901 1354 c 2
 860 1354 l 1
 885 1462 l 1
 1319 1462 l 1
 1296 1354 l 1
 1290 1354 l 2
 1229 1354 1172 1303 1102 1194 c 2
 782 698 l 1
 1044 698 l 1
 1020 578 l 1
 733 578 l 1
 707 459 l 1
 993 459 l 1
 969 338 l 1
 682 338 l 1
 659 240 l 2
 653 211 649 188 649 178 c 0
 649 119 711 109 797 109 c 2
 846 109 l 1
 823 0 l 1
 90 0 l 1
EndSplineSet
EndChar

StartChar: brokenbar
Encoding: 166 166 104
Width: 1144
GlyphClass: 1
Flags: HW
LayerCount: 2
Fore
SplineSet
498 737 m 1
 498 1556 l 1
 645 1556 l 1
 645 737 l 1
 498 737 l 1
498 -492 m 1
 498 328 l 1
 645 328 l 1
 645 -492 l 1
 498 -492 l 1
EndSplineSet
EndChar

StartChar: section
Encoding: 167 167 105
Width: 1114
GlyphClass: 1
Flags: HW
LayerCount: 2
Fore
SplineSet
444 -236 m 0
 194 -236 45 -135 45 10 c 0
 45 149 160 180 238 180 c 1
 238 8 324 -121 467 -121 c 0
 608 -121 696 -25 696 96 c 0
 696 205 647 260 428 377 c 0
 219 488 164 592 164 709 c 0
 164 856 260 944 356 1001 c 1
 331 1040 307 1104 307 1186 c 0
 307 1422 510 1556 748 1556 c 0
 996 1556 1108 1456 1108 1335 c 0
 1108 1216 1026 1182 905 1182 c 1
 905 1329 842 1444 729 1444 c 0
 631 1444 524 1380 524 1241 c 0
 524 1120 586 1073 772 975 c 0
 973 869 1044 780 1044 655 c 0
 1044 528 954 422 848 354 c 1
 873 315 895 256 895 184 c 0
 895 -47 716 -236 444 -236 c 0
776 438 m 1
 819 473 846 520 846 575 c 0
 846 636 805 706 639 784 c 0
 551 825 479 866 418 915 c 1
 375 882 344 845 344 788 c 0
 344 700 395 645 575 559 c 0
 651 522 729 477 776 438 c 1
EndSplineSet
EndChar

StartChar: dieresis
Encoding: 168 168 106
Width: 1181
GlyphClass: 2
Flags: HW
AnchorPoint: "Anchor-0" 713 1563 basechar 0
LayerCount: 2
Fore
SplineSet
936 1274 m 0
 860 1274 809 1315 809 1401 c 0
 809 1497 862 1563 946 1563 c 0
 1020 1563 1073 1522 1073 1436 c 0
 1073 1315 1002 1274 936 1274 c 0
479 1274 m 0
 403 1274 352 1315 352 1401 c 0
 352 1497 405 1563 489 1563 c 0
 563 1563 616 1522 616 1436 c 0
 616 1315 545 1274 479 1274 c 0
EndSplineSet
EndChar

StartChar: copyright
Encoding: 169 169 107
Width: 1730
GlyphClass: 1
Flags: HW
LayerCount: 2
Fore
SplineSet
864 -20 m 0
 428 -20 113 274 113 733 c 0
 113 1188 426 1485 864 1485 c 0
 1302 1485 1618 1190 1618 731 c 0
 1618 274 1302 -20 864 -20 c 0
866 102 m 0
 1237 102 1481 350 1481 733 c 0
 1481 1118 1231 1362 866 1362 c 0
 501 1362 250 1120 250 731 c 0
 250 336 508 102 866 102 c 0
877 254 m 0
 590 254 444 444 444 733 c 0
 444 1014 604 1208 905 1208 c 0
 1100 1208 1194 1134 1194 1040 c 0
 1194 979 1131 942 1051 942 c 1
 1051 1018 1012 1104 901 1104 c 0
 706 1104 633 971 633 733 c 0
 633 495 729 360 903 360 c 0
 1032 360 1124 430 1161 498 c 1
 1184 486 1198 461 1198 432 c 0
 1198 350 1090 254 877 254 c 0
EndSplineSet
EndChar

StartChar: ordfeminine
Encoding: 170 170 108
Width: 882
GlyphClass: 2
Flags: HW
AnchorPoint: "Anchor-3" 567 1124 basechar 0
AnchorPoint: "Anchor-1" 487 782 basechar 0
AnchorPoint: "Anchor-0" 639 1466 basechar 0
LayerCount: 2
Fore
SplineSet
354 780 m 0
 217 780 156 879 156 1010 c 0
 156 1205 302 1470 621 1470 c 0
 695 1470 739 1452 780 1427 c 1
 852 1456 l 1
 922 1456 l 1
 846 1083 l 2
 836 1028 823 979 823 944 c 0
 823 909 837 891 866 891 c 0
 893 891 923 906 954 924 c 1
 981 874 l 1
 946 837 864 780 772 780 c 0
 682 780 629 817 629 889 c 0
 629 922 635 970 639 997 c 1
 631 997 l 1
 561 866 475 780 354 780 c 0
459 899 m 0
 533 899 618 1051 643 1151 c 2
 692 1346 l 1
 676 1371 637 1384 604 1384 c 0
 467 1384 395 1153 395 1022 c 0
 395 928 424 899 459 899 c 0
EndSplineSet
EndChar

StartChar: guillemotleft
Encoding: 171 171 109
Width: 1134
GlyphClass: 1
Flags: HW
LayerCount: 2
Fore
SplineSet
770 143 m 1
 532 514 l 1
 555 621 l 1
 944 963 l 1
 1087 963 l 1
 795 553 l 1
 913 143 l 1
 770 143 l 1
358 143 m 1
 121 514 l 1
 143 621 l 1
 532 963 l 1
 676 963 l 1
 383 553 l 1
 502 143 l 1
 358 143 l 1
EndSplineSet
EndChar

StartChar: logicalnot
Encoding: 172 172 110
Width: 1144
GlyphClass: 1
Flags: HW
LayerCount: 2
Fore
SplineSet
864 293 m 1
 864 659 l 1
 133 659 l 1
 133 805 l 1
 1012 805 l 1
 1012 293 l 1
 864 293 l 1
EndSplineSet
EndChar

StartChar: uni00AD
Encoding: 173 173 111
Width: 634
GlyphClass: 1
Flags: HW
LayerCount: 2
Fore
SplineSet
20 451 m 1
 68 666 l 1
 600 666 l 1
 553 451 l 1
 20 451 l 1
EndSplineSet
EndChar

StartChar: registered
Encoding: 174 174 112
Width: 1730
GlyphClass: 1
Flags: HW
LayerCount: 2
Fore
SplineSet
864 -20 m 0
 428 -20 113 274 113 733 c 0
 113 1188 426 1485 864 1485 c 0
 1302 1485 1618 1190 1618 731 c 0
 1618 274 1302 -20 864 -20 c 0
866 102 m 0
 1237 102 1481 350 1481 733 c 0
 1481 1118 1231 1362 866 1362 c 0
 501 1362 250 1120 250 731 c 0
 250 336 508 102 866 102 c 0
475 289 m 1
 475 358 l 1
 502 358 l 2
 555 358 602 367 602 430 c 2
 602 1030 l 2
 602 1093 555 1102 502 1102 c 2
 475 1102 l 1
 475 1186 l 1
 850 1186 l 2
 1092 1186 1210 1100 1210 930 c 0
 1210 795 1114 729 1016 696 c 1
 1198 412 l 2
 1223 367 1242 358 1303 358 c 1
 1303 289 l 1
 1087 289 l 1
 862 664 l 1
 762 664 l 1
 762 430 l 2
 762 367 809 358 862 358 c 2
 891 358 l 1
 891 289 l 1
 475 289 l 1
848 754 m 2
 995 754 1040 809 1040 928 c 0
 1040 1045 985 1090 842 1090 c 2
 762 1090 l 1
 762 754 l 1
 848 754 l 2
EndSplineSet
EndChar

StartChar: overscore
Encoding: 175 175 113
Width: 940
GlyphClass: 1
Flags: HW
LayerCount: 2
Fore
SplineSet
207 1556 m 1
 233 1677 l 1
 1192 1677 l 1
 1165 1556 l 1
 207 1556 l 1
EndSplineSet
Substitution2: "'smcp' Lowercase to Small Capitals lookup 39 subtable" macron.sc
Substitution2: "'c2sc' Capitals to Small Capitals lookup 38 subtable" macron.sc
Substitution2: "'aalt' Access All Alternates lookup 0 subtable" macron.sc
EndChar

StartChar: degree
Encoding: 176 176 114
Width: 819
GlyphClass: 1
Flags: HW
LayerCount: 2
Fore
SplineSet
571 866 m 0
 383 866 252 994 252 1176 c 0
 252 1358 383 1487 571 1487 c 0
 759 1487 893 1358 893 1176 c 0
 893 994 759 866 571 866 c 0
573 1006 m 0
 675 1006 737 1074 737 1178 c 0
 737 1282 673 1348 573 1348 c 0
 471 1348 408 1282 408 1178 c 0
 408 1074 469 1006 573 1006 c 0
EndSplineSet
EndChar

StartChar: plusminus
Encoding: 177 177 115
Width: 1144
GlyphClass: 1
Flags: HW
LayerCount: 2
Fore
SplineSet
498 293 m 1
 498 659 l 1
 133 659 l 1
 133 805 l 1
 498 805 l 1
 498 1171 l 1
 645 1171 l 1
 645 805 l 1
 1012 805 l 1
 1012 659 l 1
 645 659 l 1
 645 293 l 1
 498 293 l 1
133 0 m 1
 133 145 l 1
 1012 145 l 1
 1012 0 l 1
 133 0 l 1
EndSplineSet
EndChar

StartChar: uni00B2
Encoding: 178 178 116
Width: 819
GlyphClass: 1
Flags: HW
LayerCount: 2
Fore
SplineSet
121 791 m 1
 150 938 l 1
 453 1159 l 2
 619 1280 670 1376 670 1491 c 0
 670 1544 647 1595 584 1595 c 0
 508 1595 458 1499 446 1393 c 1
 350 1393 291 1436 291 1497 c 0
 291 1608 411 1688 610 1688 c 0
 780 1688 889 1614 889 1503 c 0
 889 1388 817 1301 586 1135 c 2
 330 950 l 1
 631 950 l 2
 694 950 723 989 739 1034 c 2
 756 1077 l 1
 836 1077 l 1
 778 791 l 1
 121 791 l 1
EndSplineSet
EndChar

StartChar: uni00B3
Encoding: 179 179 117
Width: 819
GlyphClass: 1
Flags: HW
LayerCount: 2
Fore
SplineSet
438 778 m 0
 239 778 137 842 137 944 c 0
 137 1018 203 1061 289 1061 c 1
 289 983 334 885 457 885 c 0
 555 885 635 932 635 1053 c 0
 635 1129 578 1194 449 1194 c 2
 381 1194 l 1
 397 1290 l 1
 467 1290 l 2
 582 1290 682 1368 682 1503 c 0
 682 1556 657 1595 604 1595 c 0
 516 1595 475 1511 461 1417 c 1
 361 1417 295 1445 295 1511 c 0
 295 1607 415 1688 616 1688 c 0
 811 1688 901 1603 901 1501 c 0
 901 1358 793 1291 643 1260 c 1
 641 1249 l 1
 766 1235 848 1174 848 1061 c 0
 848 877 674 778 438 778 c 0
EndSplineSet
EndChar

StartChar: acute
Encoding: 180 180 118
Width: 665
GlyphClass: 1
Flags: HW
LayerCount: 2
Fore
SplineSet
229 1241 m 1
 236 1268 l 1
 312 1346 416 1477 479 1569 c 1
 801 1569 l 1
 795 1548 l 1
 729 1476 514 1315 369 1241 c 1
 229 1241 l 1
EndSplineSet
EndChar

StartChar: uni00B5
Encoding: 181 181 119
Width: 1386
GlyphClass: 1
Flags: HW
LayerCount: 2
Fore
SplineSet
129 -492 m 0
 51 -492 -4 -455 -4 -344 c 0
 -4 -180 96 51 182 461 c 2
 317 1098 l 1
 629 1098 l 1
 492 455 l 2
 480 396 469 342 469 291 c 0
 469 217 504 154 584 154 c 0
 711 154 795 272 850 532 c 2
 971 1098 l 1
 1282 1098 l 1
 1141 432 l 2
 1125 358 1112 287 1112 236 c 0
 1112 177 1139 143 1184 143 c 0
 1227 143 1258 159 1305 190 c 1
 1354 121 l 1
 1288 51 1190 -20 1028 -20 c 0
 860 -20 813 79 813 188 c 1
 803 188 l 1
 711 63 627 -20 492 -20 c 0
 371 -20 287 39 238 127 c 1
 218 31 209 -79 209 -147 c 0
 209 -239 238 -299 375 -313 c 1
 355 -434 242 -492 129 -492 c 0
EndSplineSet
EndChar

StartChar: paragraph
Encoding: 182 182 120
Width: 1284
GlyphClass: 1
Flags: HW
LayerCount: 2
Fore
SplineSet
395 -227 m 1
 395 -119 l 1
 422 -119 l 2
 514 -119 590 -102 590 27 c 2
 590 791 l 1
 444 791 l 2
 204 791 131 979 131 1192 c 0
 131 1411 218 1556 449 1556 c 2
 1251 1556 l 1
 1251 1448 l 1
 1225 1448 l 2
 1133 1448 1057 1429 1057 1300 c 2
 1057 27 l 2
 1057 -102 1133 -119 1225 -119 c 2
 1251 -119 l 1
 1251 -227 l 1
 909 -227 l 1
 909 1430 l 1
 737 1430 l 1
 737 -227 l 1
 395 -227 l 1
EndSplineSet
EndChar

StartChar: periodcentered
Encoding: 183 183 121
Width: 622
GlyphClass: 1
Flags: HW
LayerCount: 2
Fore
SplineSet
340 561 m 0
 242 561 174 609 174 709 c 0
 174 820 243 893 352 893 c 0
 446 893 518 845 518 745 c 0
 518 608 426 561 340 561 c 0
EndSplineSet
EndChar

StartChar: cedilla
Encoding: 184 184 122
Width: 681
GlyphClass: 1
Flags: HW
LayerCount: 2
Fore
SplineSet
231 -492 m 0
 161 -492 98 -481 51 -465 c 1
 78 -344 l 1
 125 -354 174 -360 211 -360 c 0
 295 -360 362 -330 362 -256 c 0
 362 -203 303 -166 227 -162 c 1
 309 18 l 1
 426 18 l 1
 387 -70 l 1
 496 -84 569 -152 569 -240 c 0
 569 -416 391 -492 231 -492 c 0
EndSplineSet
EndChar

StartChar: uni00B9
Encoding: 185 185 123
Width: 819
GlyphClass: 1
Flags: HW
LayerCount: 2
Fore
SplineSet
172 793 m 1
 190 883 l 1
 295 883 l 2
 346 883 389 891 403 961 c 2
 526 1542 l 1
 524 1542 l 1
 446 1466 389 1415 340 1415 c 0
 301 1415 281 1461 281 1516 c 1
 373 1534 397 1546 606 1677 c 1
 758 1677 l 1
 612 989 l 2
 606 964 604 942 604 936 c 0
 604 889 641 883 684 883 c 2
 768 883 l 1
 750 793 l 1
 172 793 l 1
EndSplineSet
EndChar

StartChar: ordmasculine
Encoding: 186 186 124
Width: 833
GlyphClass: 2
Flags: HW
AnchorPoint: "Anchor-3" 535 1126 basechar 0
AnchorPoint: "Anchor-1" 461 776 basechar 0
AnchorPoint: "Anchor-0" 616 1473 basechar 0
LayerCount: 2
Fore
SplineSet
461 780 m 0
 273 780 147 870 147 1038 c 0
 147 1222 307 1473 612 1473 c 0
 782 1473 922 1395 922 1219 c 0
 922 1047 778 780 461 780 c 0
471 883 m 0
 618 883 692 1092 692 1225 c 0
 692 1315 665 1364 602 1364 c 0
 463 1364 379 1165 379 1028 c 0
 379 936 410 883 471 883 c 0
EndSplineSet
EndChar

StartChar: guillemotright
Encoding: 187 187 125
Width: 1134
GlyphClass: 1
Flags: HW
LayerCount: 2
Fore
SplineSet
457 143 m 1
 752 553 l 1
 631 963 l 1
 774 963 l 1
 1010 594 l 1
 987 487 l 1
 600 143 l 1
 457 143 l 1
45 143 m 1
 340 553 l 1
 219 963 l 1
 362 963 l 1
 598 594 l 1
 575 487 l 1
 188 143 l 1
 45 143 l 1
EndSplineSet
EndChar

StartChar: onequarter
Encoding: 188 188 126
Width: 1806
GlyphClass: 1
Flags: HW
LayerCount: 2
Fore
SplineSet
152 588 m 1
 170 678 l 1
 274 678 l 2
 325 678 369 686 383 756 c 2
 506 1337 l 1
 504 1337 l 1
 426 1261 368 1210 319 1210 c 0
 280 1210 260 1256 260 1311 c 1
 352 1329 377 1342 586 1473 c 1
 737 1473 l 1
 592 784 l 2
 586 759 584 737 584 731 c 0
 584 684 621 678 664 678 c 2
 748 678 l 1
 729 588 l 1
 152 588 l 1
379 0 m 1
 1417 1462 l 1
 1589 1462 l 1
 553 0 l 1
 379 0 l 1
1155 0 m 1
 1174 90 l 1
 1231 90 l 2
 1276 90 1317 98 1331 168 c 2
 1346 240 l 1
 958 240 l 1
 975 322 l 1
 1503 885 l 1
 1686 885 l 1
 1573 348 l 1
 1733 348 l 1
 1708 240 l 1
 1548 240 l 1
 1540 203 l 2
 1534 174 1532 149 1532 141 c 0
 1532 96 1565 90 1604 90 c 2
 1645 90 l 1
 1626 0 l 1
 1155 0 l 1
1126 348 m 1
 1370 348 l 1
 1417 578 l 2
 1425 621 1442 660 1456 711 c 1
 1442 688 1421 663 1413 653 c 2
 1126 348 l 1
EndSplineSet
EndChar

StartChar: onehalf
Encoding: 189 189 127
Width: 1806
GlyphClass: 1
Flags: HW
LayerCount: 2
Fore
SplineSet
152 588 m 1
 170 678 l 1
 274 678 l 2
 325 678 369 686 383 756 c 2
 506 1337 l 1
 504 1337 l 1
 426 1261 368 1210 319 1210 c 0
 280 1210 260 1256 260 1311 c 1
 352 1329 377 1342 586 1473 c 1
 737 1473 l 1
 592 784 l 2
 586 759 584 737 584 731 c 0
 584 684 621 678 664 678 c 2
 748 678 l 1
 729 588 l 1
 152 588 l 1
338 0 m 1
 1376 1462 l 1
 1548 1462 l 1
 512 0 l 1
 338 0 l 1
954 -2 m 1
 983 145 l 1
 1286 367 l 2
 1452 488 1503 583 1503 698 c 0
 1503 751 1480 803 1417 803 c 0
 1341 803 1292 706 1280 600 c 1
 1184 600 1124 644 1124 705 c 0
 1124 816 1245 895 1444 895 c 0
 1614 895 1722 822 1722 711 c 0
 1722 596 1650 508 1419 342 c 2
 1163 158 l 1
 1464 158 l 2
 1527 158 1557 197 1573 242 c 2
 1589 285 l 1
 1669 285 l 1
 1612 -2 l 1
 954 -2 l 1
EndSplineSet
EndChar

StartChar: threequarters
Encoding: 190 190 128
Width: 1806
GlyphClass: 1
Flags: HW
LayerCount: 2
Fore
SplineSet
410 573 m 0
 211 573 109 637 109 739 c 0
 109 813 174 856 260 856 c 1
 260 778 305 680 428 680 c 0
 526 680 606 727 606 848 c 0
 606 924 549 989 420 989 c 2
 352 989 l 1
 369 1085 l 1
 438 1085 l 2
 553 1085 653 1163 653 1298 c 0
 653 1351 628 1391 575 1391 c 0
 487 1391 446 1306 432 1212 c 1
 332 1212 266 1241 266 1307 c 0
 266 1403 387 1483 588 1483 c 0
 783 1483 872 1398 872 1296 c 0
 872 1153 764 1086 614 1055 c 1
 612 1044 l 1
 737 1030 819 969 819 856 c 0
 819 672 646 573 410 573 c 0
399 0 m 1
 1438 1462 l 1
 1610 1462 l 1
 573 0 l 1
 399 0 l 1
1155 0 m 1
 1174 90 l 1
 1231 90 l 2
 1276 90 1317 98 1331 168 c 2
 1346 240 l 1
 958 240 l 1
 975 322 l 1
 1503 885 l 1
 1686 885 l 1
 1573 348 l 1
 1733 348 l 1
 1708 240 l 1
 1548 240 l 1
 1540 203 l 2
 1534 174 1532 149 1532 141 c 0
 1532 96 1565 90 1604 90 c 2
 1645 90 l 1
 1626 0 l 1
 1155 0 l 1
1126 348 m 1
 1370 348 l 1
 1417 578 l 2
 1425 621 1442 660 1456 711 c 1
 1442 688 1421 663 1413 653 c 2
 1126 348 l 1
EndSplineSet
EndChar

StartChar: questiondown
Encoding: 191 191 129
Width: 1095
GlyphClass: 1
Flags: HW
LayerCount: 2
Fore
SplineSet
690 778 m 0
 596 778 524 826 524 926 c 0
 524 1063 616 1110 702 1110 c 0
 800 1110 868 1063 868 963 c 0
 868 852 799 778 690 778 c 0
446 -389 m 0
 174 -389 4 -285 4 -49 c 0
 4 189 223 340 514 444 c 1
 584 627 l 1
 719 627 l 1
 723 373 l 1
 481 285 324 170 324 -53 c 0
 324 -188 387 -264 471 -264 c 0
 600 -264 650 -121 668 35 c 1
 836 35 920 -19 920 -123 c 0
 920 -270 737 -389 446 -389 c 0
EndSplineSet
Substitution2: "'smcp' Lowercase to Small Capitals lookup 39 subtable" questiondown.sc
Substitution2: "'c2sc' Capitals to Small Capitals lookup 38 subtable" questiondown.sc
Substitution2: "'aalt' Access All Alternates lookup 0 subtable" questiondown.sc
EndChar

StartChar: Agrave
Encoding: 192 192 130
Width: 1542
GlyphClass: 2
Flags: HW
AnchorPoint: "Anchor-3" 678 731 basechar 0
AnchorPoint: "Anchor-2" 1696 1462 basechar 0
AnchorPoint: "Anchor-1" 655 0 basechar 0
AnchorPoint: "Anchor-0" 1061 1907 basechar 0
LayerCount: 2
Fore
SplineSet
987 1579 m 1
 868 1649 710 1806 653 1886 c 1
 659 1907 l 1
 961 1907 l 1
 994 1809 1069 1669 1114 1606 c 1
 1108 1579 l 1
 987 1579 l 1
-100 0 m 1
 -78 109 l 1
 -35 109 l 2
 41 109 71 139 147 268 c 2
 842 1462 l 1
 1122 1462 l 1
 1294 256 l 2
 1306 170 1335 109 1419 109 c 2
 1456 109 l 1
 1434 0 l 1
 758 0 l 1
 780 109 l 1
 827 109 l 2
 915 109 971 136 971 195 c 0
 971 218 969 240 967 260 c 2
 940 481 l 1
 440 481 l 1
 338 297 l 2
 311 248 299 211 299 182 c 0
 299 131 336 109 414 109 c 2
 455 109 l 1
 432 0 l 1
 -100 0 l 1
711 969 m 2
 510 606 l 1
 926 606 l 1
 885 950 l 2
 873 1071 860 1157 858 1255 c 1
 817 1157 783 1096 711 969 c 2
EndSplineSet
Substitution2: "'c2sc' Capitals to Small Capitals lookup 38 subtable" agrave.sc
Substitution2: "'aalt' Access All Alternates lookup 0 subtable" agrave.sc
Position2: "'cpsp' Capital Spacing lookup 0 subtable" dx=10 dy=0 dh=20 dv=0
EndChar

StartChar: Aacute
Encoding: 193 193 131
Width: 1542
GlyphClass: 2
Flags: HW
AnchorPoint: "Anchor-3" 678 731 basechar 0
AnchorPoint: "Anchor-2" 1696 1462 basechar 0
AnchorPoint: "Anchor-1" 655 0 basechar 0
AnchorPoint: "Anchor-0" 1061 1907 basechar 0
LayerCount: 2
Fore
SplineSet
858 1579 m 1
 864 1606 l 1
 940 1684 1045 1815 1108 1907 c 1
 1430 1907 l 1
 1423 1886 l 1
 1357 1814 1142 1653 997 1579 c 1
 858 1579 l 1
-100 0 m 1
 -78 109 l 1
 -35 109 l 2
 41 109 71 139 147 268 c 2
 842 1462 l 1
 1122 1462 l 1
 1294 256 l 2
 1306 170 1335 109 1419 109 c 2
 1456 109 l 1
 1434 0 l 1
 758 0 l 1
 780 109 l 1
 827 109 l 2
 915 109 971 136 971 195 c 0
 971 218 969 240 967 260 c 2
 940 481 l 1
 440 481 l 1
 338 297 l 2
 311 248 299 211 299 182 c 0
 299 131 336 109 414 109 c 2
 455 109 l 1
 432 0 l 1
 -100 0 l 1
711 969 m 2
 510 606 l 1
 926 606 l 1
 885 950 l 2
 873 1071 860 1157 858 1255 c 1
 817 1157 783 1096 711 969 c 2
EndSplineSet
Substitution2: "'c2sc' Capitals to Small Capitals lookup 38 subtable" aacute.sc
Substitution2: "'aalt' Access All Alternates lookup 0 subtable" aacute.sc
Position2: "'cpsp' Capital Spacing lookup 0 subtable" dx=10 dy=0 dh=20 dv=0
EndChar

StartChar: Acircumflex
Encoding: 194 194 132
Width: 1542
GlyphClass: 2
Flags: HW
AnchorPoint: "Anchor-3" 678 731 basechar 0
AnchorPoint: "Anchor-2" 1696 1462 basechar 0
AnchorPoint: "Anchor-1" 655 0 basechar 0
AnchorPoint: "Anchor-0" 1061 1907 basechar 0
LayerCount: 2
Fore
SplineSet
618 1606 m 1
 698 1684 831 1811 909 1907 c 1
 1186 1907 l 1
 1221 1823 1299 1684 1346 1606 c 1
 1339 1579 l 1
 1210 1579 l 1
 1163 1624 1077 1708 1028 1763 c 1
 954 1708 840 1624 772 1579 c 1
 612 1579 l 1
 618 1606 l 1
-100 0 m 1
 -78 109 l 1
 -35 109 l 2
 41 109 71 139 147 268 c 2
 842 1462 l 1
 1122 1462 l 1
 1294 256 l 2
 1306 170 1335 109 1419 109 c 2
 1456 109 l 1
 1434 0 l 1
 758 0 l 1
 780 109 l 1
 827 109 l 2
 915 109 971 136 971 195 c 0
 971 218 969 240 967 260 c 2
 940 481 l 1
 440 481 l 1
 338 297 l 2
 311 248 299 211 299 182 c 0
 299 131 336 109 414 109 c 2
 455 109 l 1
 432 0 l 1
 -100 0 l 1
711 969 m 2
 510 606 l 1
 926 606 l 1
 885 950 l 2
 873 1071 860 1157 858 1255 c 1
 817 1157 783 1096 711 969 c 2
EndSplineSet
Substitution2: "'c2sc' Capitals to Small Capitals lookup 38 subtable" acircumflex.sc
Substitution2: "'aalt' Access All Alternates lookup 0 subtable" acircumflex.sc
Position2: "'cpsp' Capital Spacing lookup 0 subtable" dx=10 dy=0 dh=20 dv=0
EndChar

StartChar: Atilde
Encoding: 195 195 133
Width: 1542
GlyphClass: 2
Flags: HW
AnchorPoint: "Anchor-3" 678 731 basechar 0
AnchorPoint: "Anchor-2" 1696 1462 basechar 0
AnchorPoint: "Anchor-1" 655 0 basechar 0
AnchorPoint: "Anchor-0" 1061 1903 basechar 0
LayerCount: 2
Fore
SplineSet
1157 1579 m 0
 1010 1579 930 1708 842 1708 c 0
 785 1708 739 1654 729 1599 c 1
 606 1599 l 1
 631 1724 736 1903 883 1903 c 0
 1028 1903 1102 1774 1188 1774 c 0
 1258 1774 1286 1827 1300 1882 c 1
 1423 1882 l 1
 1394 1751 1302 1579 1157 1579 c 0
-100 0 m 1
 -78 109 l 1
 -35 109 l 2
 41 109 71 139 147 268 c 2
 842 1462 l 1
 1122 1462 l 1
 1294 256 l 2
 1306 170 1335 109 1419 109 c 2
 1456 109 l 1
 1434 0 l 1
 758 0 l 1
 780 109 l 1
 827 109 l 2
 915 109 971 136 971 195 c 0
 971 218 969 240 967 260 c 2
 940 481 l 1
 440 481 l 1
 338 297 l 2
 311 248 299 211 299 182 c 0
 299 131 336 109 414 109 c 2
 455 109 l 1
 432 0 l 1
 -100 0 l 1
711 969 m 2
 510 606 l 1
 926 606 l 1
 885 950 l 2
 873 1071 860 1157 858 1255 c 1
 817 1157 783 1096 711 969 c 2
EndSplineSet
Substitution2: "'c2sc' Capitals to Small Capitals lookup 38 subtable" atilde.sc
Substitution2: "'aalt' Access All Alternates lookup 0 subtable" atilde.sc
Position2: "'cpsp' Capital Spacing lookup 0 subtable" dx=10 dy=0 dh=20 dv=0
EndChar

StartChar: Adieresis
Encoding: 196 196 134
Width: 1542
GlyphClass: 2
Flags: HW
AnchorPoint: "Anchor-3" 678 731 basechar 0
AnchorPoint: "Anchor-2" 1696 1462 basechar 0
AnchorPoint: "Anchor-1" 655 0 basechar 0
AnchorPoint: "Anchor-0" 1059 1901 basechar 0
LayerCount: 2
Fore
SplineSet
1233 1612 m 0
 1157 1612 1106 1653 1106 1739 c 0
 1106 1835 1159 1901 1243 1901 c 0
 1317 1901 1370 1860 1370 1774 c 0
 1370 1653 1299 1612 1233 1612 c 0
776 1612 m 0
 700 1612 649 1653 649 1739 c 0
 649 1835 702 1901 786 1901 c 0
 860 1901 913 1860 913 1774 c 0
 913 1653 842 1612 776 1612 c 0
-100 0 m 1
 -78 109 l 1
 -35 109 l 2
 41 109 71 139 147 268 c 2
 842 1462 l 1
 1122 1462 l 1
 1294 256 l 2
 1306 170 1335 109 1419 109 c 2
 1456 109 l 1
 1434 0 l 1
 758 0 l 1
 780 109 l 1
 827 109 l 2
 915 109 971 136 971 195 c 0
 971 218 969 240 967 260 c 2
 940 481 l 1
 440 481 l 1
 338 297 l 2
 311 248 299 211 299 182 c 0
 299 131 336 109 414 109 c 2
 455 109 l 1
 432 0 l 1
 -100 0 l 1
711 969 m 2
 510 606 l 1
 926 606 l 1
 885 950 l 2
 873 1071 860 1157 858 1255 c 1
 817 1157 783 1096 711 969 c 2
EndSplineSet
Substitution2: "'c2sc' Capitals to Small Capitals lookup 38 subtable" adieresis.sc
Substitution2: "'aalt' Access All Alternates lookup 0 subtable" adieresis.sc
Position2: "'cpsp' Capital Spacing lookup 0 subtable" dx=10 dy=0 dh=20 dv=0
EndChar

StartChar: Aring
Encoding: 197 197 135
Width: 1542
GlyphClass: 2
Flags: HW
AnchorPoint: "Anchor-3" 678 731 basechar 0
AnchorPoint: "Anchor-2" 1696 1462 basechar 0
AnchorPoint: "Anchor-1" 655 0 basechar 0
AnchorPoint: "Anchor-0" 1038 1796 basechar 0
LayerCount: 2
Fore
SplineSet
-100 0 m 1
 -78 109 l 1
 -35 109 l 2
 41 109 71 139 147 268 c 2
 805 1399 l 1
 756 1438 725 1495 725 1573 c 0
 725 1718 834 1796 971 1796 c 0
 1108 1796 1217 1718 1217 1573 c 0
 1217 1493 1184 1434 1133 1397 c 1
 1294 256 l 2
 1306 170 1335 109 1419 109 c 2
 1456 109 l 1
 1434 0 l 1
 758 0 l 1
 780 109 l 1
 827 109 l 2
 915 109 971 136 971 195 c 0
 971 218 969 240 967 260 c 2
 940 481 l 1
 440 481 l 1
 338 297 l 2
 311 248 299 211 299 182 c 0
 299 131 336 109 414 109 c 2
 455 109 l 1
 432 0 l 1
 -100 0 l 1
971 1462 m 0
 1037 1462 1092 1493 1092 1573 c 0
 1092 1653 1037 1683 971 1683 c 0
 905 1683 850 1653 850 1573 c 0
 850 1493 905 1462 971 1462 c 0
711 969 m 2
 510 606 l 1
 926 606 l 1
 885 950 l 2
 873 1071 860 1157 858 1255 c 1
 817 1157 783 1096 711 969 c 2
EndSplineSet
Substitution2: "'c2sc' Capitals to Small Capitals lookup 38 subtable" aring.sc
Substitution2: "'aalt' Access All Alternates lookup 0 subtable" aring.sc
Position2: "'cpsp' Capital Spacing lookup 0 subtable" dx=10 dy=0 dh=20 dv=0
EndChar

StartChar: AE
Encoding: 198 198 136
Width: 2033
GlyphClass: 2
Flags: HW
AnchorPoint: "Anchor-3" 995 731 basechar 0
AnchorPoint: "Anchor-1" 901 0 basechar 0
AnchorPoint: "Anchor-0" 1376 1462 basechar 0
LayerCount: 2
Fore
SplineSet
-90 0 m 1
 -68 109 l 1
 -43 109 l 2
 29 109 88 157 170 268 c 2
 975 1343 l 1
 842 1354 l 1
 864 1462 l 1
 2083 1462 l 1
 2011 1081 l 1
 1866 1081 l 1
 1868 1099 1876 1190 1876 1200 c 0
 1876 1276 1837 1337 1731 1337 c 2
 1458 1337 l 1
 1350 825 l 1
 1815 825 l 1
 1788 702 l 1
 1323 702 l 1
 1200 125 l 1
 1524 125 l 2
 1653 125 1722 203 1755 293 c 2
 1788 381 l 1
 1933 381 l 1
 1839 0 l 1
 664 0 l 1
 686 109 l 1
 713 109 l 2
 799 109 878 125 901 231 c 2
 950 469 l 1
 483 469 l 1
 362 297 l 2
 321 240 305 193 305 170 c 0
 305 127 344 109 414 109 c 2
 449 109 l 1
 426 0 l 1
 -90 0 l 1
575 592 m 1
 977 592 l 1
 1135 1337 l 1
 1104 1337 l 1
 1016 1210 930 1083 838 956 c 2
 575 592 l 1
EndSplineSet
Substitution2: "'c2sc' Capitals to Small Capitals lookup 38 subtable" ae.sc
Substitution2: "'aalt' Access All Alternates lookup 0 subtable" ae.sc
Position2: "'cpsp' Capital Spacing lookup 0 subtable" dx=10 dy=0 dh=20 dv=0
EndChar

StartChar: Ccedilla
Encoding: 199 199 137
Width: 1368
GlyphClass: 2
Flags: HW
AnchorPoint: "Anchor-3" 784 735 basechar 0
AnchorPoint: "Anchor-2" 1522 1462 basechar 0
AnchorPoint: "Anchor-1" 606 -492 basechar 0
AnchorPoint: "Anchor-0" 1028 1491 basechar 0
LayerCount: 2
Fore
SplineSet
528 -492 m 0
 458 -492 395 -481 348 -465 c 1
 375 -344 l 1
 422 -354 471 -360 508 -360 c 0
 592 -360 659 -330 659 -256 c 0
 659 -203 600 -166 524 -162 c 1
 594 -8 l 1
 299 39 129 229 129 530 c 0
 129 1022 487 1491 1034 1491 c 0
 1306 1491 1440 1394 1440 1247 c 0
 1440 1128 1317 1063 1151 1063 c 1
 1151 1178 1129 1360 977 1360 c 0
 655 1360 469 880 469 518 c 0
 469 285 587 152 823 152 c 0
 1011 152 1124 246 1192 338 c 1
 1208 326 1227 299 1227 268 c 0
 1227 131 1059 -20 750 -20 c 0
 736 -20 721 -20 707 -20 c 1
 684 -70 l 1
 793 -84 866 -152 866 -240 c 0
 866 -416 688 -492 528 -492 c 0
EndSplineSet
Substitution2: "'c2sc' Capitals to Small Capitals lookup 38 subtable" ccedilla.sc
Substitution2: "'aalt' Access All Alternates lookup 0 subtable" ccedilla.sc
Position2: "'cpsp' Capital Spacing lookup 0 subtable" dx=10 dy=0 dh=20 dv=0
EndChar

StartChar: Egrave
Encoding: 200 200 138
Width: 1296
GlyphClass: 2
Flags: HW
AnchorPoint: "Anchor-3" 662 731 basechar 0
AnchorPoint: "Anchor-2" 1450 1462 basechar 0
AnchorPoint: "Anchor-1" 532 0 basechar 0
AnchorPoint: "Anchor-0" 938 1907 basechar 0
LayerCount: 2
Fore
SplineSet
870 1579 m 1
 751 1649 594 1806 537 1886 c 1
 543 1907 l 1
 844 1907 l 1
 877 1809 952 1669 997 1606 c 1
 991 1579 l 1
 870 1579 l 1
-47 0 m 1
 -25 109 l 1
 2 109 l 2
 88 109 167 125 190 231 c 2
 403 1237 l 2
 407 1251 412 1274 412 1284 c 0
 412 1343 350 1354 264 1354 c 2
 238 1354 l 1
 260 1462 l 1
 1372 1462 l 1
 1300 1081 l 1
 1155 1081 l 1
 1157 1099 1165 1190 1165 1200 c 0
 1165 1276 1126 1337 1020 1337 c 2
 748 1337 l 1
 639 825 l 1
 1104 825 l 1
 1077 702 l 1
 612 702 l 1
 489 125 l 1
 813 125 l 2
 942 125 1011 203 1044 293 c 2
 1077 381 l 1
 1223 381 l 1
 1128 0 l 1
 -47 0 l 1
EndSplineSet
Substitution2: "'c2sc' Capitals to Small Capitals lookup 38 subtable" egrave.sc
Substitution2: "'aalt' Access All Alternates lookup 0 subtable" egrave.sc
Position2: "'cpsp' Capital Spacing lookup 0 subtable" dx=10 dy=0 dh=20 dv=0
EndChar

StartChar: Eacute
Encoding: 201 201 139
Width: 1296
GlyphClass: 2
Flags: HW
AnchorPoint: "Anchor-3" 662 731 basechar 0
AnchorPoint: "Anchor-2" 1450 1462 basechar 0
AnchorPoint: "Anchor-1" 532 0 basechar 0
AnchorPoint: "Anchor-0" 938 1907 basechar 0
LayerCount: 2
Fore
SplineSet
741 1579 m 1
 748 1606 l 1
 824 1684 928 1815 991 1907 c 1
 1313 1907 l 1
 1307 1886 l 1
 1241 1814 1026 1653 881 1579 c 1
 741 1579 l 1
-47 0 m 1
 -25 109 l 1
 2 109 l 2
 88 109 167 125 190 231 c 2
 403 1237 l 2
 407 1251 412 1274 412 1284 c 0
 412 1343 350 1354 264 1354 c 2
 238 1354 l 1
 260 1462 l 1
 1372 1462 l 1
 1300 1081 l 1
 1155 1081 l 1
 1157 1099 1165 1190 1165 1200 c 0
 1165 1276 1126 1337 1020 1337 c 2
 748 1337 l 1
 639 825 l 1
 1104 825 l 1
 1077 702 l 1
 612 702 l 1
 489 125 l 1
 813 125 l 2
 942 125 1011 203 1044 293 c 2
 1077 381 l 1
 1223 381 l 1
 1128 0 l 1
 -47 0 l 1
EndSplineSet
Substitution2: "'c2sc' Capitals to Small Capitals lookup 38 subtable" eacute.sc
Substitution2: "'aalt' Access All Alternates lookup 0 subtable" eacute.sc
Position2: "'cpsp' Capital Spacing lookup 0 subtable" dx=10 dy=0 dh=20 dv=0
EndChar

StartChar: Ecircumflex
Encoding: 202 202 140
Width: 1296
GlyphClass: 2
Flags: HW
AnchorPoint: "Anchor-3" 662 731 basechar 0
AnchorPoint: "Anchor-2" 1450 1462 basechar 0
AnchorPoint: "Anchor-1" 532 0 basechar 0
AnchorPoint: "Anchor-0" 938 1907 basechar 0
LayerCount: 2
Fore
SplineSet
557 1606 m 1
 637 1684 770 1811 848 1907 c 1
 1124 1907 l 1
 1159 1823 1237 1684 1284 1606 c 1
 1278 1579 l 1
 1149 1579 l 1
 1102 1624 1016 1708 967 1763 c 1
 893 1708 779 1624 711 1579 c 1
 551 1579 l 1
 557 1606 l 1
-47 0 m 1
 -25 109 l 1
 2 109 l 2
 88 109 167 125 190 231 c 2
 403 1237 l 2
 407 1251 412 1274 412 1284 c 0
 412 1343 350 1354 264 1354 c 2
 238 1354 l 1
 260 1462 l 1
 1372 1462 l 1
 1300 1081 l 1
 1155 1081 l 1
 1157 1099 1165 1190 1165 1200 c 0
 1165 1276 1126 1337 1020 1337 c 2
 748 1337 l 1
 639 825 l 1
 1104 825 l 1
 1077 702 l 1
 612 702 l 1
 489 125 l 1
 813 125 l 2
 942 125 1011 203 1044 293 c 2
 1077 381 l 1
 1223 381 l 1
 1128 0 l 1
 -47 0 l 1
EndSplineSet
Substitution2: "'c2sc' Capitals to Small Capitals lookup 38 subtable" ecircumflex.sc
Substitution2: "'aalt' Access All Alternates lookup 0 subtable" ecircumflex.sc
Position2: "'cpsp' Capital Spacing lookup 0 subtable" dx=10 dy=0 dh=20 dv=0
EndChar

StartChar: Edieresis
Encoding: 203 203 141
Width: 1296
GlyphClass: 2
Flags: HW
AnchorPoint: "Anchor-3" 662 731 basechar 0
AnchorPoint: "Anchor-2" 1450 1462 basechar 0
AnchorPoint: "Anchor-1" 532 0 basechar 0
AnchorPoint: "Anchor-0" 936 1901 basechar 0
LayerCount: 2
Fore
SplineSet
1130 1612 m 0
 1054 1612 1004 1653 1004 1739 c 0
 1004 1835 1057 1901 1141 1901 c 0
 1215 1901 1268 1860 1268 1774 c 0
 1268 1653 1196 1612 1130 1612 c 0
674 1612 m 0
 598 1612 547 1653 547 1739 c 0
 547 1835 600 1901 684 1901 c 0
 758 1901 811 1860 811 1774 c 0
 811 1653 740 1612 674 1612 c 0
-47 0 m 1
 -25 109 l 1
 2 109 l 2
 88 109 167 125 190 231 c 2
 403 1237 l 2
 407 1251 412 1274 412 1284 c 0
 412 1343 350 1354 264 1354 c 2
 238 1354 l 1
 260 1462 l 1
 1372 1462 l 1
 1300 1081 l 1
 1155 1081 l 1
 1157 1099 1165 1190 1165 1200 c 0
 1165 1276 1126 1337 1020 1337 c 2
 748 1337 l 1
 639 825 l 1
 1104 825 l 1
 1077 702 l 1
 612 702 l 1
 489 125 l 1
 813 125 l 2
 942 125 1011 203 1044 293 c 2
 1077 381 l 1
 1223 381 l 1
 1128 0 l 1
 -47 0 l 1
EndSplineSet
Substitution2: "'c2sc' Capitals to Small Capitals lookup 38 subtable" edieresis.sc
Substitution2: "'aalt' Access All Alternates lookup 0 subtable" edieresis.sc
Position2: "'cpsp' Capital Spacing lookup 0 subtable" dx=10 dy=0 dh=20 dv=0
EndChar

StartChar: Igrave
Encoding: 204 204 142
Width: 821
GlyphClass: 2
Flags: HW
AnchorPoint: "Anchor-3" 459 731 basechar 0
AnchorPoint: "Anchor-2" 975 1462 basechar 0
AnchorPoint: "Anchor-1" 295 0 basechar 0
AnchorPoint: "Anchor-0" 700 1907 basechar 0
LayerCount: 2
Fore
SplineSet
629 1579 m 1
 510 1649 352 1806 295 1886 c 1
 301 1907 l 1
 602 1907 l 1
 635 1809 711 1669 756 1606 c 1
 750 1579 l 1
 629 1579 l 1
-47 0 m 1
 -25 109 l 1
 2 109 l 2
 88 109 167 125 190 231 c 2
 403 1223 l 2
 409 1250 412 1274 412 1284 c 0
 412 1343 350 1354 264 1354 c 2
 238 1354 l 1
 260 1462 l 1
 967 1462 l 1
 944 1354 l 1
 918 1354 l 2
 828 1354 746 1338 723 1229 c 2
 512 225 l 2
 510 211 504 188 504 178 c 0
 504 119 567 109 653 109 c 2
 680 109 l 1
 657 0 l 1
 -47 0 l 1
EndSplineSet
Substitution2: "'c2sc' Capitals to Small Capitals lookup 38 subtable" igrave.sc
Substitution2: "'aalt' Access All Alternates lookup 0 subtable" igrave.sc
Position2: "'cpsp' Capital Spacing lookup 0 subtable" dx=10 dy=0 dh=20 dv=0
EndChar

StartChar: Iacute
Encoding: 205 205 143
Width: 821
GlyphClass: 2
Flags: HW
AnchorPoint: "Anchor-3" 459 731 basechar 0
AnchorPoint: "Anchor-2" 975 1462 basechar 0
AnchorPoint: "Anchor-1" 295 0 basechar 0
AnchorPoint: "Anchor-0" 700 1907 basechar 0
LayerCount: 2
Fore
SplineSet
494 1579 m 1
 500 1606 l 1
 576 1684 680 1815 743 1907 c 1
 1065 1907 l 1
 1059 1886 l 1
 993 1814 778 1653 633 1579 c 1
 494 1579 l 1
-47 0 m 1
 -25 109 l 1
 2 109 l 2
 88 109 167 125 190 231 c 2
 403 1223 l 2
 409 1250 412 1274 412 1284 c 0
 412 1343 350 1354 264 1354 c 2
 238 1354 l 1
 260 1462 l 1
 967 1462 l 1
 944 1354 l 1
 918 1354 l 2
 828 1354 746 1338 723 1229 c 2
 512 225 l 2
 510 211 504 188 504 178 c 0
 504 119 567 109 653 109 c 2
 680 109 l 1
 657 0 l 1
 -47 0 l 1
EndSplineSet
Substitution2: "'c2sc' Capitals to Small Capitals lookup 38 subtable" iacute.sc
Substitution2: "'aalt' Access All Alternates lookup 0 subtable" iacute.sc
Position2: "'cpsp' Capital Spacing lookup 0 subtable" dx=10 dy=0 dh=20 dv=0
EndChar

StartChar: Icircumflex
Encoding: 206 206 144
Width: 821
GlyphClass: 2
Flags: HW
AnchorPoint: "Anchor-3" 459 731 basechar 0
AnchorPoint: "Anchor-2" 975 1462 basechar 0
AnchorPoint: "Anchor-1" 295 0 basechar 0
AnchorPoint: "Anchor-0" 700 1907 basechar 0
LayerCount: 2
Fore
SplineSet
270 1606 m 1
 350 1684 483 1811 561 1907 c 1
 838 1907 l 1
 873 1823 950 1684 997 1606 c 1
 991 1579 l 1
 862 1579 l 1
 815 1624 729 1708 680 1763 c 1
 606 1708 492 1624 424 1579 c 1
 264 1579 l 1
 270 1606 l 1
-47 0 m 1
 -25 109 l 1
 2 109 l 2
 88 109 167 125 190 231 c 2
 403 1223 l 2
 409 1250 412 1274 412 1284 c 0
 412 1343 350 1354 264 1354 c 2
 238 1354 l 1
 260 1462 l 1
 967 1462 l 1
 944 1354 l 1
 918 1354 l 2
 828 1354 746 1338 723 1229 c 2
 512 225 l 2
 510 211 504 188 504 178 c 0
 504 119 567 109 653 109 c 2
 680 109 l 1
 657 0 l 1
 -47 0 l 1
EndSplineSet
Substitution2: "'c2sc' Capitals to Small Capitals lookup 38 subtable" icircumflex.sc
Substitution2: "'aalt' Access All Alternates lookup 0 subtable" icircumflex.sc
Position2: "'cpsp' Capital Spacing lookup 0 subtable" dx=10 dy=0 dh=20 dv=0
EndChar

StartChar: Idieresis
Encoding: 207 207 145
Width: 821
GlyphClass: 2
Flags: HW
AnchorPoint: "Anchor-3" 459 731 basechar 0
AnchorPoint: "Anchor-2" 975 1462 basechar 0
AnchorPoint: "Anchor-1" 295 0 basechar 0
AnchorPoint: "Anchor-0" 698 1901 basechar 0
LayerCount: 2
Fore
SplineSet
874 1612 m 0
 798 1612 748 1653 748 1739 c 0
 748 1835 801 1901 885 1901 c 0
 959 1901 1012 1860 1012 1774 c 0
 1012 1653 940 1612 874 1612 c 0
418 1612 m 0
 342 1612 291 1653 291 1739 c 0
 291 1835 344 1901 428 1901 c 0
 502 1901 555 1860 555 1774 c 0
 555 1653 484 1612 418 1612 c 0
-47 0 m 1
 -25 109 l 1
 2 109 l 2
 88 109 167 125 190 231 c 2
 403 1223 l 2
 409 1250 412 1274 412 1284 c 0
 412 1343 350 1354 264 1354 c 2
 238 1354 l 1
 260 1462 l 1
 967 1462 l 1
 944 1354 l 1
 918 1354 l 2
 828 1354 746 1338 723 1229 c 2
 512 225 l 2
 510 211 504 188 504 178 c 0
 504 119 567 109 653 109 c 2
 680 109 l 1
 657 0 l 1
 -47 0 l 1
EndSplineSet
Substitution2: "'c2sc' Capitals to Small Capitals lookup 38 subtable" idieresis.sc
Substitution2: "'aalt' Access All Alternates lookup 0 subtable" idieresis.sc
Position2: "'cpsp' Capital Spacing lookup 0 subtable" dx=10 dy=0 dh=20 dv=0
EndChar

StartChar: Eth
Encoding: 208 208 146
Width: 1572
GlyphClass: 2
Flags: HW
AnchorPoint: "Anchor-3" 864 731 basechar 0
AnchorPoint: "Anchor-2" 1726 1462 basechar 0
AnchorPoint: "Anchor-1" 670 0 basechar 0
AnchorPoint: "Anchor-0" 981 1462 basechar 0
LayerCount: 2
Fore
SplineSet
-49 0 m 1
 -27 109 l 1
 2 109 l 2
 88 109 167 125 190 231 c 2
 291 702 l 1
 121 702 l 1
 147 827 l 1
 317 827 l 1
 403 1237 l 2
 407 1251 412 1274 412 1284 c 0
 412 1343 350 1354 264 1354 c 2
 238 1354 l 1
 260 1462 l 1
 915 1462 l 2
 1306 1462 1536 1267 1536 905 c 0
 1536 418 1229 0 672 0 c 2
 -49 0 l 1
584 127 m 2
 967 127 1192 455 1192 922 c 0
 1192 1209 1053 1337 834 1337 c 2
 748 1337 l 1
 639 827 l 1
 897 827 l 1
 870 702 l 1
 612 702 l 1
 492 127 l 1
 584 127 l 2
EndSplineSet
Substitution2: "'c2sc' Capitals to Small Capitals lookup 38 subtable" eth.sc
Substitution2: "'aalt' Access All Alternates lookup 0 subtable" eth.sc
Position2: "'cpsp' Capital Spacing lookup 0 subtable" dx=10 dy=0 dh=20 dv=0
EndChar

StartChar: Ntilde
Encoding: 209 209 147
Width: 1613
GlyphClass: 2
Flags: HW
AnchorPoint: "Anchor-3" 866 731 basechar 0
AnchorPoint: "Anchor-2" 1767 1462 basechar 0
AnchorPoint: "Anchor-1" 690 0 basechar 0
AnchorPoint: "Anchor-0" 1096 1903 basechar 0
LayerCount: 2
Fore
SplineSet
1217 1579 m 0
 1070 1579 989 1708 901 1708 c 0
 844 1708 798 1654 788 1599 c 1
 666 1599 l 1
 691 1724 795 1903 942 1903 c 0
 1087 1903 1161 1774 1247 1774 c 0
 1317 1774 1346 1827 1360 1882 c 1
 1483 1882 l 1
 1454 1751 1362 1579 1217 1579 c 0
-47 0 m 1
 -25 109 l 1
 2 109 l 2
 88 109 167 125 190 231 c 2
 399 1214 l 2
 407 1251 412 1274 412 1284 c 0
 412 1343 350 1354 264 1354 c 2
 238 1354 l 1
 260 1462 l 1
 715 1462 l 1
 1214 412 l 1
 1386 1221 l 2
 1392 1252 1397 1274 1397 1284 c 0
 1397 1343 1333 1354 1247 1354 c 2
 1241 1354 l 1
 1264 1462 l 1
 1780 1462 l 1
 1757 1354 l 1
 1731 1354 l 2
 1645 1354 1565 1337 1542 1231 c 2
 1282 0 l 1
 1094 0 l 1
 539 1159 l 1
 346 242 l 2
 340 211 336 188 336 178 c 0
 336 119 399 109 485 109 c 2
 492 109 l 1
 469 0 l 1
 -47 0 l 1
EndSplineSet
Substitution2: "'c2sc' Capitals to Small Capitals lookup 38 subtable" ntilde.sc
Substitution2: "'aalt' Access All Alternates lookup 0 subtable" ntilde.sc
Position2: "'cpsp' Capital Spacing lookup 0 subtable" dx=10 dy=0 dh=20 dv=0
EndChar

StartChar: Ograve
Encoding: 210 210 148
Width: 1622
GlyphClass: 2
Flags: HW
AnchorPoint: "Anchor-3" 889 731 basechar 0
AnchorPoint: "Anchor-2" 1776 1462 basechar 0
AnchorPoint: "Anchor-1" 694 0 basechar 0
AnchorPoint: "Anchor-0" 1100 1907 basechar 0
LayerCount: 2
Fore
SplineSet
983 1579 m 1
 864 1649 706 1806 649 1886 c 1
 655 1907 l 1
 956 1907 l 1
 989 1809 1065 1669 1110 1606 c 1
 1104 1579 l 1
 983 1579 l 1
700 -23 m 0
 376 -23 129 174 129 545 c 0
 129 938 423 1485 1001 1485 c 0
 1302 1485 1567 1313 1567 922 c 0
 1567 545 1286 -23 700 -23 c 0
741 113 m 0
 1081 113 1235 647 1235 969 c 0
 1235 1235 1118 1352 958 1352 c 0
 618 1352 463 818 463 496 c 0
 463 228 585 113 741 113 c 0
EndSplineSet
Substitution2: "'c2sc' Capitals to Small Capitals lookup 38 subtable" ograve.sc
Substitution2: "'aalt' Access All Alternates lookup 0 subtable" ograve.sc
Position2: "'cpsp' Capital Spacing lookup 0 subtable" dx=10 dy=0 dh=20 dv=0
EndChar

StartChar: Oacute
Encoding: 211 211 149
Width: 1622
GlyphClass: 2
Flags: HW
AnchorPoint: "Anchor-3" 889 731 basechar 0
AnchorPoint: "Anchor-2" 1776 1462 basechar 0
AnchorPoint: "Anchor-1" 694 0 basechar 0
AnchorPoint: "Anchor-0" 1100 1907 basechar 0
LayerCount: 2
Fore
SplineSet
874 1579 m 1
 881 1606 l 1
 957 1684 1061 1815 1124 1907 c 1
 1446 1907 l 1
 1440 1886 l 1
 1374 1814 1159 1653 1014 1579 c 1
 874 1579 l 1
700 -23 m 0
 376 -23 129 174 129 545 c 0
 129 938 423 1485 1001 1485 c 0
 1302 1485 1567 1313 1567 922 c 0
 1567 545 1286 -23 700 -23 c 0
741 113 m 0
 1081 113 1235 647 1235 969 c 0
 1235 1235 1118 1352 958 1352 c 0
 618 1352 463 818 463 496 c 0
 463 228 585 113 741 113 c 0
EndSplineSet
Substitution2: "'c2sc' Capitals to Small Capitals lookup 38 subtable" oacute.sc
Substitution2: "'aalt' Access All Alternates lookup 0 subtable" oacute.sc
Position2: "'cpsp' Capital Spacing lookup 0 subtable" dx=10 dy=0 dh=20 dv=0
EndChar

StartChar: Ocircumflex
Encoding: 212 212 150
Width: 1622
GlyphClass: 2
Flags: HW
AnchorPoint: "Anchor-3" 889 731 basechar 0
AnchorPoint: "Anchor-2" 1776 1462 basechar 0
AnchorPoint: "Anchor-1" 694 0 basechar 0
AnchorPoint: "Anchor-0" 1100 1907 basechar 0
LayerCount: 2
Fore
SplineSet
651 1606 m 1
 731 1684 864 1811 942 1907 c 1
 1219 1907 l 1
 1254 1823 1331 1684 1378 1606 c 1
 1372 1579 l 1
 1243 1579 l 1
 1196 1624 1110 1708 1061 1763 c 1
 987 1708 873 1624 805 1579 c 1
 645 1579 l 1
 651 1606 l 1
700 -23 m 0
 376 -23 129 174 129 545 c 0
 129 938 423 1485 1001 1485 c 0
 1302 1485 1567 1313 1567 922 c 0
 1567 545 1286 -23 700 -23 c 0
741 113 m 0
 1081 113 1235 647 1235 969 c 0
 1235 1235 1118 1352 958 1352 c 0
 618 1352 463 818 463 496 c 0
 463 228 585 113 741 113 c 0
EndSplineSet
Substitution2: "'c2sc' Capitals to Small Capitals lookup 38 subtable" ocircumflex.sc
Substitution2: "'aalt' Access All Alternates lookup 0 subtable" ocircumflex.sc
Position2: "'cpsp' Capital Spacing lookup 0 subtable" dx=10 dy=0 dh=20 dv=0
EndChar

StartChar: Otilde
Encoding: 213 213 151
Width: 1622
GlyphClass: 2
Flags: HW
AnchorPoint: "Anchor-3" 889 731 basechar 0
AnchorPoint: "Anchor-2" 1776 1462 basechar 0
AnchorPoint: "Anchor-1" 694 0 basechar 0
AnchorPoint: "Anchor-0" 1100 1903 basechar 0
LayerCount: 2
Fore
SplineSet
1153 1579 m 0
 1006 1579 926 1708 838 1708 c 0
 781 1708 735 1654 725 1599 c 1
 602 1599 l 1
 627 1724 732 1903 879 1903 c 0
 1024 1903 1098 1774 1184 1774 c 0
 1254 1774 1282 1827 1296 1882 c 1
 1419 1882 l 1
 1390 1751 1298 1579 1153 1579 c 0
700 -23 m 0
 376 -23 129 174 129 545 c 0
 129 938 423 1485 1001 1485 c 0
 1302 1485 1567 1313 1567 922 c 0
 1567 545 1286 -23 700 -23 c 0
741 113 m 0
 1081 113 1235 647 1235 969 c 0
 1235 1235 1118 1352 958 1352 c 0
 618 1352 463 818 463 496 c 0
 463 228 585 113 741 113 c 0
EndSplineSet
Substitution2: "'c2sc' Capitals to Small Capitals lookup 38 subtable" otilde.sc
Substitution2: "'aalt' Access All Alternates lookup 0 subtable" otilde.sc
Position2: "'cpsp' Capital Spacing lookup 0 subtable" dx=10 dy=0 dh=20 dv=0
EndChar

StartChar: Odieresis
Encoding: 214 214 152
Width: 1622
GlyphClass: 2
Flags: HW
AnchorPoint: "Anchor-3" 889 731 basechar 0
AnchorPoint: "Anchor-2" 1776 1462 basechar 0
AnchorPoint: "Anchor-1" 694 0 basechar 0
AnchorPoint: "Anchor-0" 1098 1901 basechar 0
LayerCount: 2
Fore
SplineSet
1262 1612 m 0
 1186 1612 1135 1653 1135 1739 c 0
 1135 1835 1188 1901 1272 1901 c 0
 1346 1901 1399 1860 1399 1774 c 0
 1399 1653 1328 1612 1262 1612 c 0
805 1612 m 0
 729 1612 678 1653 678 1739 c 0
 678 1835 731 1901 815 1901 c 0
 889 1901 942 1860 942 1774 c 0
 942 1653 871 1612 805 1612 c 0
700 -23 m 0
 376 -23 129 174 129 545 c 0
 129 938 423 1485 1001 1485 c 0
 1302 1485 1567 1313 1567 922 c 0
 1567 545 1286 -23 700 -23 c 0
741 113 m 0
 1081 113 1235 647 1235 969 c 0
 1235 1235 1118 1352 958 1352 c 0
 618 1352 463 818 463 496 c 0
 463 228 585 113 741 113 c 0
EndSplineSet
Substitution2: "'c2sc' Capitals to Small Capitals lookup 38 subtable" odieresis.sc
Substitution2: "'aalt' Access All Alternates lookup 0 subtable" odieresis.sc
Position2: "'cpsp' Capital Spacing lookup 0 subtable" dx=10 dy=0 dh=20 dv=0
EndChar

StartChar: multiply
Encoding: 215 215 153
Width: 1144
GlyphClass: 1
Flags: HW
LayerCount: 2
Fore
SplineSet
270 328 m 1
 166 432 l 1
 467 735 l 1
 166 1036 l 1
 270 1139 l 1
 571 838 l 1
 872 1141 l 1
 977 1036 l 1
 674 733 l 1
 977 430 l 1
 874 328 l 1
 571 631 l 1
 270 328 l 1
EndSplineSet
EndChar

StartChar: Oslash
Encoding: 216 216 154
Width: 1622
GlyphClass: 2
Flags: HW
AnchorPoint: "Anchor-3" 889 731 basechar 0
AnchorPoint: "Anchor-2" 1776 1462 basechar 0
AnchorPoint: "Anchor-1" 694 0 basechar 0
AnchorPoint: "Anchor-0" 1006 1462 basechar 0
LayerCount: 2
Fore
SplineSet
170 -82 m 1
 311 106 l 1
 198 200 129 348 129 545 c 0
 129 938 423 1485 1001 1485 c 0
 1107 1485 1210 1464 1296 1419 c 1
 1393 1546 l 1
 1536 1546 l 1
 1393 1354 l 1
 1499 1262 1567 1121 1567 922 c 0
 1567 545 1286 -23 700 -23 c 0
 591 -23 494 0 408 43 c 1
 315 -82 l 1
 170 -82 l 1
463 496 m 0
 463 435 469 379 481 334 c 1
 1167 1245 l 1
 1118 1319 1044 1352 958 1352 c 0
 618 1352 463 818 463 496 c 0
741 113 m 0
 1081 113 1235 647 1235 969 c 0
 1235 1028 1229 1079 1219 1122 c 1
 537 213 l 1
 588 143 659 113 741 113 c 0
EndSplineSet
Substitution2: "'c2sc' Capitals to Small Capitals lookup 38 subtable" oslash.sc
Substitution2: "'aalt' Access All Alternates lookup 0 subtable" oslash.sc
Position2: "'cpsp' Capital Spacing lookup 0 subtable" dx=10 dy=0 dh=20 dv=0
EndChar

StartChar: Ugrave
Encoding: 217 217 155
Width: 1529
GlyphClass: 2
Flags: HW
AnchorPoint: "Anchor-3" 950 721 basechar 0
AnchorPoint: "Anchor-2" 1683 1462 basechar 0
AnchorPoint: "Anchor-1" 649 0 basechar 0
AnchorPoint: "Anchor-0" 1055 1907 basechar 0
LayerCount: 2
Fore
SplineSet
1016 1579 m 1
 897 1649 739 1806 682 1886 c 1
 688 1907 l 1
 989 1907 l 1
 1022 1809 1098 1669 1143 1606 c 1
 1137 1579 l 1
 1016 1579 l 1
698 -20 m 0
 379 -20 203 109 203 334 c 0
 203 377 215 469 225 516 c 2
 375 1214 l 2
 383 1251 387 1274 387 1284 c 0
 387 1343 326 1354 240 1354 c 2
 213 1354 l 1
 236 1462 l 1
 944 1462 l 1
 922 1354 l 1
 895 1354 l 2
 805 1354 723 1337 700 1233 c 2
 545 512 l 2
 535 465 520 391 520 334 c 0
 520 197 608 125 772 125 c 0
 1020 125 1104 276 1147 483 c 2
 1305 1223 l 2
 1309 1246 1313 1274 1313 1284 c 0
 1313 1343 1251 1354 1165 1354 c 2
 1139 1354 l 1
 1161 1462 l 1
 1700 1462 l 1
 1677 1354 l 1
 1651 1354 l 2
 1563 1354 1481 1338 1458 1229 c 2
 1294 451 l 2
 1228 146 1044 -20 698 -20 c 0
EndSplineSet
Substitution2: "'c2sc' Capitals to Small Capitals lookup 38 subtable" ugrave.sc
Substitution2: "'aalt' Access All Alternates lookup 0 subtable" ugrave.sc
Position2: "'cpsp' Capital Spacing lookup 0 subtable" dx=10 dy=0 dh=20 dv=0
EndChar

StartChar: Uacute
Encoding: 218 218 156
Width: 1529
GlyphClass: 2
Flags: HW
AnchorPoint: "Anchor-3" 950 721 basechar 0
AnchorPoint: "Anchor-2" 1683 1462 basechar 0
AnchorPoint: "Anchor-1" 649 0 basechar 0
AnchorPoint: "Anchor-0" 1055 1907 basechar 0
LayerCount: 2
Fore
SplineSet
907 1579 m 1
 913 1606 l 1
 989 1684 1094 1815 1157 1907 c 1
 1479 1907 l 1
 1473 1886 l 1
 1407 1814 1192 1653 1047 1579 c 1
 907 1579 l 1
698 -20 m 0
 379 -20 203 109 203 334 c 0
 203 377 215 469 225 516 c 2
 375 1214 l 2
 383 1251 387 1274 387 1284 c 0
 387 1343 326 1354 240 1354 c 2
 213 1354 l 1
 236 1462 l 1
 944 1462 l 1
 922 1354 l 1
 895 1354 l 2
 805 1354 723 1337 700 1233 c 2
 545 512 l 2
 535 465 520 391 520 334 c 0
 520 197 608 125 772 125 c 0
 1020 125 1104 276 1147 483 c 2
 1305 1223 l 2
 1309 1246 1313 1274 1313 1284 c 0
 1313 1343 1251 1354 1165 1354 c 2
 1139 1354 l 1
 1161 1462 l 1
 1700 1462 l 1
 1677 1354 l 1
 1651 1354 l 2
 1563 1354 1481 1338 1458 1229 c 2
 1294 451 l 2
 1228 146 1044 -20 698 -20 c 0
EndSplineSet
Substitution2: "'c2sc' Capitals to Small Capitals lookup 38 subtable" uacute.sc
Substitution2: "'aalt' Access All Alternates lookup 0 subtable" uacute.sc
Position2: "'cpsp' Capital Spacing lookup 0 subtable" dx=10 dy=0 dh=20 dv=0
EndChar

StartChar: Ucircumflex
Encoding: 219 219 157
Width: 1529
GlyphClass: 2
Flags: HW
AnchorPoint: "Anchor-3" 950 721 basechar 0
AnchorPoint: "Anchor-2" 1683 1462 basechar 0
AnchorPoint: "Anchor-1" 649 0 basechar 0
AnchorPoint: "Anchor-0" 1055 1907 basechar 0
LayerCount: 2
Fore
SplineSet
696 1606 m 1
 776 1684 909 1811 987 1907 c 1
 1264 1907 l 1
 1299 1823 1376 1684 1423 1606 c 1
 1417 1579 l 1
 1288 1579 l 1
 1241 1624 1155 1708 1106 1763 c 1
 1032 1708 918 1624 850 1579 c 1
 690 1579 l 1
 696 1606 l 1
698 -20 m 0
 379 -20 203 109 203 334 c 0
 203 377 215 469 225 516 c 2
 375 1214 l 2
 383 1251 387 1274 387 1284 c 0
 387 1343 326 1354 240 1354 c 2
 213 1354 l 1
 236 1462 l 1
 944 1462 l 1
 922 1354 l 1
 895 1354 l 2
 805 1354 723 1337 700 1233 c 2
 545 512 l 2
 535 465 520 391 520 334 c 0
 520 197 608 125 772 125 c 0
 1020 125 1104 276 1147 483 c 2
 1305 1223 l 2
 1309 1246 1313 1274 1313 1284 c 0
 1313 1343 1251 1354 1165 1354 c 2
 1139 1354 l 1
 1161 1462 l 1
 1700 1462 l 1
 1677 1354 l 1
 1651 1354 l 2
 1563 1354 1481 1338 1458 1229 c 2
 1294 451 l 2
 1228 146 1044 -20 698 -20 c 0
EndSplineSet
Substitution2: "'c2sc' Capitals to Small Capitals lookup 38 subtable" ucircumflex.sc
Substitution2: "'aalt' Access All Alternates lookup 0 subtable" ucircumflex.sc
Position2: "'cpsp' Capital Spacing lookup 0 subtable" dx=10 dy=0 dh=20 dv=0
EndChar

StartChar: Udieresis
Encoding: 220 220 158
Width: 1529
GlyphClass: 2
Flags: HW
AnchorPoint: "Anchor-3" 950 721 basechar 0
AnchorPoint: "Anchor-2" 1683 1462 basechar 0
AnchorPoint: "Anchor-1" 649 0 basechar 0
AnchorPoint: "Anchor-0" 1053 1901 basechar 0
LayerCount: 2
Fore
SplineSet
1276 1612 m 0
 1200 1612 1149 1653 1149 1739 c 0
 1149 1835 1202 1901 1286 1901 c 0
 1360 1901 1413 1860 1413 1774 c 0
 1413 1653 1342 1612 1276 1612 c 0
819 1612 m 0
 743 1612 692 1653 692 1739 c 0
 692 1835 745 1901 829 1901 c 0
 903 1901 956 1860 956 1774 c 0
 956 1653 885 1612 819 1612 c 0
698 -20 m 0
 379 -20 203 109 203 334 c 0
 203 377 215 469 225 516 c 2
 375 1214 l 2
 383 1251 387 1274 387 1284 c 0
 387 1343 326 1354 240 1354 c 2
 213 1354 l 1
 236 1462 l 1
 944 1462 l 1
 922 1354 l 1
 895 1354 l 2
 805 1354 723 1337 700 1233 c 2
 545 512 l 2
 535 465 520 391 520 334 c 0
 520 197 608 125 772 125 c 0
 1020 125 1104 276 1147 483 c 2
 1305 1223 l 2
 1309 1246 1313 1274 1313 1284 c 0
 1313 1343 1251 1354 1165 1354 c 2
 1139 1354 l 1
 1161 1462 l 1
 1700 1462 l 1
 1677 1354 l 1
 1651 1354 l 2
 1563 1354 1481 1338 1458 1229 c 2
 1294 451 l 2
 1228 146 1044 -20 698 -20 c 0
EndSplineSet
Substitution2: "'c2sc' Capitals to Small Capitals lookup 38 subtable" udieresis.sc
Substitution2: "'aalt' Access All Alternates lookup 0 subtable" udieresis.sc
Position2: "'cpsp' Capital Spacing lookup 0 subtable" dx=10 dy=0 dh=20 dv=0
EndChar

StartChar: Yacute
Encoding: 221 221 159
Width: 1419
GlyphClass: 2
Flags: HW
AnchorPoint: "Anchor-3" 899 731 basechar 0
AnchorPoint: "Anchor-2" 1573 1462 basechar 0
AnchorPoint: "Anchor-1" 594 0 basechar 0
AnchorPoint: "Anchor-0" 999 1907 basechar 0
LayerCount: 2
Fore
SplineSet
825 1579 m 1
 831 1606 l 1
 907 1684 1012 1815 1075 1907 c 1
 1397 1907 l 1
 1391 1886 l 1
 1325 1814 1110 1653 965 1579 c 1
 825 1579 l 1
227 0 m 1
 250 109 l 1
 305 109 l 2
 391 109 469 127 492 233 c 2
 551 518 l 1
 330 1245 l 2
 305 1325 287 1354 207 1354 c 2
 180 1354 l 1
 203 1462 l 1
 868 1462 l 1
 846 1354 l 1
 754 1354 l 2
 693 1354 668 1331 668 1294 c 0
 668 1269 676 1222 692 1161 c 2
 766 872 l 2
 786 792 809 684 813 616 c 1
 838 669 893 758 963 858 c 2
 1165 1147 l 2
 1198 1194 1227 1253 1227 1298 c 0
 1227 1335 1192 1354 1102 1354 c 2
 1059 1354 l 1
 1083 1462 l 1
 1620 1462 l 1
 1597 1354 l 1
 1559 1354 l 2
 1498 1354 1460 1325 1384 1221 c 2
 877 516 l 1
 815 225 l 2
 813 211 807 188 807 178 c 0
 807 119 870 109 956 109 c 2
 1006 109 l 1
 983 0 l 1
 227 0 l 1
EndSplineSet
Substitution2: "'c2sc' Capitals to Small Capitals lookup 38 subtable" yacute.sc
Substitution2: "'aalt' Access All Alternates lookup 0 subtable" yacute.sc
Position2: "'cpsp' Capital Spacing lookup 0 subtable" dx=10 dy=0 dh=20 dv=0
EndChar

StartChar: Thorn
Encoding: 222 222 160
Width: 1306
GlyphClass: 2
Flags: HW
AnchorPoint: "Anchor-3" 629 731 basechar 0
AnchorPoint: "Anchor-1" 537 0 basechar 0
AnchorPoint: "Anchor-0" 848 1462 basechar 0
LayerCount: 2
Fore
SplineSet
-47 0 m 1
 -25 109 l 1
 2 109 l 2
 88 109 167 125 190 231 c 2
 403 1237 l 2
 407 1251 412 1274 412 1284 c 0
 412 1343 350 1354 264 1354 c 2
 238 1354 l 1
 260 1462 l 1
 967 1462 l 1
 944 1354 l 1
 918 1354 l 2
 828 1354 746 1338 723 1229 c 2
 717 1198 l 1
 784 1198 l 2
 1106 1198 1307 1061 1307 799 c 0
 1307 590 1206 295 680 295 c 2
 526 295 l 1
 512 225 l 2
 510 211 504 188 504 178 c 0
 504 119 567 109 653 109 c 2
 680 109 l 1
 657 0 l 1
 -47 0 l 1
635 414 m 2
 883 414 973 572 973 793 c 0
 973 998 874 1077 737 1077 c 2
 692 1077 l 1
 551 414 l 1
 635 414 l 2
EndSplineSet
Substitution2: "'c2sc' Capitals to Small Capitals lookup 38 subtable" thorn.sc
Substitution2: "'aalt' Access All Alternates lookup 0 subtable" thorn.sc
Position2: "'cpsp' Capital Spacing lookup 0 subtable" dx=10 dy=0 dh=20 dv=0
EndChar

StartChar: germandbls
Encoding: 223 223 161
Width: 1423
GlyphClass: 2
Flags: HW
AnchorPoint: "Anchor-3" 526 543 basechar 0
AnchorPoint: "Anchor-1" 874 -20 basechar 0
AnchorPoint: "Anchor-0" 932 1579 basechar 0
LayerCount: 2
Fore
SplineSet
-168 -492 m 0
 -221 -492 -272 -481 -299 -471 c 1
 -270 -358 l 1
 -247 -364 -217 -371 -174 -371 c 0
 -53 -371 15 -272 72 -18 c 2
 279 958 l 1
 113 958 l 1
 139 1098 l 1
 309 1098 l 1
 326 1161 l 2
 398 1470 624 1579 909 1579 c 0
 1204 1579 1352 1453 1352 1260 c 0
 1352 1190 1333 1082 1315 1006 c 1
 1198 1006 l 2
 1036 1006 965 940 965 842 c 0
 965 764 1004 721 1143 639 c 0
 1274 563 1327 469 1327 338 c 0
 1327 123 1144 -20 874 -20 c 0
 667 -20 532 64 532 203 c 0
 532 312 616 371 743 371 c 1
 743 244 784 106 897 106 c 0
 987 106 1036 172 1036 270 c 0
 1036 356 1010 418 881 494 c 0
 754 568 678 668 678 801 c 0
 678 1022 862 1116 1042 1116 c 1
 1054 1177 1063 1229 1063 1274 c 0
 1063 1387 1010 1460 895 1460 c 0
 748 1460 670 1354 637 1176 c 2
 381 -16 l 2
 299 -393 41 -492 -168 -492 c 0
EndSplineSet
Substitution2: "'smcp' Lowercase to Small Capitals lookup 39 subtable" germandbls.sc
Substitution2: "'aalt' Access All Alternates lookup 0 subtable" germandbls.sc
EndChar

StartChar: agrave
Encoding: 224 224 162
Width: 1361
GlyphClass: 2
Flags: HW
AnchorPoint: "Anchor-3" 686 549 basechar 0
AnchorPoint: "Anchor-2" 1438 1098 basechar 0
AnchorPoint: "Anchor-1" 565 0 basechar 0
AnchorPoint: "Anchor-0" 899 1569 basechar 0
LayerCount: 2
Fore
SplineSet
758 1241 m 1
 639 1311 481 1468 424 1548 c 1
 430 1569 l 1
 731 1569 l 1
 764 1471 840 1331 885 1268 c 1
 879 1241 l 1
 758 1241 l 1
375 -20 m 0
 180 -20 82 141 82 354 c 0
 82 673 309 1118 725 1118 c 0
 831 1118 953 1082 1014 1047 c 1
 1122 1096 l 1
 1231 1096 l 1
 1096 457 l 2
 1086 412 1061 295 1061 242 c 0
 1061 174 1090 141 1133 141 c 0
 1172 141 1204 159 1247 184 c 1
 1292 102 l 1
 1222 49 1116 -20 969 -20 c 0
 848 -20 768 37 768 143 c 0
 768 186 772 223 782 276 c 1
 768 276 l 1
 668 86 576 -20 375 -20 c 0
504 143 m 0
 625 143 768 371 813 590 c 2
 885 930 l 1
 858 969 807 987 754 987 c 0
 516 987 393 579 393 352 c 0
 393 194 441 143 504 143 c 0
EndSplineSet
Substitution2: "'smcp' Lowercase to Small Capitals lookup 39 subtable" agrave.sc
Substitution2: "'aalt' Access All Alternates lookup 0 subtable" agrave.sc
EndChar

StartChar: aacute
Encoding: 225 225 163
Width: 1361
GlyphClass: 2
Flags: HW
AnchorPoint: "Anchor-3" 686 549 basechar 0
AnchorPoint: "Anchor-2" 1438 1098 basechar 0
AnchorPoint: "Anchor-1" 565 0 basechar 0
AnchorPoint: "Anchor-0" 899 1569 basechar 0
LayerCount: 2
Fore
SplineSet
631 1241 m 1
 637 1268 l 1
 713 1346 818 1477 881 1569 c 1
 1202 1569 l 1
 1196 1548 l 1
 1130 1476 915 1315 770 1241 c 1
 631 1241 l 1
375 -20 m 0
 180 -20 82 141 82 354 c 0
 82 673 309 1118 725 1118 c 0
 831 1118 953 1082 1014 1047 c 1
 1122 1096 l 1
 1231 1096 l 1
 1096 457 l 2
 1086 412 1061 295 1061 242 c 0
 1061 174 1090 141 1133 141 c 0
 1172 141 1204 159 1247 184 c 1
 1292 102 l 1
 1222 49 1116 -20 969 -20 c 0
 848 -20 768 37 768 143 c 0
 768 186 772 223 782 276 c 1
 768 276 l 1
 668 86 576 -20 375 -20 c 0
504 143 m 0
 625 143 768 371 813 590 c 2
 885 930 l 1
 858 969 807 987 754 987 c 0
 516 987 393 579 393 352 c 0
 393 194 441 143 504 143 c 0
EndSplineSet
Substitution2: "'smcp' Lowercase to Small Capitals lookup 39 subtable" aacute.sc
Substitution2: "'aalt' Access All Alternates lookup 0 subtable" aacute.sc
EndChar

StartChar: acircumflex
Encoding: 226 226 164
Width: 1361
GlyphClass: 2
Flags: HW
AnchorPoint: "Anchor-3" 686 549 basechar 0
AnchorPoint: "Anchor-2" 1438 1098 basechar 0
AnchorPoint: "Anchor-1" 565 0 basechar 0
AnchorPoint: "Anchor-0" 899 1569 basechar 0
LayerCount: 2
Fore
SplineSet
389 1268 m 1
 469 1346 602 1473 680 1569 c 1
 956 1569 l 1
 991 1485 1069 1346 1116 1268 c 1
 1110 1241 l 1
 981 1241 l 1
 934 1286 848 1370 799 1425 c 1
 725 1370 611 1286 543 1241 c 1
 383 1241 l 1
 389 1268 l 1
375 -20 m 0
 180 -20 82 141 82 354 c 0
 82 673 309 1118 725 1118 c 0
 831 1118 953 1082 1014 1047 c 1
 1122 1096 l 1
 1231 1096 l 1
 1096 457 l 2
 1086 412 1061 295 1061 242 c 0
 1061 174 1090 141 1133 141 c 0
 1172 141 1204 159 1247 184 c 1
 1292 102 l 1
 1222 49 1116 -20 969 -20 c 0
 848 -20 768 37 768 143 c 0
 768 186 772 223 782 276 c 1
 768 276 l 1
 668 86 576 -20 375 -20 c 0
504 143 m 0
 625 143 768 371 813 590 c 2
 885 930 l 1
 858 969 807 987 754 987 c 0
 516 987 393 579 393 352 c 0
 393 194 441 143 504 143 c 0
EndSplineSet
Substitution2: "'smcp' Lowercase to Small Capitals lookup 39 subtable" acircumflex.sc
Substitution2: "'aalt' Access All Alternates lookup 0 subtable" acircumflex.sc
EndChar

StartChar: atilde
Encoding: 227 227 165
Width: 1361
GlyphClass: 2
Flags: HW
AnchorPoint: "Anchor-3" 686 549 basechar 0
AnchorPoint: "Anchor-2" 1438 1098 basechar 0
AnchorPoint: "Anchor-1" 565 0 basechar 0
AnchorPoint: "Anchor-0" 897 1565 basechar 0
LayerCount: 2
Fore
SplineSet
948 1241 m 0
 801 1241 721 1370 633 1370 c 0
 576 1370 530 1317 520 1262 c 1
 397 1262 l 1
 422 1387 527 1565 674 1565 c 0
 819 1565 893 1436 979 1436 c 0
 1049 1436 1078 1489 1092 1544 c 1
 1214 1544 l 1
 1185 1413 1093 1241 948 1241 c 0
375 -20 m 0
 180 -20 82 141 82 354 c 0
 82 673 309 1118 725 1118 c 0
 831 1118 953 1082 1014 1047 c 1
 1122 1096 l 1
 1231 1096 l 1
 1096 457 l 2
 1086 412 1061 295 1061 242 c 0
 1061 174 1090 141 1133 141 c 0
 1172 141 1204 159 1247 184 c 1
 1292 102 l 1
 1222 49 1116 -20 969 -20 c 0
 848 -20 768 37 768 143 c 0
 768 186 772 223 782 276 c 1
 768 276 l 1
 668 86 576 -20 375 -20 c 0
504 143 m 0
 625 143 768 371 813 590 c 2
 885 930 l 1
 858 969 807 987 754 987 c 0
 516 987 393 579 393 352 c 0
 393 194 441 143 504 143 c 0
EndSplineSet
Substitution2: "'smcp' Lowercase to Small Capitals lookup 39 subtable" atilde.sc
Substitution2: "'aalt' Access All Alternates lookup 0 subtable" atilde.sc
EndChar

StartChar: adieresis
Encoding: 228 228 166
Width: 1361
GlyphClass: 2
Flags: HW
AnchorPoint: "Anchor-3" 686 549 basechar 0
AnchorPoint: "Anchor-2" 1438 1098 basechar 0
AnchorPoint: "Anchor-1" 565 0 basechar 0
AnchorPoint: "Anchor-0" 897 1563 basechar 0
LayerCount: 2
Fore
SplineSet
979 1274 m 0
 903 1274 852 1315 852 1401 c 0
 852 1497 905 1563 989 1563 c 0
 1063 1563 1116 1522 1116 1436 c 0
 1116 1315 1045 1274 979 1274 c 0
522 1274 m 0
 446 1274 395 1315 395 1401 c 0
 395 1497 448 1563 532 1563 c 0
 606 1563 659 1522 659 1436 c 0
 659 1315 588 1274 522 1274 c 0
375 -20 m 0
 180 -20 82 141 82 354 c 0
 82 673 309 1118 725 1118 c 0
 831 1118 953 1082 1014 1047 c 1
 1122 1096 l 1
 1231 1096 l 1
 1096 457 l 2
 1086 412 1061 295 1061 242 c 0
 1061 174 1090 141 1133 141 c 0
 1172 141 1204 159 1247 184 c 1
 1292 102 l 1
 1222 49 1116 -20 969 -20 c 0
 848 -20 768 37 768 143 c 0
 768 186 772 223 782 276 c 1
 768 276 l 1
 668 86 576 -20 375 -20 c 0
504 143 m 0
 625 143 768 371 813 590 c 2
 885 930 l 1
 858 969 807 987 754 987 c 0
 516 987 393 579 393 352 c 0
 393 194 441 143 504 143 c 0
EndSplineSet
Substitution2: "'smcp' Lowercase to Small Capitals lookup 39 subtable" adieresis.sc
Substitution2: "'aalt' Access All Alternates lookup 0 subtable" adieresis.sc
EndChar

StartChar: aring
Encoding: 229 229 167
Width: 1361
GlyphClass: 2
Flags: HW
AnchorPoint: "Anchor-3" 686 549 basechar 0
AnchorPoint: "Anchor-2" 1438 1098 basechar 0
AnchorPoint: "Anchor-1" 565 0 basechar 0
AnchorPoint: "Anchor-0" 918 1655 basechar 0
LayerCount: 2
Fore
SplineSet
803 1208 m 0
 666 1208 557 1287 557 1432 c 0
 557 1577 666 1655 803 1655 c 0
 940 1655 1049 1577 1049 1432 c 0
 1049 1287 940 1208 803 1208 c 0
803 1321 m 0
 869 1321 924 1352 924 1432 c 0
 924 1512 869 1542 803 1542 c 0
 737 1542 682 1512 682 1432 c 0
 682 1352 737 1321 803 1321 c 0
375 -20 m 0
 180 -20 82 141 82 354 c 0
 82 673 309 1118 725 1118 c 0
 831 1118 953 1082 1014 1047 c 1
 1122 1096 l 1
 1231 1096 l 1
 1096 457 l 2
 1086 412 1061 295 1061 242 c 0
 1061 174 1090 141 1133 141 c 0
 1172 141 1204 159 1247 184 c 1
 1292 102 l 1
 1222 49 1116 -20 969 -20 c 0
 848 -20 768 37 768 143 c 0
 768 186 772 223 782 276 c 1
 768 276 l 1
 668 86 576 -20 375 -20 c 0
504 143 m 0
 625 143 768 371 813 590 c 2
 885 930 l 1
 858 969 807 987 754 987 c 0
 516 987 393 579 393 352 c 0
 393 194 441 143 504 143 c 0
EndSplineSet
Substitution2: "'smcp' Lowercase to Small Capitals lookup 39 subtable" aring.sc
Substitution2: "'aalt' Access All Alternates lookup 0 subtable" aring.sc
EndChar

StartChar: ae
Encoding: 230 230 168
Width: 1802
GlyphClass: 2
Flags: HW
AnchorPoint: "Anchor-3" 936 551 basechar 0
AnchorPoint: "Anchor-1" 784 0 basechar 0
AnchorPoint: "Anchor-0" 1018 1098 basechar 0
LayerCount: 2
Fore
SplineSet
375 -20 m 0
 180 -20 82 141 82 354 c 0
 82 673 309 1118 725 1118 c 0
 862 1118 971 1075 1065 993 c 1
 1171 1075 1307 1122 1473 1122 c 0
 1678 1122 1792 1033 1792 881 c 0
 1792 660 1534 461 1182 461 c 2
 1106 461 l 1
 1102 434 1102 406 1102 383 c 0
 1102 225 1175 135 1325 135 c 0
 1458 135 1567 219 1624 301 c 1
 1640 281 1651 248 1651 213 c 0
 1651 115 1526 -20 1245 -20 c 0
 997 -20 846 81 795 276 c 1
 776 276 l 1
 676 86 576 -20 375 -20 c 0
1139 578 m 2
 1342 578 1497 694 1497 866 c 0
 1497 950 1460 999 1397 999 c 0
 1264 999 1153 775 1120 578 c 1
 1139 578 l 2
504 143 m 0
 604 143 723 303 786 483 c 1
 813 624 860 776 944 889 c 1
 917 928 836 987 754 987 c 0
 516 987 393 579 393 352 c 0
 393 194 441 143 504 143 c 0
EndSplineSet
Substitution2: "'smcp' Lowercase to Small Capitals lookup 39 subtable" ae.sc
Substitution2: "'aalt' Access All Alternates lookup 0 subtable" ae.sc
EndChar

StartChar: ccedilla
Encoding: 231 231 169
Width: 1081
GlyphClass: 2
Flags: HW
AnchorPoint: "Anchor-3" 582 549 basechar 0
AnchorPoint: "Anchor-2" 1157 1098 basechar 0
AnchorPoint: "Anchor-1" 360 -492 basechar 0
AnchorPoint: "Anchor-0" 719 1098 basechar 0
LayerCount: 2
Fore
SplineSet
535 -20 m 2
 530 -20 l 1
 508 -70 l 1
 617 -84 690 -152 690 -240 c 0
 690 -416 512 -492 352 -492 c 0
 282 -492 219 -481 172 -465 c 1
 199 -344 l 1
 246 -354 295 -360 332 -360 c 0
 416 -360 483 -330 483 -256 c 0
 483 -203 424 -166 348 -162 c 1
 418 -10 l 1
 225 29 82 165 82 403 c 0
 82 706 314 1118 756 1118 c 0
 983 1118 1081 1018 1081 901 c 0
 1081 817 1011 729 831 729 c 1
 831 874 780 995 682 995 c 0
 506 995 395 610 395 399 c 0
 395 233 474 135 621 135 c 0
 766 135 850 221 907 303 c 1
 923 287 938 254 938 213 c 0
 938 107 816 -20 535 -20 c 2
EndSplineSet
Substitution2: "'smcp' Lowercase to Small Capitals lookup 39 subtable" ccedilla.sc
Substitution2: "'aalt' Access All Alternates lookup 0 subtable" ccedilla.sc
EndChar

StartChar: egrave
Encoding: 232 232 170
Width: 1095
GlyphClass: 2
Flags: HW
AnchorPoint: "Anchor-3" 584 549 basechar 0
AnchorPoint: "Anchor-2" 1171 1098 basechar 0
AnchorPoint: "Anchor-1" 473 0 basechar 0
AnchorPoint: "Anchor-0" 848 1569 basechar 0
LayerCount: 2
Fore
SplineSet
762 1241 m 1
 643 1311 485 1468 428 1548 c 1
 434 1569 l 1
 735 1569 l 1
 768 1471 844 1331 889 1268 c 1
 883 1241 l 1
 762 1241 l 1
539 -20 m 0
 289 -20 82 116 82 403 c 0
 82 708 323 1118 776 1118 c 0
 971 1118 1085 1029 1085 877 c 0
 1085 656 827 461 475 461 c 2
 399 461 l 1
 395 434 395 406 395 383 c 0
 395 225 468 135 618 135 c 0
 751 135 861 219 918 301 c 1
 934 281 944 248 944 213 c 0
 944 115 820 -20 539 -20 c 0
432 578 m 2
 635 578 791 690 791 862 c 0
 791 946 753 995 690 995 c 0
 557 995 447 775 414 578 c 1
 432 578 l 2
EndSplineSet
Substitution2: "'smcp' Lowercase to Small Capitals lookup 39 subtable" egrave.sc
Substitution2: "'aalt' Access All Alternates lookup 0 subtable" egrave.sc
EndChar

StartChar: eacute
Encoding: 233 233 171
Width: 1095
GlyphClass: 2
Flags: HW
AnchorPoint: "Anchor-3" 584 549 basechar 0
AnchorPoint: "Anchor-2" 1171 1098 basechar 0
AnchorPoint: "Anchor-1" 473 0 basechar 0
AnchorPoint: "Anchor-0" 848 1569 basechar 0
LayerCount: 2
Fore
SplineSet
627 1241 m 1
 633 1268 l 1
 709 1346 814 1477 877 1569 c 1
 1198 1569 l 1
 1192 1548 l 1
 1126 1476 911 1315 766 1241 c 1
 627 1241 l 1
539 -20 m 0
 289 -20 82 116 82 403 c 0
 82 708 323 1118 776 1118 c 0
 971 1118 1085 1029 1085 877 c 0
 1085 656 827 461 475 461 c 2
 399 461 l 1
 395 434 395 406 395 383 c 0
 395 225 468 135 618 135 c 0
 751 135 861 219 918 301 c 1
 934 281 944 248 944 213 c 0
 944 115 820 -20 539 -20 c 0
432 578 m 2
 635 578 791 690 791 862 c 0
 791 946 753 995 690 995 c 0
 557 995 447 775 414 578 c 1
 432 578 l 2
EndSplineSet
Substitution2: "'smcp' Lowercase to Small Capitals lookup 39 subtable" eacute.sc
Substitution2: "'aalt' Access All Alternates lookup 0 subtable" eacute.sc
EndChar

StartChar: ecircumflex
Encoding: 234 234 172
Width: 1095
GlyphClass: 2
Flags: HW
AnchorPoint: "Anchor-3" 584 549 basechar 0
AnchorPoint: "Anchor-2" 1171 1098 basechar 0
AnchorPoint: "Anchor-1" 473 0 basechar 0
AnchorPoint: "Anchor-0" 848 1569 basechar 0
LayerCount: 2
Fore
SplineSet
371 1268 m 1
 451 1346 584 1473 662 1569 c 1
 938 1569 l 1
 973 1485 1051 1346 1098 1268 c 1
 1092 1241 l 1
 963 1241 l 1
 916 1286 829 1370 780 1425 c 1
 706 1370 592 1286 524 1241 c 1
 365 1241 l 1
 371 1268 l 1
539 -20 m 0
 289 -20 82 116 82 403 c 0
 82 708 323 1118 776 1118 c 0
 971 1118 1085 1029 1085 877 c 0
 1085 656 827 461 475 461 c 2
 399 461 l 1
 395 434 395 406 395 383 c 0
 395 225 468 135 618 135 c 0
 751 135 861 219 918 301 c 1
 934 281 944 248 944 213 c 0
 944 115 820 -20 539 -20 c 0
432 578 m 2
 635 578 791 690 791 862 c 0
 791 946 753 995 690 995 c 0
 557 995 447 775 414 578 c 1
 432 578 l 2
EndSplineSet
Substitution2: "'smcp' Lowercase to Small Capitals lookup 39 subtable" ecircumflex.sc
Substitution2: "'aalt' Access All Alternates lookup 0 subtable" ecircumflex.sc
EndChar

StartChar: edieresis
Encoding: 235 235 173
Width: 1095
GlyphClass: 2
Flags: HW
AnchorPoint: "Anchor-3" 584 549 basechar 0
AnchorPoint: "Anchor-2" 1171 1098 basechar 0
AnchorPoint: "Anchor-1" 473 0 basechar 0
AnchorPoint: "Anchor-0" 846 1563 basechar 0
LayerCount: 2
Fore
SplineSet
954 1274 m 0
 878 1274 827 1315 827 1401 c 0
 827 1497 881 1563 965 1563 c 0
 1039 1563 1092 1522 1092 1436 c 0
 1092 1315 1020 1274 954 1274 c 0
498 1274 m 0
 422 1274 371 1315 371 1401 c 0
 371 1497 424 1563 508 1563 c 0
 582 1563 635 1522 635 1436 c 0
 635 1315 564 1274 498 1274 c 0
539 -20 m 0
 289 -20 82 116 82 403 c 0
 82 708 323 1118 776 1118 c 0
 971 1118 1085 1029 1085 877 c 0
 1085 656 827 461 475 461 c 2
 399 461 l 1
 395 434 395 406 395 383 c 0
 395 225 468 135 618 135 c 0
 751 135 861 219 918 301 c 1
 934 281 944 248 944 213 c 0
 944 115 820 -20 539 -20 c 0
432 578 m 2
 635 578 791 690 791 862 c 0
 791 946 753 995 690 995 c 0
 557 995 447 775 414 578 c 1
 432 578 l 2
EndSplineSet
Substitution2: "'smcp' Lowercase to Small Capitals lookup 39 subtable" edieresis.sc
Substitution2: "'aalt' Access All Alternates lookup 0 subtable" edieresis.sc
EndChar

StartChar: igrave
Encoding: 236 236 174
Width: 724
GlyphClass: 2
Flags: HW
AnchorPoint: "Anchor-3" 403 539 basechar 0
AnchorPoint: "Anchor-1" 246 0 basechar 0
AnchorPoint: "Anchor-0" 580 1569 basechar 0
LayerCount: 2
Fore
SplineSet
457 1241 m 1
 338 1311 180 1468 123 1548 c 1
 129 1569 l 1
 430 1569 l 1
 463 1471 539 1331 584 1268 c 1
 578 1241 l 1
 457 1241 l 1
379 -20 m 0
 223 -20 135 59 135 190 c 0
 135 247 145 330 168 434 c 2
 248 815 l 2
 275 926 279 989 154 989 c 2
 117 989 l 1
 135 1098 l 1
 621 1098 l 1
 479 432 l 2
 463 358 451 293 451 236 c 0
 451 177 477 143 522 143 c 0
 565 143 596 159 643 190 c 1
 692 121 l 1
 626 51 529 -20 379 -20 c 0
EndSplineSet
Substitution2: "'smcp' Lowercase to Small Capitals lookup 39 subtable" igrave.sc
Substitution2: "'aalt' Access All Alternates lookup 0 subtable" igrave.sc
EndChar

StartChar: iacute
Encoding: 237 237 175
Width: 724
GlyphClass: 2
Flags: HW
AnchorPoint: "Anchor-3" 403 539 basechar 0
AnchorPoint: "Anchor-1" 246 0 basechar 0
AnchorPoint: "Anchor-0" 580 1569 basechar 0
LayerCount: 2
Fore
SplineSet
338 1241 m 1
 344 1268 l 1
 420 1346 525 1477 588 1569 c 1
 909 1569 l 1
 903 1548 l 1
 837 1476 622 1315 477 1241 c 1
 338 1241 l 1
379 -20 m 0
 223 -20 135 59 135 190 c 0
 135 247 145 330 168 434 c 2
 248 815 l 2
 275 926 279 989 154 989 c 2
 117 989 l 1
 135 1098 l 1
 621 1098 l 1
 479 432 l 2
 463 358 451 293 451 236 c 0
 451 177 477 143 522 143 c 0
 565 143 596 159 643 190 c 1
 692 121 l 1
 626 51 529 -20 379 -20 c 0
EndSplineSet
Substitution2: "'smcp' Lowercase to Small Capitals lookup 39 subtable" iacute.sc
Substitution2: "'aalt' Access All Alternates lookup 0 subtable" iacute.sc
EndChar

StartChar: icircumflex
Encoding: 238 238 176
Width: 724
GlyphClass: 2
Flags: HW
AnchorPoint: "Anchor-3" 403 539 basechar 0
AnchorPoint: "Anchor-1" 246 0 basechar 0
AnchorPoint: "Anchor-0" 580 1569 basechar 0
LayerCount: 2
Fore
SplineSet
68 1268 m 1
 148 1346 280 1473 358 1569 c 1
 635 1569 l 1
 670 1485 748 1346 795 1268 c 1
 788 1241 l 1
 659 1241 l 1
 612 1286 526 1370 477 1425 c 1
 403 1370 289 1286 221 1241 c 1
 61 1241 l 1
 68 1268 l 1
379 -20 m 0
 223 -20 135 59 135 190 c 0
 135 247 145 330 168 434 c 2
 248 815 l 2
 275 926 279 989 154 989 c 2
 117 989 l 1
 135 1098 l 1
 621 1098 l 1
 479 432 l 2
 463 358 451 293 451 236 c 0
 451 177 477 143 522 143 c 0
 565 143 596 159 643 190 c 1
 692 121 l 1
 626 51 529 -20 379 -20 c 0
EndSplineSet
Substitution2: "'smcp' Lowercase to Small Capitals lookup 39 subtable" icircumflex.sc
Substitution2: "'aalt' Access All Alternates lookup 0 subtable" icircumflex.sc
EndChar

StartChar: idieresis
Encoding: 239 239 177
Width: 724
GlyphClass: 2
Flags: HW
AnchorPoint: "Anchor-3" 403 539 basechar 0
AnchorPoint: "Anchor-1" 246 0 basechar 0
AnchorPoint: "Anchor-0" 578 1563 basechar 0
LayerCount: 2
Fore
SplineSet
674 1274 m 0
 598 1274 547 1315 547 1401 c 0
 547 1497 600 1563 684 1563 c 0
 758 1563 811 1522 811 1436 c 0
 811 1315 740 1274 674 1274 c 0
217 1274 m 0
 141 1274 90 1315 90 1401 c 0
 90 1497 143 1563 227 1563 c 0
 301 1563 354 1522 354 1436 c 0
 354 1315 283 1274 217 1274 c 0
379 -20 m 0
 223 -20 135 59 135 190 c 0
 135 247 145 330 168 434 c 2
 248 815 l 2
 275 926 279 989 154 989 c 2
 117 989 l 1
 135 1098 l 1
 621 1098 l 1
 479 432 l 2
 463 358 451 293 451 236 c 0
 451 177 477 143 522 143 c 0
 565 143 596 159 643 190 c 1
 692 121 l 1
 626 51 529 -20 379 -20 c 0
EndSplineSet
Substitution2: "'smcp' Lowercase to Small Capitals lookup 39 subtable" idieresis.sc
Substitution2: "'aalt' Access All Alternates lookup 0 subtable" idieresis.sc
EndChar

StartChar: eth
Encoding: 240 240 178
Width: 1259
GlyphClass: 2
Flags: HW
AnchorPoint: "Anchor-3" 629 774 basechar 0
AnchorPoint: "Anchor-1" 514 0 basechar 0
AnchorPoint: "Anchor-0" 848 1571 basechar 0
LayerCount: 2
Fore
SplineSet
512 -20 m 0
 260 -20 82 119 82 410 c 0
 82 662 272 1051 692 1051 c 0
 760 1051 827 1030 870 995 c 1
 852 1097 809 1185 743 1257 c 1
 420 1110 l 1
 449 1253 l 1
 645 1343 l 1
 582 1386 510 1421 428 1446 c 1
 467 1571 l 1
 592 1542 709 1491 811 1421 c 1
 1114 1561 l 1
 1083 1415 l 1
 913 1337 l 1
 1073 1185 1178 972 1178 700 c 0
 1178 344 973 -20 512 -20 c 0
559 127 m 0
 780 127 864 467 864 670 c 0
 864 836 804 909 700 909 c 0
 477 909 393 575 393 393 c 0
 393 200 444 127 559 127 c 0
EndSplineSet
Substitution2: "'smcp' Lowercase to Small Capitals lookup 39 subtable" eth.sc
Substitution2: "'aalt' Access All Alternates lookup 0 subtable" eth.sc
EndChar

StartChar: ntilde
Encoding: 241 241 179
Width: 1376
GlyphClass: 2
Flags: HW
AnchorPoint: "Anchor-3" 709 549 basechar 0
AnchorPoint: "Anchor-2" 1452 1098 basechar 0
AnchorPoint: "Anchor-1" 571 0 basechar 0
AnchorPoint: "Anchor-0" 903 1565 basechar 0
LayerCount: 2
Fore
SplineSet
950 1241 m 0
 803 1241 723 1370 635 1370 c 0
 578 1370 532 1317 522 1262 c 1
 399 1262 l 1
 424 1387 529 1565 676 1565 c 0
 821 1565 895 1436 981 1436 c 0
 1051 1436 1080 1489 1094 1544 c 1
 1217 1544 l 1
 1188 1413 1095 1241 950 1241 c 0
1030 -20 m 0
 874 -20 786 59 786 190 c 0
 786 247 796 330 819 434 c 2
 852 596 l 2
 862 649 889 757 889 825 c 0
 889 876 875 942 803 942 c 0
 664 942 522 635 487 475 c 2
 383 0 l 1
 76 0 l 1
 248 815 l 2
 256 850 262 893 262 903 c 0
 262 977 232 989 154 989 c 2
 117 989 l 1
 135 1098 l 1
 590 1098 l 1
 567 879 l 1
 580 879 l 1
 684 1043 797 1118 979 1118 c 0
 1153 1118 1212 1008 1212 883 c 0
 1212 813 1190 723 1176 651 c 2
 1130 432 l 2
 1114 358 1102 293 1102 236 c 0
 1102 177 1129 143 1174 143 c 0
 1217 143 1247 159 1294 190 c 1
 1343 121 l 1
 1277 51 1180 -20 1030 -20 c 0
EndSplineSet
Substitution2: "'smcp' Lowercase to Small Capitals lookup 39 subtable" ntilde.sc
Substitution2: "'aalt' Access All Alternates lookup 0 subtable" ntilde.sc
EndChar

StartChar: ograve
Encoding: 242 242 180
Width: 1265
GlyphClass: 2
Flags: HW
AnchorPoint: "Anchor-3" 750 549 basechar 0
AnchorPoint: "Anchor-2" 1341 1098 basechar 0
AnchorPoint: "Anchor-1" 516 0 basechar 0
AnchorPoint: "Anchor-0" 850 1569 basechar 0
LayerCount: 2
Fore
SplineSet
758 1241 m 1
 639 1311 481 1468 424 1548 c 1
 430 1569 l 1
 731 1569 l 1
 764 1471 840 1331 885 1268 c 1
 879 1241 l 1
 758 1241 l 1
516 -20 m 0
 260 -20 82 121 82 410 c 0
 82 717 295 1118 754 1118 c 0
 990 1118 1182 993 1182 688 c 0
 1182 393 979 -20 516 -20 c 0
553 127 m 0
 772 127 870 537 870 754 c 0
 870 916 811 981 715 981 c 0
 506 981 395 589 395 360 c 0
 395 192 455 127 553 127 c 0
EndSplineSet
Substitution2: "'smcp' Lowercase to Small Capitals lookup 39 subtable" ograve.sc
Substitution2: "'aalt' Access All Alternates lookup 0 subtable" ograve.sc
EndChar

StartChar: oacute
Encoding: 243 243 181
Width: 1265
GlyphClass: 2
Flags: HW
AnchorPoint: "Anchor-3" 750 549 basechar 0
AnchorPoint: "Anchor-2" 1341 1098 basechar 0
AnchorPoint: "Anchor-1" 516 0 basechar 0
AnchorPoint: "Anchor-0" 850 1569 basechar 0
LayerCount: 2
Fore
SplineSet
668 1241 m 1
 674 1268 l 1
 750 1346 855 1477 918 1569 c 1
 1239 1569 l 1
 1233 1548 l 1
 1167 1476 952 1315 807 1241 c 1
 668 1241 l 1
516 -20 m 0
 260 -20 82 121 82 410 c 0
 82 717 295 1118 754 1118 c 0
 990 1118 1182 993 1182 688 c 0
 1182 393 979 -20 516 -20 c 0
553 127 m 0
 772 127 870 537 870 754 c 0
 870 916 811 981 715 981 c 0
 506 981 395 589 395 360 c 0
 395 192 455 127 553 127 c 0
EndSplineSet
Substitution2: "'smcp' Lowercase to Small Capitals lookup 39 subtable" oacute.sc
Substitution2: "'aalt' Access All Alternates lookup 0 subtable" oacute.sc
EndChar

StartChar: ocircumflex
Encoding: 244 244 182
Width: 1265
GlyphClass: 2
Flags: HW
AnchorPoint: "Anchor-3" 750 549 basechar 0
AnchorPoint: "Anchor-2" 1341 1098 basechar 0
AnchorPoint: "Anchor-1" 516 0 basechar 0
AnchorPoint: "Anchor-0" 850 1569 basechar 0
LayerCount: 2
Fore
SplineSet
408 1268 m 1
 488 1346 620 1473 698 1569 c 1
 975 1569 l 1
 1010 1485 1088 1346 1135 1268 c 1
 1128 1241 l 1
 999 1241 l 1
 952 1286 866 1370 817 1425 c 1
 743 1370 629 1286 561 1241 c 1
 401 1241 l 1
 408 1268 l 1
516 -20 m 0
 260 -20 82 121 82 410 c 0
 82 717 295 1118 754 1118 c 0
 990 1118 1182 993 1182 688 c 0
 1182 393 979 -20 516 -20 c 0
553 127 m 0
 772 127 870 537 870 754 c 0
 870 916 811 981 715 981 c 0
 506 981 395 589 395 360 c 0
 395 192 455 127 553 127 c 0
EndSplineSet
Substitution2: "'smcp' Lowercase to Small Capitals lookup 39 subtable" ocircumflex.sc
Substitution2: "'aalt' Access All Alternates lookup 0 subtable" ocircumflex.sc
EndChar

StartChar: otilde
Encoding: 245 245 183
Width: 1265
GlyphClass: 2
Flags: HW
AnchorPoint: "Anchor-3" 750 549 basechar 0
AnchorPoint: "Anchor-2" 1341 1098 basechar 0
AnchorPoint: "Anchor-1" 516 0 basechar 0
AnchorPoint: "Anchor-0" 848 1565 basechar 0
LayerCount: 2
Fore
SplineSet
948 1241 m 0
 801 1241 721 1370 633 1370 c 0
 576 1370 530 1317 520 1262 c 1
 397 1262 l 1
 422 1387 527 1565 674 1565 c 0
 819 1565 893 1436 979 1436 c 0
 1049 1436 1078 1489 1092 1544 c 1
 1214 1544 l 1
 1185 1413 1093 1241 948 1241 c 0
516 -20 m 0
 260 -20 82 121 82 410 c 0
 82 717 295 1118 754 1118 c 0
 990 1118 1182 993 1182 688 c 0
 1182 393 979 -20 516 -20 c 0
553 127 m 0
 772 127 870 537 870 754 c 0
 870 916 811 981 715 981 c 0
 506 981 395 589 395 360 c 0
 395 192 455 127 553 127 c 0
EndSplineSet
Substitution2: "'smcp' Lowercase to Small Capitals lookup 39 subtable" otilde.sc
Substitution2: "'aalt' Access All Alternates lookup 0 subtable" otilde.sc
EndChar

StartChar: odieresis
Encoding: 246 246 184
Width: 1265
GlyphClass: 2
Flags: HW
AnchorPoint: "Anchor-3" 750 549 basechar 0
AnchorPoint: "Anchor-2" 1341 1098 basechar 0
AnchorPoint: "Anchor-1" 516 0 basechar 0
AnchorPoint: "Anchor-0" 848 1563 basechar 0
LayerCount: 2
Fore
SplineSet
1010 1274 m 0
 934 1274 883 1315 883 1401 c 0
 883 1497 936 1563 1020 1563 c 0
 1094 1563 1147 1522 1147 1436 c 0
 1147 1315 1076 1274 1010 1274 c 0
553 1274 m 0
 477 1274 426 1315 426 1401 c 0
 426 1497 479 1563 563 1563 c 0
 637 1563 690 1522 690 1436 c 0
 690 1315 619 1274 553 1274 c 0
516 -20 m 0
 260 -20 82 121 82 410 c 0
 82 717 295 1118 754 1118 c 0
 990 1118 1182 993 1182 688 c 0
 1182 393 979 -20 516 -20 c 0
553 127 m 0
 772 127 870 537 870 754 c 0
 870 916 811 981 715 981 c 0
 506 981 395 589 395 360 c 0
 395 192 455 127 553 127 c 0
EndSplineSet
Substitution2: "'smcp' Lowercase to Small Capitals lookup 39 subtable" odieresis.sc
Substitution2: "'aalt' Access All Alternates lookup 0 subtable" odieresis.sc
EndChar

StartChar: divide
Encoding: 247 247 185
Width: 1144
GlyphClass: 1
Flags: HW
LayerCount: 2
Fore
SplineSet
573 995 m 0
 507 995 459 1028 459 1120 c 0
 459 1214 507 1245 573 1245 c 0
 636 1245 688 1214 688 1120 c 0
 688 1028 636 995 573 995 c 0
133 659 m 1
 133 805 l 1
 1012 805 l 1
 1012 659 l 1
 133 659 l 1
573 219 m 0
 507 219 459 252 459 344 c 0
 459 438 507 469 573 469 c 0
 636 469 688 438 688 344 c 0
 688 252 636 219 573 219 c 0
EndSplineSet
EndChar

StartChar: oslash
Encoding: 248 248 186
Width: 1265
GlyphClass: 2
Flags: HW
AnchorPoint: "Anchor-3" 750 549 basechar 0
AnchorPoint: "Anchor-2" 1341 1098 basechar 0
AnchorPoint: "Anchor-1" 516 0 basechar 0
AnchorPoint: "Anchor-0" 750 1098 basechar 0
LayerCount: 2
Fore
SplineSet
27 -102 m 1
 188 100 l 1
 120 172 82 275 82 410 c 0
 82 717 295 1118 754 1118 c 0
 830 1118 904 1106 965 1077 c 1
 1063 1200 l 1
 1217 1200 l 1
 1065 1010 l 1
 1137 940 1182 835 1182 688 c 0
 1182 393 979 -20 516 -20 c 0
 430 -20 353 -4 287 29 c 1
 182 -102 l 1
 27 -102 l 1
715 981 m 0
 506 981 395 589 395 360 c 1
 838 915 l 1
 809 960 768 981 715 981 c 0
553 127 m 0
 772 127 870 537 870 754 c 2
 870 764 l 1
 424 203 l 1
 451 150 496 127 553 127 c 0
EndSplineSet
Substitution2: "'smcp' Lowercase to Small Capitals lookup 39 subtable" oslash.sc
Substitution2: "'aalt' Access All Alternates lookup 0 subtable" oslash.sc
EndChar

StartChar: ugrave
Encoding: 249 249 187
Width: 1378
GlyphClass: 2
Flags: HW
AnchorPoint: "Anchor-3" 731 539 basechar 0
AnchorPoint: "Anchor-2" 1454 1098 basechar 0
AnchorPoint: "Anchor-1" 573 0 basechar 0
AnchorPoint: "Anchor-0" 907 1569 basechar 0
LayerCount: 2
Fore
SplineSet
782 1241 m 1
 663 1311 506 1468 449 1548 c 1
 455 1569 l 1
 756 1569 l 1
 789 1471 864 1331 909 1268 c 1
 903 1241 l 1
 782 1241 l 1
1032 -20 m 0
 852 -20 793 67 793 176 c 0
 793 199 799 246 803 266 c 1
 786 266 l 1
 665 96 564 -18 369 -18 c 0
 193 -18 135 88 135 209 c 0
 135 277 156 364 170 434 c 2
 244 795 l 2
 254 850 262 899 262 922 c 0
 262 977 232 989 154 989 c 2
 117 989 l 1
 135 1098 l 1
 627 1098 l 1
 492 485 l 2
 478 419 457 319 457 268 c 0
 457 209 479 170 545 170 c 0
 664 170 811 409 858 616 c 2
 967 1098 l 1
 1272 1098 l 1
 1133 432 l 2
 1117 358 1104 293 1104 236 c 0
 1104 177 1131 143 1176 143 c 0
 1219 143 1249 159 1296 190 c 1
 1346 121 l 1
 1280 51 1182 -20 1032 -20 c 0
EndSplineSet
Substitution2: "'smcp' Lowercase to Small Capitals lookup 39 subtable" ugrave.sc
Substitution2: "'aalt' Access All Alternates lookup 0 subtable" ugrave.sc
EndChar

StartChar: uacute
Encoding: 250 250 188
Width: 1378
GlyphClass: 2
Flags: HW
AnchorPoint: "Anchor-3" 731 539 basechar 0
AnchorPoint: "Anchor-2" 1454 1098 basechar 0
AnchorPoint: "Anchor-1" 573 0 basechar 0
AnchorPoint: "Anchor-0" 907 1569 basechar 0
LayerCount: 2
Fore
SplineSet
682 1241 m 1
 688 1268 l 1
 764 1346 869 1477 932 1569 c 1
 1253 1569 l 1
 1247 1548 l 1
 1181 1476 966 1315 821 1241 c 1
 682 1241 l 1
1032 -20 m 0
 852 -20 793 67 793 176 c 0
 793 199 799 246 803 266 c 1
 786 266 l 1
 665 96 564 -18 369 -18 c 0
 193 -18 135 88 135 209 c 0
 135 277 156 364 170 434 c 2
 244 795 l 2
 254 850 262 899 262 922 c 0
 262 977 232 989 154 989 c 2
 117 989 l 1
 135 1098 l 1
 627 1098 l 1
 492 485 l 2
 478 419 457 319 457 268 c 0
 457 209 479 170 545 170 c 0
 664 170 811 409 858 616 c 2
 967 1098 l 1
 1272 1098 l 1
 1133 432 l 2
 1117 358 1104 293 1104 236 c 0
 1104 177 1131 143 1176 143 c 0
 1219 143 1249 159 1296 190 c 1
 1346 121 l 1
 1280 51 1182 -20 1032 -20 c 0
EndSplineSet
Substitution2: "'smcp' Lowercase to Small Capitals lookup 39 subtable" uacute.sc
Substitution2: "'aalt' Access All Alternates lookup 0 subtable" uacute.sc
EndChar

StartChar: ucircumflex
Encoding: 251 251 189
Width: 1378
GlyphClass: 2
Flags: HW
AnchorPoint: "Anchor-3" 731 539 basechar 0
AnchorPoint: "Anchor-2" 1454 1098 basechar 0
AnchorPoint: "Anchor-1" 573 0 basechar 0
AnchorPoint: "Anchor-0" 907 1569 basechar 0
LayerCount: 2
Fore
SplineSet
451 1268 m 1
 531 1346 663 1473 741 1569 c 1
 1018 1569 l 1
 1053 1485 1131 1346 1178 1268 c 1
 1171 1241 l 1
 1042 1241 l 1
 995 1286 909 1370 860 1425 c 1
 786 1370 672 1286 604 1241 c 1
 444 1241 l 1
 451 1268 l 1
1032 -20 m 0
 852 -20 793 67 793 176 c 0
 793 199 799 246 803 266 c 1
 786 266 l 1
 665 96 564 -18 369 -18 c 0
 193 -18 135 88 135 209 c 0
 135 277 156 364 170 434 c 2
 244 795 l 2
 254 850 262 899 262 922 c 0
 262 977 232 989 154 989 c 2
 117 989 l 1
 135 1098 l 1
 627 1098 l 1
 492 485 l 2
 478 419 457 319 457 268 c 0
 457 209 479 170 545 170 c 0
 664 170 811 409 858 616 c 2
 967 1098 l 1
 1272 1098 l 1
 1133 432 l 2
 1117 358 1104 293 1104 236 c 0
 1104 177 1131 143 1176 143 c 0
 1219 143 1249 159 1296 190 c 1
 1346 121 l 1
 1280 51 1182 -20 1032 -20 c 0
EndSplineSet
Substitution2: "'smcp' Lowercase to Small Capitals lookup 39 subtable" ucircumflex.sc
Substitution2: "'aalt' Access All Alternates lookup 0 subtable" ucircumflex.sc
EndChar

StartChar: udieresis
Encoding: 252 252 190
Width: 1378
GlyphClass: 2
Flags: HW
AnchorPoint: "Anchor-3" 731 539 basechar 0
AnchorPoint: "Anchor-2" 1454 1098 basechar 0
AnchorPoint: "Anchor-1" 573 0 basechar 0
AnchorPoint: "Anchor-0" 905 1563 basechar 0
LayerCount: 2
Fore
SplineSet
1081 1274 m 0
 1005 1274 954 1315 954 1401 c 0
 954 1497 1008 1563 1092 1563 c 0
 1166 1563 1219 1522 1219 1436 c 0
 1219 1315 1147 1274 1081 1274 c 0
625 1274 m 0
 549 1274 498 1315 498 1401 c 0
 498 1497 551 1563 635 1563 c 0
 709 1563 762 1522 762 1436 c 0
 762 1315 691 1274 625 1274 c 0
1032 -20 m 0
 852 -20 793 67 793 176 c 0
 793 199 799 246 803 266 c 1
 786 266 l 1
 665 96 564 -18 369 -18 c 0
 193 -18 135 88 135 209 c 0
 135 277 156 364 170 434 c 2
 244 795 l 2
 254 850 262 899 262 922 c 0
 262 977 232 989 154 989 c 2
 117 989 l 1
 135 1098 l 1
 627 1098 l 1
 492 485 l 2
 478 419 457 319 457 268 c 0
 457 209 479 170 545 170 c 0
 664 170 811 409 858 616 c 2
 967 1098 l 1
 1272 1098 l 1
 1133 432 l 2
 1117 358 1104 293 1104 236 c 0
 1104 177 1131 143 1176 143 c 0
 1219 143 1249 159 1296 190 c 1
 1346 121 l 1
 1280 51 1182 -20 1032 -20 c 0
EndSplineSet
Substitution2: "'smcp' Lowercase to Small Capitals lookup 39 subtable" udieresis.sc
Substitution2: "'aalt' Access All Alternates lookup 0 subtable" udieresis.sc
EndChar

StartChar: yacute
Encoding: 253 253 191
Width: 1200
GlyphClass: 2
Flags: HW
AnchorPoint: "Anchor-3" 395 313 basechar 0
AnchorPoint: "Anchor-2" 1214 1098 basechar 0
AnchorPoint: "Anchor-1" 113 -492 basechar 0
AnchorPoint: "Anchor-0" 735 1569 basechar 0
LayerCount: 2
Fore
SplineSet
502 1241 m 1
 508 1268 l 1
 584 1346 689 1477 752 1569 c 1
 1073 1569 l 1
 1067 1548 l 1
 1001 1476 786 1315 641 1241 c 1
 502 1241 l 1
-131 -492 m 0
 -209 -492 -287 -478 -344 -455 c 1
 -313 -340 l 1
 -280 -350 -223 -367 -139 -367 c 0
 111 -367 271 -225 416 -53 c 1
 160 881 l 2
 137 963 98 989 18 989 c 2
 -2 989 l 1
 23 1098 l 1
 424 1098 l 1
 559 567 l 2
 586 461 621 263 627 195 c 1
 633 195 l 1
 795 414 930 645 930 801 c 0
 930 893 883 942 803 942 c 1
 803 1048 875 1118 967 1118 c 0
 1078 1118 1135 1053 1135 944 c 0
 1135 731 988 471 748 137 c 0
 451 -279 289 -492 -131 -492 c 0
EndSplineSet
Substitution2: "'smcp' Lowercase to Small Capitals lookup 39 subtable" yacute.sc
Substitution2: "'aalt' Access All Alternates lookup 0 subtable" yacute.sc
EndChar

StartChar: thorn
Encoding: 254 254 192
Width: 1275
GlyphClass: 2
Flags: HW
AnchorPoint: "Anchor-3" 565 532 basechar 0
AnchorPoint: "Anchor-1" 418 -492 basechar 0
AnchorPoint: "Anchor-0" 854 1556 basechar 0
LayerCount: 2
Fore
SplineSet
315 1274 m 2
 323 1309 330 1352 330 1362 c 0
 330 1436 299 1448 221 1448 c 2
 174 1448 l 1
 193 1556 l 1
 690 1556 l 1
 608 1167 l 2
 592 1089 512 882 492 825 c 1
 506 825 l 1
 600 997 692 1118 895 1118 c 0
 1075 1118 1194 988 1194 748 c 0
 1194 453 985 -20 559 -20 c 0
 477 -20 403 -2 350 27 c 1
 348 4 342 -39 334 -72 c 2
 305 -209 l 2
 297 -244 291 -287 291 -297 c 0
 291 -371 321 -383 399 -383 c 2
 477 -383 l 1
 459 -492 l 1
 -61 -492 l 1
 315 1274 l 2
537 111 m 0
 758 111 885 502 885 733 c 0
 885 844 860 954 774 954 c 0
 637 954 502 699 469 535 c 2
 391 168 l 1
 416 143 474 111 537 111 c 0
EndSplineSet
Substitution2: "'smcp' Lowercase to Small Capitals lookup 39 subtable" thorn.sc
Substitution2: "'aalt' Access All Alternates lookup 0 subtable" thorn.sc
EndChar

StartChar: ydieresis
Encoding: 255 255 193
Width: 1200
GlyphClass: 2
Flags: HW
AnchorPoint: "Anchor-3" 395 313 basechar 0
AnchorPoint: "Anchor-2" 1214 1098 basechar 0
AnchorPoint: "Anchor-1" 113 -492 basechar 0
AnchorPoint: "Anchor-0" 733 1563 basechar 0
LayerCount: 2
Fore
SplineSet
874 1274 m 0
 798 1274 748 1315 748 1401 c 0
 748 1497 801 1563 885 1563 c 0
 959 1563 1012 1522 1012 1436 c 0
 1012 1315 940 1274 874 1274 c 0
418 1274 m 0
 342 1274 291 1315 291 1401 c 0
 291 1497 344 1563 428 1563 c 0
 502 1563 555 1522 555 1436 c 0
 555 1315 484 1274 418 1274 c 0
-131 -492 m 0
 -209 -492 -287 -478 -344 -455 c 1
 -313 -340 l 1
 -280 -350 -223 -367 -139 -367 c 0
 111 -367 271 -225 416 -53 c 1
 160 881 l 2
 137 963 98 989 18 989 c 2
 -2 989 l 1
 23 1098 l 1
 424 1098 l 1
 559 567 l 2
 586 461 621 263 627 195 c 1
 633 195 l 1
 795 414 930 645 930 801 c 0
 930 893 883 942 803 942 c 1
 803 1048 875 1118 967 1118 c 0
 1078 1118 1135 1053 1135 944 c 0
 1135 731 988 471 748 137 c 0
 451 -279 289 -492 -131 -492 c 0
EndSplineSet
Substitution2: "'smcp' Lowercase to Small Capitals lookup 39 subtable" ydieresis.sc
Substitution2: "'aalt' Access All Alternates lookup 0 subtable" ydieresis.sc
EndChar

StartChar: Amacron
Encoding: 256 256 194
Width: 1542
GlyphClass: 2
Flags: HW
AnchorPoint: "Anchor-3" 678 731 basechar 0
AnchorPoint: "Anchor-2" 1696 1462 basechar 0
AnchorPoint: "Anchor-1" 655 0 basechar 0
AnchorPoint: "Anchor-0" 1026 1741 basechar 0
LayerCount: 2
Fore
SplineSet
690 1579 m 1
 725 1741 l 1
 1319 1741 l 1
 1284 1579 l 1
 690 1579 l 1
-100 0 m 1
 -78 109 l 1
 -35 109 l 2
 41 109 71 139 147 268 c 2
 842 1462 l 1
 1122 1462 l 1
 1294 256 l 2
 1306 170 1335 109 1419 109 c 2
 1456 109 l 1
 1434 0 l 1
 758 0 l 1
 780 109 l 1
 827 109 l 2
 915 109 971 136 971 195 c 0
 971 218 969 240 967 260 c 2
 940 481 l 1
 440 481 l 1
 338 297 l 2
 311 248 299 211 299 182 c 0
 299 131 336 109 414 109 c 2
 455 109 l 1
 432 0 l 1
 -100 0 l 1
711 969 m 2
 510 606 l 1
 926 606 l 1
 885 950 l 2
 873 1071 860 1157 858 1255 c 1
 817 1157 783 1096 711 969 c 2
EndSplineSet
Substitution2: "'c2sc' Capitals to Small Capitals lookup 38 subtable" amacron.sc
Substitution2: "'aalt' Access All Alternates lookup 0 subtable" amacron.sc
Position2: "'cpsp' Capital Spacing lookup 0 subtable" dx=10 dy=0 dh=20 dv=0
EndChar

StartChar: amacron
Encoding: 257 257 195
Width: 1361
GlyphClass: 2
Flags: HW
AnchorPoint: "Anchor-3" 686 549 basechar 0
AnchorPoint: "Anchor-2" 1438 1098 basechar 0
AnchorPoint: "Anchor-1" 565 0 basechar 0
AnchorPoint: "Anchor-0" 864 1403 basechar 0
LayerCount: 2
Fore
SplineSet
461 1241 m 1
 496 1403 l 1
 1090 1403 l 1
 1055 1241 l 1
 461 1241 l 1
375 -20 m 0
 180 -20 82 141 82 354 c 0
 82 673 309 1118 725 1118 c 0
 831 1118 953 1082 1014 1047 c 1
 1122 1096 l 1
 1231 1096 l 1
 1096 457 l 2
 1086 412 1061 295 1061 242 c 0
 1061 174 1090 141 1133 141 c 0
 1172 141 1204 159 1247 184 c 1
 1292 102 l 1
 1222 49 1116 -20 969 -20 c 0
 848 -20 768 37 768 143 c 0
 768 186 772 223 782 276 c 1
 768 276 l 1
 668 86 576 -20 375 -20 c 0
504 143 m 0
 625 143 768 371 813 590 c 2
 885 930 l 1
 858 969 807 987 754 987 c 0
 516 987 393 579 393 352 c 0
 393 194 441 143 504 143 c 0
EndSplineSet
Substitution2: "'smcp' Lowercase to Small Capitals lookup 39 subtable" amacron.sc
Substitution2: "'aalt' Access All Alternates lookup 0 subtable" amacron.sc
EndChar

StartChar: Abreve
Encoding: 258 258 196
Width: 1542
GlyphClass: 2
Flags: HW
AnchorPoint: "Anchor-3" 678 731 basechar 0
AnchorPoint: "Anchor-2" 1696 1462 basechar 0
AnchorPoint: "Anchor-1" 655 0 basechar 0
AnchorPoint: "Anchor-0" 1059 1901 basechar 0
LayerCount: 2
Fore
SplineSet
991 1579 m 0
 811 1579 719 1708 707 1901 c 1
 842 1901 l 1
 852 1807 918 1761 1014 1761 c 0
 1112 1761 1188 1803 1229 1901 c 1
 1356 1901 l 1
 1315 1743 1188 1579 991 1579 c 0
-100 0 m 1
 -78 109 l 1
 -35 109 l 2
 41 109 71 139 147 268 c 2
 842 1462 l 1
 1122 1462 l 1
 1294 256 l 2
 1306 170 1335 109 1419 109 c 2
 1456 109 l 1
 1434 0 l 1
 758 0 l 1
 780 109 l 1
 827 109 l 2
 915 109 971 136 971 195 c 0
 971 218 969 240 967 260 c 2
 940 481 l 1
 440 481 l 1
 338 297 l 2
 311 248 299 211 299 182 c 0
 299 131 336 109 414 109 c 2
 455 109 l 1
 432 0 l 1
 -100 0 l 1
711 969 m 2
 510 606 l 1
 926 606 l 1
 885 950 l 2
 873 1071 860 1157 858 1255 c 1
 817 1157 783 1096 711 969 c 2
EndSplineSet
Substitution2: "'c2sc' Capitals to Small Capitals lookup 38 subtable" abreve.sc
Substitution2: "'aalt' Access All Alternates lookup 0 subtable" abreve.sc
Position2: "'cpsp' Capital Spacing lookup 0 subtable" dx=10 dy=0 dh=20 dv=0
EndChar

StartChar: abreve
Encoding: 259 259 197
Width: 1361
GlyphClass: 2
Flags: HW
AnchorPoint: "Anchor-3" 686 549 basechar 0
AnchorPoint: "Anchor-2" 1438 1098 basechar 0
AnchorPoint: "Anchor-1" 565 0 basechar 0
AnchorPoint: "Anchor-0" 897 1563 basechar 0
LayerCount: 2
Fore
SplineSet
760 1241 m 0
 580 1241 487 1370 475 1563 c 1
 610 1563 l 1
 620 1469 686 1423 782 1423 c 0
 880 1423 956 1465 997 1563 c 1
 1124 1563 l 1
 1083 1405 957 1241 760 1241 c 0
375 -20 m 0
 180 -20 82 141 82 354 c 0
 82 673 309 1118 725 1118 c 0
 831 1118 953 1082 1014 1047 c 1
 1122 1096 l 1
 1231 1096 l 1
 1096 457 l 2
 1086 412 1061 295 1061 242 c 0
 1061 174 1090 141 1133 141 c 0
 1172 141 1204 159 1247 184 c 1
 1292 102 l 1
 1222 49 1116 -20 969 -20 c 0
 848 -20 768 37 768 143 c 0
 768 186 772 223 782 276 c 1
 768 276 l 1
 668 86 576 -20 375 -20 c 0
504 143 m 0
 625 143 768 371 813 590 c 2
 885 930 l 1
 858 969 807 987 754 987 c 0
 516 987 393 579 393 352 c 0
 393 194 441 143 504 143 c 0
EndSplineSet
Substitution2: "'smcp' Lowercase to Small Capitals lookup 39 subtable" abreve.sc
Substitution2: "'aalt' Access All Alternates lookup 0 subtable" abreve.sc
EndChar

StartChar: Aogonek
Encoding: 260 260 198
Width: 1542
GlyphClass: 2
Flags: HW
AnchorPoint: "Anchor-3" 678 731 basechar 0
AnchorPoint: "Anchor-2" 1696 1462 basechar 0
AnchorPoint: "Anchor-1" 532 0 basechar 0
AnchorPoint: "Anchor-0" 967 1462 basechar 0
LayerCount: 2
Fore
SplineSet
-100 0 m 1
 -78 109 l 1
 -35 109 l 2
 41 109 71 139 147 268 c 2
 842 1462 l 1
 1122 1462 l 1
 1294 256 l 2
 1306 170 1335 109 1419 109 c 2
 1456 109 l 1
 1434 0 l 1
 1255 0 l 1
 1161 -27 1012 -107 1012 -240 c 0
 1012 -303 1058 -344 1128 -344 c 0
 1165 -344 1211 -338 1262 -328 c 1
 1235 -459 l 1
 1184 -479 1120 -492 1057 -492 c 0
 893 -492 795 -418 795 -283 c 0
 795 -136 920 -41 1098 0 c 1
 758 0 l 1
 780 109 l 1
 827 109 l 2
 915 109 971 136 971 195 c 0
 971 218 969 240 967 260 c 2
 940 481 l 1
 440 481 l 1
 338 297 l 2
 311 248 299 211 299 182 c 0
 299 131 336 109 414 109 c 2
 455 109 l 1
 432 0 l 1
 -100 0 l 1
711 969 m 2
 510 606 l 1
 926 606 l 1
 885 950 l 2
 873 1071 860 1157 858 1255 c 1
 817 1157 783 1096 711 969 c 2
EndSplineSet
Substitution2: "'c2sc' Capitals to Small Capitals lookup 38 subtable" aogonek.sc
Substitution2: "'locl' Localized Forms in Latin lookup 6 subtable" Aogonek.loclNAV
AlternateSubs2: "'aalt' Access All Alternates lookup 1 subtable" Aogonek.loclNAV aogonek.sc
Position2: "'cpsp' Capital Spacing lookup 0 subtable" dx=10 dy=0 dh=20 dv=0
EndChar

StartChar: aogonek
Encoding: 261 261 199
Width: 1361
GlyphClass: 2
Flags: HW
AnchorPoint: "Anchor-3" 686 549 basechar 0
AnchorPoint: "Anchor-2" 1438 1098 basechar 0
AnchorPoint: "Anchor-1" 360 0 basechar 0
AnchorPoint: "Anchor-0" 799 1098 basechar 0
LayerCount: 2
Fore
SplineSet
375 -20 m 0
 180 -20 82 141 82 354 c 0
 82 673 309 1118 725 1118 c 0
 831 1118 953 1082 1014 1047 c 1
 1122 1096 l 1
 1231 1096 l 1
 1096 457 l 2
 1086 412 1061 295 1061 242 c 0
 1061 174 1090 141 1133 141 c 0
 1172 141 1204 159 1247 184 c 1
 1292 102 l 1
 1243 65 1178 21 1092 -4 c 0
 998 -33 860 -113 860 -240 c 0
 860 -303 907 -344 977 -344 c 0
 1014 -344 1059 -338 1110 -328 c 1
 1083 -459 l 1
 1032 -479 968 -492 905 -492 c 0
 741 -492 643 -418 643 -283 c 0
 643 -150 745 -59 897 -12 c 1
 817 6 768 59 768 143 c 0
 768 186 772 223 782 276 c 1
 768 276 l 1
 668 86 576 -20 375 -20 c 0
504 143 m 0
 625 143 768 371 813 590 c 2
 885 930 l 1
 858 969 807 987 754 987 c 0
 516 987 393 579 393 352 c 0
 393 194 441 143 504 143 c 0
EndSplineSet
Substitution2: "'smcp' Lowercase to Small Capitals lookup 39 subtable" aogonek.sc
Substitution2: "'locl' Localized Forms in Latin lookup 6 subtable" aogonek.loclNAV
AlternateSubs2: "'aalt' Access All Alternates lookup 1 subtable" aogonek.loclNAV aogonek.sc
EndChar

StartChar: Cacute
Encoding: 262 262 200
Width: 1368
GlyphClass: 2
Flags: HW
AnchorPoint: "Anchor-3" 784 735 basechar 0
AnchorPoint: "Anchor-2" 1522 1462 basechar 0
AnchorPoint: "Anchor-1" 711 0 basechar 0
AnchorPoint: "Anchor-0" 1116 1907 basechar 0
LayerCount: 2
Fore
SplineSet
922 1579 m 1
 928 1606 l 1
 1004 1684 1108 1815 1171 1907 c 1
 1493 1907 l 1
 1487 1886 l 1
 1421 1814 1206 1653 1061 1579 c 1
 922 1579 l 1
750 -20 m 0
 359 -20 129 180 129 530 c 0
 129 1022 487 1491 1034 1491 c 0
 1306 1491 1440 1394 1440 1247 c 0
 1440 1128 1317 1063 1151 1063 c 1
 1151 1178 1129 1360 977 1360 c 0
 655 1360 469 880 469 518 c 0
 469 285 587 152 823 152 c 0
 1011 152 1124 246 1192 338 c 1
 1208 326 1227 299 1227 268 c 0
 1227 131 1059 -20 750 -20 c 0
EndSplineSet
Substitution2: "'c2sc' Capitals to Small Capitals lookup 38 subtable" cacute.sc
Substitution2: "'aalt' Access All Alternates lookup 0 subtable" cacute.sc
Position2: "'cpsp' Capital Spacing lookup 0 subtable" dx=10 dy=0 dh=20 dv=0
EndChar

StartChar: cacute
Encoding: 263 263 201
Width: 1081
GlyphClass: 2
Flags: HW
AnchorPoint: "Anchor-3" 582 549 basechar 0
AnchorPoint: "Anchor-2" 1157 1098 basechar 0
AnchorPoint: "Anchor-1" 465 0 basechar 0
AnchorPoint: "Anchor-0" 819 1569 basechar 0
LayerCount: 2
Fore
SplineSet
657 1241 m 1
 664 1268 l 1
 740 1346 844 1477 907 1569 c 1
 1229 1569 l 1
 1223 1548 l 1
 1157 1476 942 1315 797 1241 c 1
 657 1241 l 1
535 -20 m 0
 287 -20 82 118 82 403 c 0
 82 706 314 1118 756 1118 c 0
 983 1118 1081 1018 1081 901 c 0
 1081 817 1011 729 831 729 c 1
 831 874 780 995 682 995 c 0
 506 995 395 610 395 399 c 0
 395 233 474 135 621 135 c 0
 766 135 850 221 907 303 c 1
 923 287 938 254 938 213 c 0
 938 107 816 -20 535 -20 c 0
EndSplineSet
Substitution2: "'smcp' Lowercase to Small Capitals lookup 39 subtable" cacute.sc
Substitution2: "'aalt' Access All Alternates lookup 0 subtable" cacute.sc
EndChar

StartChar: Ccircumflex
Encoding: 264 264 202
Width: 1368
GlyphClass: 2
Flags: HW
AnchorPoint: "Anchor-3" 784 735 basechar 0
AnchorPoint: "Anchor-2" 1522 1462 basechar 0
AnchorPoint: "Anchor-1" 711 0 basechar 0
AnchorPoint: "Anchor-0" 1116 1907 basechar 0
LayerCount: 2
Fore
SplineSet
649 1606 m 1
 729 1684 862 1811 940 1907 c 1
 1217 1907 l 1
 1252 1823 1329 1684 1376 1606 c 1
 1370 1579 l 1
 1241 1579 l 1
 1194 1624 1108 1708 1059 1763 c 1
 985 1708 871 1624 803 1579 c 1
 643 1579 l 1
 649 1606 l 1
750 -20 m 0
 359 -20 129 180 129 530 c 0
 129 1022 487 1491 1034 1491 c 0
 1306 1491 1440 1394 1440 1247 c 0
 1440 1128 1317 1063 1151 1063 c 1
 1151 1178 1129 1360 977 1360 c 0
 655 1360 469 880 469 518 c 0
 469 285 587 152 823 152 c 0
 1011 152 1124 246 1192 338 c 1
 1208 326 1227 299 1227 268 c 0
 1227 131 1059 -20 750 -20 c 0
EndSplineSet
Substitution2: "'c2sc' Capitals to Small Capitals lookup 38 subtable" ccircumflex.sc
Substitution2: "'aalt' Access All Alternates lookup 0 subtable" ccircumflex.sc
Position2: "'cpsp' Capital Spacing lookup 0 subtable" dx=10 dy=0 dh=20 dv=0
EndChar

StartChar: ccircumflex
Encoding: 265 265 203
Width: 1081
GlyphClass: 2
Flags: HW
AnchorPoint: "Anchor-3" 582 549 basechar 0
AnchorPoint: "Anchor-2" 1157 1098 basechar 0
AnchorPoint: "Anchor-1" 465 0 basechar 0
AnchorPoint: "Anchor-0" 819 1569 basechar 0
LayerCount: 2
Fore
SplineSet
408 1268 m 1
 488 1346 620 1473 698 1569 c 1
 975 1569 l 1
 1010 1485 1088 1346 1135 1268 c 1
 1128 1241 l 1
 999 1241 l 1
 952 1286 866 1370 817 1425 c 1
 743 1370 629 1286 561 1241 c 1
 401 1241 l 1
 408 1268 l 1
535 -20 m 0
 287 -20 82 118 82 403 c 0
 82 706 314 1118 756 1118 c 0
 983 1118 1081 1018 1081 901 c 0
 1081 817 1011 729 831 729 c 1
 831 874 780 995 682 995 c 0
 506 995 395 610 395 399 c 0
 395 233 474 135 621 135 c 0
 766 135 850 221 907 303 c 1
 923 287 938 254 938 213 c 0
 938 107 816 -20 535 -20 c 0
EndSplineSet
Substitution2: "'smcp' Lowercase to Small Capitals lookup 39 subtable" ccircumflex.sc
Substitution2: "'aalt' Access All Alternates lookup 0 subtable" ccircumflex.sc
EndChar

StartChar: Cdotaccent
Encoding: 266 266 204
Width: 1368
GlyphClass: 2
Flags: HW
AnchorPoint: "Anchor-3" 784 735 basechar 0
AnchorPoint: "Anchor-2" 1522 1462 basechar 0
AnchorPoint: "Anchor-1" 711 0 basechar 0
AnchorPoint: "Anchor-0" 1118 1915 basechar 0
LayerCount: 2
Fore
SplineSet
1051 1620 m 0
 961 1620 891 1661 891 1747 c 0
 891 1866 979 1915 1081 1915 c 0
 1169 1915 1245 1878 1245 1786 c 0
 1245 1673 1149 1620 1051 1620 c 0
750 -20 m 0
 359 -20 129 180 129 530 c 0
 129 1022 487 1491 1034 1491 c 0
 1306 1491 1440 1394 1440 1247 c 0
 1440 1128 1317 1063 1151 1063 c 1
 1151 1178 1129 1360 977 1360 c 0
 655 1360 469 880 469 518 c 0
 469 285 587 152 823 152 c 0
 1011 152 1124 246 1192 338 c 1
 1208 326 1227 299 1227 268 c 0
 1227 131 1059 -20 750 -20 c 0
EndSplineSet
Position2: "'cpsp' Capital Spacing lookup 0 subtable" dx=10 dy=0 dh=20 dv=0
EndChar

StartChar: cdotaccent
Encoding: 267 267 205
Width: 1081
GlyphClass: 2
Flags: HW
AnchorPoint: "Anchor-3" 582 549 basechar 0
AnchorPoint: "Anchor-2" 1157 1098 basechar 0
AnchorPoint: "Anchor-1" 465 0 basechar 0
AnchorPoint: "Anchor-0" 821 1577 basechar 0
LayerCount: 2
Fore
SplineSet
782 1282 m 0
 692 1282 623 1323 623 1409 c 0
 623 1528 711 1577 813 1577 c 0
 901 1577 977 1540 977 1448 c 0
 977 1335 880 1282 782 1282 c 0
535 -20 m 0
 287 -20 82 118 82 403 c 0
 82 706 314 1118 756 1118 c 0
 983 1118 1081 1018 1081 901 c 0
 1081 817 1011 729 831 729 c 1
 831 874 780 995 682 995 c 0
 506 995 395 610 395 399 c 0
 395 233 474 135 621 135 c 0
 766 135 850 221 907 303 c 1
 923 287 938 254 938 213 c 0
 938 107 816 -20 535 -20 c 0
EndSplineSet
Substitution2: "'smcp' Lowercase to Small Capitals lookup 39 subtable" cdotaccent.sc
Substitution2: "'aalt' Access All Alternates lookup 0 subtable" cdotaccent.sc
EndChar

StartChar: Ccaron
Encoding: 268 268 206
Width: 1368
GlyphClass: 2
Flags: HW
AnchorPoint: "Anchor-3" 784 735 basechar 0
AnchorPoint: "Anchor-2" 1522 1462 basechar 0
AnchorPoint: "Anchor-1" 711 0 basechar 0
AnchorPoint: "Anchor-0" 1116 1907 basechar 0
LayerCount: 2
Fore
SplineSet
891 1579 m 1
 856 1663 778 1802 731 1880 c 1
 737 1907 l 1
 866 1907 l 1
 913 1862 1000 1777 1049 1722 c 1
 1123 1777 1237 1862 1305 1907 c 1
 1464 1907 l 1
 1458 1880 l 1
 1378 1802 1245 1675 1167 1579 c 1
 891 1579 l 1
750 -20 m 0
 359 -20 129 180 129 530 c 0
 129 1022 487 1491 1034 1491 c 0
 1306 1491 1440 1394 1440 1247 c 0
 1440 1128 1317 1063 1151 1063 c 1
 1151 1178 1129 1360 977 1360 c 0
 655 1360 469 880 469 518 c 0
 469 285 587 152 823 152 c 0
 1011 152 1124 246 1192 338 c 1
 1208 326 1227 299 1227 268 c 0
 1227 131 1059 -20 750 -20 c 0
EndSplineSet
Substitution2: "'c2sc' Capitals to Small Capitals lookup 38 subtable" ccaron.sc
Substitution2: "'aalt' Access All Alternates lookup 0 subtable" ccaron.sc
Position2: "'cpsp' Capital Spacing lookup 0 subtable" dx=10 dy=0 dh=20 dv=0
EndChar

StartChar: ccaron
Encoding: 269 269 207
Width: 1081
GlyphClass: 2
Flags: HW
AnchorPoint: "Anchor-3" 582 549 basechar 0
AnchorPoint: "Anchor-2" 1157 1098 basechar 0
AnchorPoint: "Anchor-1" 465 0 basechar 0
AnchorPoint: "Anchor-0" 819 1569 basechar 0
LayerCount: 2
Fore
SplineSet
596 1241 m 1
 561 1325 483 1464 436 1542 c 1
 442 1569 l 1
 571 1569 l 1
 618 1524 705 1439 754 1384 c 1
 828 1439 942 1524 1010 1569 c 1
 1169 1569 l 1
 1163 1542 l 1
 1083 1464 950 1337 872 1241 c 1
 596 1241 l 1
535 -20 m 0
 287 -20 82 118 82 403 c 0
 82 706 314 1118 756 1118 c 0
 983 1118 1081 1018 1081 901 c 0
 1081 817 1011 729 831 729 c 1
 831 874 780 995 682 995 c 0
 506 995 395 610 395 399 c 0
 395 233 474 135 621 135 c 0
 766 135 850 221 907 303 c 1
 923 287 938 254 938 213 c 0
 938 107 816 -20 535 -20 c 0
EndSplineSet
Substitution2: "'smcp' Lowercase to Small Capitals lookup 39 subtable" ccaron.sc
Substitution2: "'aalt' Access All Alternates lookup 0 subtable" ccaron.sc
EndChar

StartChar: Dcaron
Encoding: 270 270 208
Width: 1572
GlyphClass: 2
Flags: HW
AnchorPoint: "Anchor-3" 864 731 basechar 0
AnchorPoint: "Anchor-2" 1726 1462 basechar 0
AnchorPoint: "Anchor-1" 670 0 basechar 0
AnchorPoint: "Anchor-0" 952 1907 basechar 0
LayerCount: 2
Fore
SplineSet
768 1579 m 1
 733 1663 655 1802 608 1880 c 1
 614 1907 l 1
 743 1907 l 1
 790 1862 877 1777 926 1722 c 1
 1000 1777 1114 1862 1182 1907 c 1
 1341 1907 l 1
 1335 1880 l 1
 1255 1802 1122 1675 1044 1579 c 1
 768 1579 l 1
-49 0 m 1
 -27 109 l 1
 2 109 l 2
 88 109 167 125 190 231 c 2
 403 1237 l 2
 407 1251 412 1274 412 1284 c 0
 412 1343 350 1354 264 1354 c 2
 238 1354 l 1
 260 1462 l 1
 915 1462 l 2
 1306 1462 1536 1267 1536 905 c 0
 1536 418 1229 0 672 0 c 2
 -49 0 l 1
584 127 m 2
 967 127 1192 455 1192 922 c 0
 1192 1209 1053 1337 834 1337 c 2
 748 1337 l 1
 492 127 l 1
 584 127 l 2
EndSplineSet
Substitution2: "'c2sc' Capitals to Small Capitals lookup 38 subtable" dcaron.sc
Substitution2: "'aalt' Access All Alternates lookup 0 subtable" dcaron.sc
Position2: "'cpsp' Capital Spacing lookup 0 subtable" dx=10 dy=0 dh=20 dv=0
EndChar

StartChar: dcaron
Encoding: 271 271 209
Width: 1361
GlyphClass: 2
Flags: HW
AnchorPoint: "Anchor-3" 799 549 basechar 0
AnchorPoint: "Anchor-2" 1454 1556 basechar 0
AnchorPoint: "Anchor-1" 565 0 basechar 0
AnchorPoint: "Anchor-0" 897 1556 basechar 0
LayerCount: 2
Fore
SplineSet
1378 1255 m 1
 1423 1349 1470 1458 1503 1556 c 1
 1761 1556 l 1
 1755 1536 l 1
 1700 1450 1591 1321 1495 1229 c 1
 1372 1229 l 1
 1378 1255 l 1
381 -20 m 0
 170 -20 82 151 82 354 c 0
 82 673 310 1118 711 1118 c 0
 791 1118 865 1098 918 1067 c 1
 922 1102 934 1167 940 1192 c 2
 958 1274 l 2
 966 1309 973 1348 973 1362 c 0
 973 1436 942 1448 864 1448 c 2
 817 1448 l 1
 836 1556 l 1
 1329 1556 l 1
 1092 440 l 2
 1080 379 1061 282 1061 233 c 0
 1061 170 1096 141 1133 141 c 0
 1168 141 1214 164 1247 184 c 1
 1292 104 l 1
 1220 45 1110 -20 969 -20 c 0
 850 -20 768 34 768 143 c 0
 768 194 774 239 782 276 c 1
 770 276 l 1
 668 65 549 -20 381 -20 c 0
504 143 m 0
 625 143 766 369 813 590 c 2
 885 930 l 1
 856 967 799 987 750 987 c 0
 519 987 393 577 393 352 c 0
 393 196 441 143 504 143 c 0
EndSplineSet
Substitution2: "'smcp' Lowercase to Small Capitals lookup 39 subtable" dcaron.sc
Substitution2: "'aalt' Access All Alternates lookup 0 subtable" dcaron.sc
EndChar

StartChar: Dcroat
Encoding: 272 272 210
Width: 1572
GlyphClass: 2
Flags: HW
AnchorPoint: "Anchor-3" 864 731 basechar 0
AnchorPoint: "Anchor-2" 1726 1462 basechar 0
AnchorPoint: "Anchor-1" 670 0 basechar 0
AnchorPoint: "Anchor-0" 981 1462 basechar 0
LayerCount: 2
Fore
SplineSet
-49 0 m 1
 -27 109 l 1
 2 109 l 2
 88 109 167 125 190 231 c 2
 291 702 l 1
 121 702 l 1
 147 827 l 1
 317 827 l 1
 403 1237 l 2
 407 1251 412 1274 412 1284 c 0
 412 1343 350 1354 264 1354 c 2
 238 1354 l 1
 260 1462 l 1
 915 1462 l 2
 1306 1462 1536 1267 1536 905 c 0
 1536 418 1229 0 672 0 c 2
 -49 0 l 1
584 127 m 2
 967 127 1192 455 1192 922 c 0
 1192 1209 1053 1337 834 1337 c 2
 748 1337 l 1
 639 827 l 1
 897 827 l 1
 870 702 l 1
 612 702 l 1
 492 127 l 1
 584 127 l 2
EndSplineSet
Substitution2: "'c2sc' Capitals to Small Capitals lookup 38 subtable" dcroat.sc
Substitution2: "'aalt' Access All Alternates lookup 0 subtable" dcroat.sc
Position2: "'cpsp' Capital Spacing lookup 0 subtable" dx=10 dy=0 dh=20 dv=0
EndChar

StartChar: dcroat
Encoding: 273 273 211
Width: 1359
GlyphClass: 2
Flags: HW
AnchorPoint: "Anchor-3" 764 768 basechar 0
AnchorPoint: "Anchor-1" 563 0 basechar 0
AnchorPoint: "Anchor-0" 895 1556 basechar 0
LayerCount: 2
Fore
SplineSet
379 -20 m 0
 168 -20 80 151 80 354 c 0
 80 647 301 1057 694 1057 c 0
 774 1057 846 1039 899 1008 c 1
 907 1055 926 1141 936 1184 c 1
 621 1184 l 1
 643 1292 l 1
 961 1292 l 1
 967 1323 l 2
 983 1405 973 1448 862 1448 c 2
 815 1448 l 1
 834 1556 l 1
 1327 1556 l 1
 1270 1292 l 1
 1450 1292 l 1
 1427 1184 l 1
 1247 1184 l 1
 1090 440 l 2
 1074 364 1059 282 1059 233 c 0
 1059 170 1093 141 1130 141 c 0
 1165 141 1212 164 1245 184 c 1
 1290 104 l 1
 1218 45 1108 -20 967 -20 c 0
 848 -20 766 34 766 143 c 0
 766 186 770 217 780 276 c 1
 768 276 l 1
 666 65 547 -20 379 -20 c 0
502 143 m 0
 623 143 766 369 811 590 c 2
 868 868 l 1
 839 905 782 926 733 926 c 0
 512 926 391 555 391 352 c 0
 391 196 439 143 502 143 c 0
EndSplineSet
Substitution2: "'smcp' Lowercase to Small Capitals lookup 39 subtable" dcroat.sc
Substitution2: "'aalt' Access All Alternates lookup 0 subtable" dcroat.sc
EndChar

StartChar: Emacron
Encoding: 274 274 212
Width: 1296
GlyphClass: 2
Flags: HW
AnchorPoint: "Anchor-3" 662 731 basechar 0
AnchorPoint: "Anchor-2" 1450 1462 basechar 0
AnchorPoint: "Anchor-1" 532 0 basechar 0
AnchorPoint: "Anchor-0" 907 1741 basechar 0
LayerCount: 2
Fore
SplineSet
588 1579 m 1
 623 1741 l 1
 1217 1741 l 1
 1182 1579 l 1
 588 1579 l 1
-47 0 m 1
 -25 109 l 1
 2 109 l 2
 88 109 167 125 190 231 c 2
 403 1237 l 2
 407 1251 412 1274 412 1284 c 0
 412 1343 350 1354 264 1354 c 2
 238 1354 l 1
 260 1462 l 1
 1372 1462 l 1
 1300 1081 l 1
 1155 1081 l 1
 1157 1099 1165 1190 1165 1200 c 0
 1165 1276 1126 1337 1020 1337 c 2
 748 1337 l 1
 639 825 l 1
 1104 825 l 1
 1077 702 l 1
 612 702 l 1
 489 125 l 1
 813 125 l 2
 942 125 1011 203 1044 293 c 2
 1077 381 l 1
 1223 381 l 1
 1128 0 l 1
 -47 0 l 1
EndSplineSet
Substitution2: "'c2sc' Capitals to Small Capitals lookup 38 subtable" emacron.sc
Substitution2: "'aalt' Access All Alternates lookup 0 subtable" emacron.sc
Position2: "'cpsp' Capital Spacing lookup 0 subtable" dx=10 dy=0 dh=20 dv=0
EndChar

StartChar: emacron
Encoding: 275 275 213
Width: 1095
GlyphClass: 2
Flags: HW
AnchorPoint: "Anchor-3" 584 549 basechar 0
AnchorPoint: "Anchor-2" 1171 1098 basechar 0
AnchorPoint: "Anchor-1" 473 0 basechar 0
AnchorPoint: "Anchor-0" 813 1403 basechar 0
LayerCount: 2
Fore
SplineSet
463 1241 m 1
 498 1403 l 1
 1092 1403 l 1
 1057 1241 l 1
 463 1241 l 1
539 -20 m 0
 289 -20 82 116 82 403 c 0
 82 708 323 1118 776 1118 c 0
 971 1118 1085 1029 1085 877 c 0
 1085 656 827 461 475 461 c 2
 399 461 l 1
 395 434 395 406 395 383 c 0
 395 225 468 135 618 135 c 0
 751 135 861 219 918 301 c 1
 934 281 944 248 944 213 c 0
 944 115 820 -20 539 -20 c 0
432 578 m 2
 635 578 791 690 791 862 c 0
 791 946 753 995 690 995 c 0
 557 995 447 775 414 578 c 1
 432 578 l 2
EndSplineSet
Substitution2: "'smcp' Lowercase to Small Capitals lookup 39 subtable" emacron.sc
Substitution2: "'aalt' Access All Alternates lookup 0 subtable" emacron.sc
EndChar

StartChar: Ebreve
Encoding: 276 276 214
Width: 1296
GlyphClass: 2
Flags: HW
AnchorPoint: "Anchor-3" 662 731 basechar 0
AnchorPoint: "Anchor-2" 1450 1462 basechar 0
AnchorPoint: "Anchor-1" 532 0 basechar 0
AnchorPoint: "Anchor-0" 936 1901 basechar 0
LayerCount: 2
Fore
SplineSet
862 1579 m 0
 682 1579 590 1708 578 1901 c 1
 713 1901 l 1
 723 1807 789 1761 885 1761 c 0
 983 1761 1059 1803 1100 1901 c 1
 1227 1901 l 1
 1186 1743 1059 1579 862 1579 c 0
-47 0 m 1
 -25 109 l 1
 2 109 l 2
 88 109 167 125 190 231 c 2
 403 1237 l 2
 407 1251 412 1274 412 1284 c 0
 412 1343 350 1354 264 1354 c 2
 238 1354 l 1
 260 1462 l 1
 1372 1462 l 1
 1300 1081 l 1
 1155 1081 l 1
 1157 1099 1165 1190 1165 1200 c 0
 1165 1276 1126 1337 1020 1337 c 2
 748 1337 l 1
 639 825 l 1
 1104 825 l 1
 1077 702 l 1
 612 702 l 1
 489 125 l 1
 813 125 l 2
 942 125 1011 203 1044 293 c 2
 1077 381 l 1
 1223 381 l 1
 1128 0 l 1
 -47 0 l 1
EndSplineSet
Substitution2: "'c2sc' Capitals to Small Capitals lookup 38 subtable" ebreve.sc
Substitution2: "'aalt' Access All Alternates lookup 0 subtable" ebreve.sc
Position2: "'cpsp' Capital Spacing lookup 0 subtable" dx=10 dy=0 dh=20 dv=0
EndChar

StartChar: ebreve
Encoding: 277 277 215
Width: 1095
GlyphClass: 2
Flags: HW
AnchorPoint: "Anchor-3" 584 549 basechar 0
AnchorPoint: "Anchor-2" 1171 1098 basechar 0
AnchorPoint: "Anchor-1" 473 0 basechar 0
AnchorPoint: "Anchor-0" 846 1563 basechar 0
LayerCount: 2
Fore
SplineSet
741 1241 m 0
 561 1241 469 1370 457 1563 c 1
 592 1563 l 1
 602 1469 668 1423 764 1423 c 0
 862 1423 938 1465 979 1563 c 1
 1106 1563 l 1
 1065 1405 938 1241 741 1241 c 0
539 -20 m 0
 289 -20 82 116 82 403 c 0
 82 708 323 1118 776 1118 c 0
 971 1118 1085 1029 1085 877 c 0
 1085 656 827 461 475 461 c 2
 399 461 l 1
 395 434 395 406 395 383 c 0
 395 225 468 135 618 135 c 0
 751 135 861 219 918 301 c 1
 934 281 944 248 944 213 c 0
 944 115 820 -20 539 -20 c 0
432 578 m 2
 635 578 791 690 791 862 c 0
 791 946 753 995 690 995 c 0
 557 995 447 775 414 578 c 1
 432 578 l 2
EndSplineSet
Substitution2: "'smcp' Lowercase to Small Capitals lookup 39 subtable" ebreve.sc
Substitution2: "'aalt' Access All Alternates lookup 0 subtable" ebreve.sc
EndChar

StartChar: Edotaccent
Encoding: 278 278 216
Width: 1296
GlyphClass: 2
Flags: HW
AnchorPoint: "Anchor-3" 662 731 basechar 0
AnchorPoint: "Anchor-2" 1450 1462 basechar 0
AnchorPoint: "Anchor-1" 532 0 basechar 0
AnchorPoint: "Anchor-0" 934 1886 basechar 0
LayerCount: 2
Fore
SplineSet
862 1591 m 0
 772 1591 702 1632 702 1718 c 0
 702 1837 791 1886 893 1886 c 0
 981 1886 1057 1849 1057 1757 c 0
 1057 1644 960 1591 862 1591 c 0
-47 0 m 1
 -25 109 l 1
 2 109 l 2
 88 109 167 125 190 231 c 2
 403 1237 l 2
 407 1251 412 1274 412 1284 c 0
 412 1343 350 1354 264 1354 c 2
 238 1354 l 1
 260 1462 l 1
 1372 1462 l 1
 1300 1081 l 1
 1155 1081 l 1
 1157 1099 1165 1190 1165 1200 c 0
 1165 1276 1126 1337 1020 1337 c 2
 748 1337 l 1
 639 825 l 1
 1104 825 l 1
 1077 702 l 1
 612 702 l 1
 489 125 l 1
 813 125 l 2
 942 125 1011 203 1044 293 c 2
 1077 381 l 1
 1223 381 l 1
 1128 0 l 1
 -47 0 l 1
EndSplineSet
Substitution2: "'c2sc' Capitals to Small Capitals lookup 38 subtable" edotaccent.sc
Substitution2: "'aalt' Access All Alternates lookup 0 subtable" edotaccent.sc
Position2: "'cpsp' Capital Spacing lookup 0 subtable" dx=10 dy=0 dh=20 dv=0
EndChar

StartChar: edotaccent
Encoding: 279 279 217
Width: 1095
GlyphClass: 2
Flags: HW
AnchorPoint: "Anchor-3" 584 549 basechar 0
AnchorPoint: "Anchor-2" 1171 1098 basechar 0
AnchorPoint: "Anchor-1" 473 0 basechar 0
AnchorPoint: "Anchor-0" 850 1577 basechar 0
LayerCount: 2
Fore
SplineSet
743 1282 m 0
 653 1282 584 1323 584 1409 c 0
 584 1528 672 1577 774 1577 c 0
 862 1577 938 1540 938 1448 c 0
 938 1335 841 1282 743 1282 c 0
539 -20 m 0
 289 -20 82 116 82 403 c 0
 82 708 323 1118 776 1118 c 0
 971 1118 1085 1029 1085 877 c 0
 1085 656 827 461 475 461 c 2
 399 461 l 1
 395 434 395 406 395 383 c 0
 395 225 468 135 618 135 c 0
 751 135 861 219 918 301 c 1
 934 281 944 248 944 213 c 0
 944 115 820 -20 539 -20 c 0
432 578 m 2
 635 578 791 690 791 862 c 0
 791 946 753 995 690 995 c 0
 557 995 447 775 414 578 c 1
 432 578 l 2
EndSplineSet
Substitution2: "'smcp' Lowercase to Small Capitals lookup 39 subtable" edotaccent.sc
Substitution2: "'aalt' Access All Alternates lookup 0 subtable" edotaccent.sc
EndChar

StartChar: Eogonek
Encoding: 280 280 218
Width: 1296
GlyphClass: 2
Flags: HW
AnchorPoint: "Anchor-3" 662 731 basechar 0
AnchorPoint: "Anchor-2" 1450 1462 basechar 0
AnchorPoint: "Anchor-1" 428 -492 basechar 0
AnchorPoint: "Anchor-0" 844 1462 basechar 0
LayerCount: 2
Fore
SplineSet
-47 0 m 1
 -25 109 l 1
 2 109 l 2
 88 109 167 125 190 231 c 2
 403 1237 l 2
 407 1251 412 1274 412 1284 c 0
 412 1343 350 1354 264 1354 c 2
 238 1354 l 1
 260 1462 l 1
 1372 1462 l 1
 1300 1081 l 1
 1155 1081 l 1
 1157 1099 1165 1190 1165 1200 c 0
 1165 1276 1126 1337 1020 1337 c 2
 748 1337 l 1
 639 825 l 1
 1104 825 l 1
 1077 702 l 1
 612 702 l 1
 489 125 l 1
 813 125 l 2
 942 125 1011 203 1044 293 c 2
 1077 381 l 1
 1223 381 l 1
 1128 0 l 1
 1069 0 l 1
 975 -27 825 -107 825 -240 c 0
 825 -303 872 -344 942 -344 c 0
 979 -344 1024 -338 1075 -328 c 1
 1049 -459 l 1
 998 -479 933 -492 870 -492 c 0
 706 -492 608 -418 608 -283 c 0
 608 -136 733 -41 911 0 c 1
 -47 0 l 1
EndSplineSet
Substitution2: "'c2sc' Capitals to Small Capitals lookup 38 subtable" eogonek.sc
Substitution2: "'locl' Localized Forms in Latin lookup 6 subtable" Eogonek.loclNAV
AlternateSubs2: "'aalt' Access All Alternates lookup 1 subtable" Eogonek.loclNAV eogonek.sc
Position2: "'cpsp' Capital Spacing lookup 0 subtable" dx=10 dy=0 dh=20 dv=0
EndChar

StartChar: eogonek
Encoding: 281 281 219
Width: 1095
GlyphClass: 2
Flags: HW
AnchorPoint: "Anchor-3" 584 549 basechar 0
AnchorPoint: "Anchor-2" 1171 1098 basechar 0
AnchorPoint: "Anchor-1" 375 -461 basechar 0
AnchorPoint: "Anchor-0" 748 1098 basechar 0
LayerCount: 2
Fore
SplineSet
598 -461 m 0
 434 -461 336 -387 336 -252 c 0
 336 -148 398 -69 498 -18 c 1
 267 -4 82 133 82 403 c 0
 82 708 323 1118 776 1118 c 0
 971 1118 1085 1029 1085 877 c 0
 1085 656 827 461 475 461 c 2
 399 461 l 1
 395 434 395 406 395 383 c 0
 395 225 468 135 618 135 c 0
 751 135 861 219 918 301 c 1
 934 281 944 248 944 213 c 0
 944 139 875 47 723 4 c 1
 641 -37 553 -107 553 -209 c 0
 553 -272 600 -313 670 -313 c 0
 707 -313 752 -307 803 -297 c 1
 776 -428 l 1
 725 -448 661 -461 598 -461 c 0
432 578 m 2
 635 578 791 690 791 862 c 0
 791 946 753 995 690 995 c 0
 557 995 447 775 414 578 c 1
 432 578 l 2
EndSplineSet
Substitution2: "'smcp' Lowercase to Small Capitals lookup 39 subtable" eogonek.sc
Substitution2: "'locl' Localized Forms in Latin lookup 6 subtable" eogonek.loclNAV
AlternateSubs2: "'aalt' Access All Alternates lookup 1 subtable" eogonek.loclNAV eogonek.sc
EndChar

StartChar: Ecaron
Encoding: 282 282 220
Width: 1296
GlyphClass: 2
Flags: HW
AnchorPoint: "Anchor-3" 662 731 basechar 0
AnchorPoint: "Anchor-2" 1450 1462 basechar 0
AnchorPoint: "Anchor-1" 532 0 basechar 0
AnchorPoint: "Anchor-0" 938 1907 basechar 0
LayerCount: 2
Fore
SplineSet
721 1579 m 1
 686 1663 608 1802 561 1880 c 1
 567 1907 l 1
 696 1907 l 1
 743 1862 830 1777 879 1722 c 1
 953 1777 1067 1862 1135 1907 c 1
 1294 1907 l 1
 1288 1880 l 1
 1208 1802 1075 1675 997 1579 c 1
 721 1579 l 1
-47 0 m 1
 -25 109 l 1
 2 109 l 2
 88 109 167 125 190 231 c 2
 403 1237 l 2
 407 1251 412 1274 412 1284 c 0
 412 1343 350 1354 264 1354 c 2
 238 1354 l 1
 260 1462 l 1
 1372 1462 l 1
 1300 1081 l 1
 1155 1081 l 1
 1157 1099 1165 1190 1165 1200 c 0
 1165 1276 1126 1337 1020 1337 c 2
 748 1337 l 1
 639 825 l 1
 1104 825 l 1
 1077 702 l 1
 612 702 l 1
 489 125 l 1
 813 125 l 2
 942 125 1011 203 1044 293 c 2
 1077 381 l 1
 1223 381 l 1
 1128 0 l 1
 -47 0 l 1
EndSplineSet
Substitution2: "'c2sc' Capitals to Small Capitals lookup 38 subtable" ecaron.sc
Substitution2: "'aalt' Access All Alternates lookup 0 subtable" ecaron.sc
Position2: "'cpsp' Capital Spacing lookup 0 subtable" dx=10 dy=0 dh=20 dv=0
EndChar

